<svg xmlns="http://www.w3.org/2000/svg" xmlns:xlink="http://www.w3.org/1999/xlink" viewBox="0 0 71.93 71.93"><defs><style>.cls-1{fill:#f8c65c;}.cls-2{fill:#f6bb53;}.cls-3{fill:#644735;}.cls-4{fill:#2c2c2d;}.cls-5{fill:#ee9ea8;}</style><symbol id="_3" data-name="3" viewBox="0 0 67.02 67.02"><circle class="cls-1" cx="33.51" cy="33.51" r="33.51" transform="translate(-4.93 61.22) rotate(-80.78)"/><path class="cls-2" d="M51,4.91A33.52,33.52,0,0,1,22.8,56.47,33.34,33.34,0,0,1,5.27,51.52,33.51,33.51,0,1,0,51,4.91Z"/><path class="cls-3" d="M19.77,38.58a1.11,1.11,0,0,0-1.8,1.2A16.8,16.8,0,0,0,49,40.09a1.11,1.11,0,0,0-1.79-1.22C42.35,43.63,31.94,50.39,19.77,38.58Z"/><path class="cls-4" d="M24.86,28.71a6.2,6.2,0,0,0-11.48-.12A1,1,0,0,0,15,29.7c1.86-1.81,4.8-3.25,8.24.09a1,1,0,0,0,.7.29,1,1,0,0,0,.56-.17A1,1,0,0,0,24.86,28.71Z"/><path class="cls-4" d="M53.65,28.71a6.2,6.2,0,0,0-11.48-.12,1,1,0,0,0,.35,1.21,1,1,0,0,0,1.26-.1c1.86-1.81,4.8-3.25,8.24.09a1,1,0,0,0,.7.29,1,1,0,0,0,.56-.17A1,1,0,0,0,53.65,28.71Z"/><circle class="cls-5" cx="8.87" cy="38.43" r="5.85"/><path class="cls-5" d="M64,38.43a5.85,5.85,0,1,1-5.85-5.85A5.85,5.85,0,0,1,64,38.43Z"/></symbol></defs><g id="Layer_2" data-name="Layer 2"><g id="feliz"><use width="67.02" height="67.02" transform="scale(1.07)" xlink:href="#_3"/></g></g></svg>