<svg xmlns="http://www.w3.org/2000/svg" viewBox="0 0 73.44 28.74"><defs><style>.cls-1{fill:#d7d9dd;}.cls-2{fill:#fff;}.cls-3{fill:#f7bf58;}</style></defs><g id="Layer_2" data-name="Layer 2"><g id="mensaje3"><path class="cls-1" d="M73.44,17.82V6.24A6.26,6.26,0,0,0,67.2,0h-61A6.26,6.26,0,0,0,0,6.24V17.82a6.26,6.26,0,0,0,6.24,6.24H64.1a16.93,16.93,0,0,0,7.16,4.66.36.36,0,0,0,.44-.49,10.6,10.6,0,0,1-1.6-4.89A6.26,6.26,0,0,0,73.44,17.82Z"/><rect class="cls-2" x="9.09" y="4.85" width="55.25" height="2.55"/><rect class="cls-2" x="9.09" y="10.67" width="55.25" height="2.55"/><rect class="cls-2" x="9.09" y="16.5" width="30.99" height="2.55"/><circle class="cls-3" cx="46" cy="17.77" r="3.81"/></g></g></svg>