<svg xmlns="http://www.w3.org/2000/svg" viewBox="0 0 74.44 29.74"><defs><style>.cls-1{fill:none;stroke:#d7d9dd;stroke-miterlimit:10;}.cls-2{fill:#d7d9dd;}.cls-3{fill:#f7bf58;}</style></defs><g id="Layer_2" data-name="Layer 2"><g id="mensaje2"><path class="cls-1" d="M.5,18.32V6.74A6.26,6.26,0,0,1,6.74.5h61a6.26,6.26,0,0,1,6.24,6.24V18.32a6.26,6.26,0,0,1-6.24,6.24H9.84a16.93,16.93,0,0,1-7.16,4.66.36.36,0,0,1-.45-.49,10.48,10.48,0,0,0,1.6-4.89A6.27,6.27,0,0,1,.5,18.32Z"/><rect class="cls-2" x="9.59" y="5.35" width="36.32" height="2.55"/><rect class="cls-2" x="9.59" y="11.17" width="55.25" height="2.55"/><rect class="cls-2" x="9.59" y="17" width="30.99" height="2.55"/><circle class="cls-3" cx="51.53" cy="6.62" r="3.81"/><rect class="cls-2" x="57.05" y="5.35" width="7.79" height="2.55"/></g></g></svg>