<svg xmlns="http://www.w3.org/2000/svg" viewBox="0 0 118.33 109.7"><defs><style>.cls-1{isolation:isolate;}.cls-2{opacity:0.19;mix-blend-mode:multiply;}.cls-3{fill:#1f140f;}.cls-4{fill:#fff;}</style></defs><g class="cls-1"><g id="Layer_2" data-name="Layer 2"><g id="nubeFeliz"><g class="cls-2"><path class="cls-3" d="M118.33,85.86V17.63A13.67,13.67,0,0,0,104.7,4H16.63A13.67,13.67,0,0,0,3,17.63V85.86A13.67,13.67,0,0,0,16.63,99.49H97.94a36.9,36.9,0,0,0,15.63,10.17.79.79,0,0,0,1-1.07c-1.07-2.12-3.24-5.3-3.5-10.68A13.66,13.66,0,0,0,118.33,85.86Z"/><path class="cls-3" d="M118.33,85.86V17.63A13.67,13.67,0,0,0,104.7,4H16.63A13.67,13.67,0,0,0,3,17.63V85.86A13.67,13.67,0,0,0,16.63,99.49H97.94a36.9,36.9,0,0,0,15.63,10.17.79.79,0,0,0,1-1.07c-1.07-2.12-3.24-5.3-3.5-10.68A13.66,13.66,0,0,0,118.33,85.86Z"/></g><path class="cls-4" d="M115.33,81.86V13.63A13.67,13.67,0,0,0,101.7,0H13.63A13.67,13.67,0,0,0,0,13.63V81.86A13.67,13.67,0,0,0,13.63,95.49H94.94a36.9,36.9,0,0,0,15.63,10.17.79.79,0,0,0,1-1.07c-1.07-2.12-3.24-5.3-3.5-10.68A13.66,13.66,0,0,0,115.33,81.86Z"/><path class="cls-4" d="M115.33,81.86V13.63A13.67,13.67,0,0,0,101.7,0H13.63A13.67,13.67,0,0,0,0,13.63V81.86A13.67,13.67,0,0,0,13.63,95.49H94.94a36.9,36.9,0,0,0,15.63,10.17.79.79,0,0,0,1-1.07c-1.07-2.12-3.24-5.3-3.5-10.68A13.66,13.66,0,0,0,115.33,81.86Z"/></g></g></g></svg>