<svg xmlns="http://www.w3.org/2000/svg" viewBox="0 0 118.33 109.7"><defs><style>.cls-1{isolation:isolate;}.cls-2{opacity:0.19;mix-blend-mode:multiply;}.cls-3{fill:#1f140f;}.cls-4{fill:#fff;}</style></defs><g class="cls-1"><g id="Layer_2" data-name="Layer 2"><g id="nubeRisa"><g class="cls-2"><path class="cls-3" d="M3,85.86V17.63A13.67,13.67,0,0,1,16.63,4H104.7a13.67,13.67,0,0,1,13.63,13.63V85.86A13.67,13.67,0,0,1,104.7,99.49H23.39A36.9,36.9,0,0,1,7.76,109.66a.78.78,0,0,1-1-1.07c1.07-2.12,3.24-5.3,3.49-10.68A13.66,13.66,0,0,1,3,85.86Z"/><path class="cls-3" d="M3,85.86V17.63A13.67,13.67,0,0,1,16.63,4H104.7a13.67,13.67,0,0,1,13.63,13.63V85.86A13.67,13.67,0,0,1,104.7,99.49H23.39A36.9,36.9,0,0,1,7.76,109.66a.78.78,0,0,1-1-1.07c1.07-2.12,3.24-5.3,3.49-10.68A13.66,13.66,0,0,1,3,85.86Z"/></g><path class="cls-4" d="M0,81.86V13.63A13.67,13.67,0,0,1,13.63,0H101.7a13.67,13.67,0,0,1,13.63,13.63V81.86A13.67,13.67,0,0,1,101.7,95.49H20.39A36.9,36.9,0,0,1,4.76,105.66a.78.78,0,0,1-1-1.07c1.07-2.12,3.24-5.3,3.49-10.68A13.66,13.66,0,0,1,0,81.86Z"/><path class="cls-4" d="M0,81.86V13.63A13.67,13.67,0,0,1,13.63,0H101.7a13.67,13.67,0,0,1,13.63,13.63V81.86A13.67,13.67,0,0,1,101.7,95.49H20.39A36.9,36.9,0,0,1,4.76,105.66a.78.78,0,0,1-1-1.07c1.07-2.12,3.24-5.3,3.49-10.68A13.66,13.66,0,0,1,0,81.86Z"/></g></g></g></svg>