<svg xmlns="http://www.w3.org/2000/svg" xmlns:xlink="http://www.w3.org/1999/xlink" viewBox="0 0 84.08 71.53"><defs><style>.cls-1{fill:#f8c65c;}.cls-2{fill:#f6bb53;}.cls-3{fill:#2c2c2d;}.cls-4{fill:#4bb9d9;}.cls-5{fill:#00afd7;}.cls-6{fill:#70523e;}.cls-7{fill:#e56167;}</style><symbol id="_4" data-name="4" viewBox="0 0 74.11 63.05"><circle class="cls-1" cx="37.05" cy="31.52" r="31.52" transform="translate(-9.24 16.58) rotate(-22.5)"/><path class="cls-2" d="M53.55,4.62A31.53,31.53,0,0,1,10.49,48.47,31.53,31.53,0,1,0,53.55,4.62Z"/><path class="cls-3" d="M20.05,32a1.33,1.33,0,0,1-.82-2.39l4.54-3.54-4.7-2.76A1.34,1.34,0,0,1,20.43,21l6.39,3.76a1.34,1.34,0,0,1,.66,1.07A1.33,1.33,0,0,1,27,27l-6.1,4.75A1.31,1.31,0,0,1,20.05,32Z"/><path class="cls-3" d="M54.06,32a1.31,1.31,0,0,1-.82-.28L47.14,27a1.33,1.33,0,0,1-.51-1.14,1.36,1.36,0,0,1,.65-1.07L53.68,21A1.34,1.34,0,0,1,55,23.34l-4.7,2.76,4.55,3.54a1.34,1.34,0,0,1,.23,1.88A1.31,1.31,0,0,1,54.06,32Z"/><path class="cls-4" d="M57,30.61c-2.33,14,1.77,18.66,1.77,18.66a8.3,8.3,0,0,0,14.13-8.73S70.53,34.79,57,30.61Z"/><path class="cls-5" d="M63.47,52.87a8.3,8.3,0,0,0,9.4-12.33s-1-2.42-5.37-5.25C71.75,45.31,67,50.53,63.47,52.87Z"/><path class="cls-4" d="M16.79,30.41C3.34,34.9,1.14,40.71,1.14,40.71A8.3,8.3,0,0,0,15.47,49.1S19.46,44.34,16.79,30.41Z"/><path class="cls-5" d="M.17,46.58a8.31,8.31,0,0,0,15.3,2.52s1.67-2,2.13-7.2C10.73,50.35,3.91,48.62.17,46.58Z"/><path class="cls-6" d="M19,35.7a18.18,18.18,0,0,0,36.12,0Z"/><path class="cls-7" d="M24.58,46.86a18.16,18.16,0,0,0,24.52.39l-.16-.39C36.81,40.94,24.74,46.77,24.58,46.86Z"/></symbol></defs><g id="Layer_2" data-name="Layer 2"><g id="risa"><use width="74.11" height="63.05" transform="scale(1.13)" xlink:href="#_4"/></g></g></svg>