<svg xmlns="http://www.w3.org/2000/svg" viewBox="0 0 121.54 239.74"><defs><style>.cls-1{isolation:isolate;}.cls-2{opacity:0.19;mix-blend-mode:multiply;}.cls-3{fill:#1f140f;}.cls-15,.cls-4,.cls-8{fill:none;stroke-miterlimit:10;}.cls-4{stroke:#1f140f;}.cls-5{fill:#fff;}.cls-6{fill:#5c5b5f;}.cls-7{fill:#434041;}.cls-8{stroke:#d7d9dd;}.cls-9{fill:#d7d9dd;}.cls-10{fill:#2d73b4;}.cls-11{fill:#115e97;}.cls-12{fill:#55abdd;}.cls-13{fill:#eeedec;}.cls-14{fill:#f7bf58;}.cls-15{stroke:#eeedec;}</style></defs><g class="cls-1"><g id="Layer_2" data-name="Layer 2"><g id="smartphone"><g class="cls-2"><rect class="cls-3" x="3" y="27.31" width="118.54" height="183.32"/><path class="cls-3" d="M121.54,27.31V22.2S121.54,4,98.88,4H25.66S3,2.33,3,22.2v5.11Z"/><path class="cls-3" d="M3,210.62v15.45s0,13.66,22.66,13.66H98.88s22.66,1,22.66-18.8V210.62Z"/><rect class="cls-3" x="8.28" y="27.31" width="107.99" height="183.32"/><path class="cls-3" d="M15.2,84.52V78.31a6.25,6.25,0,0,1,6.24-6.24h61a6.25,6.25,0,0,1,6.24,6.24v6.21a6.26,6.26,0,0,1-6.24,6.24H24.54a16.83,16.83,0,0,1-7.16,4.65.35.35,0,0,1-.45-.48A10.59,10.59,0,0,0,18.54,90,6.26,6.26,0,0,1,15.2,84.52Z"/><rect class="cls-3" x="34.36" y="77.37" width="45.18" height="2.55"/><rect class="cls-3" x="24.29" y="83.2" width="30.99" height="2.55"/><path class="cls-3" d="M109.46,59.58v-.71a6.26,6.26,0,0,0-6.24-6.24h-61A6.26,6.26,0,0,0,36,58.87v.71a6.26,6.26,0,0,0,6.24,6.25h57.86a17,17,0,0,0,7.16,4.65.36.36,0,0,0,.44-.49,10.6,10.6,0,0,1-1.6-4.89A6.26,6.26,0,0,0,109.46,59.58Z"/><rect class="cls-3" x="45.11" y="58.26" width="55.25" height="2.55"/><rect class="cls-3" x="8.28" y="27.31" width="107.99" height="17.54"/><rect class="cls-3" x="8.28" y="27.31" width="17.54" height="17.54"/><rect class="cls-3" x="8.28" y="191.88" width="107.99" height="18.74"/><circle class="cls-3" cx="106.31" cy="201.25" r="5.95"/><rect class="cls-3" x="12.22" y="195.3" width="84.53" height="11.9" rx="5.54"/><path class="cls-3" d="M13.17,33h7.75v1.66H13.17Zm0,2.22h7.75v1.66H13.17Zm0,2.21h7.75v1.66H13.17Z"/><rect class="cls-3" x="29.84" y="32.59" width="33.15" height="2.55"/><rect class="cls-3" x="29.84" y="37.02" width="14.36" height="2.55"/><rect class="cls-3" x="52.16" y="14.65" width="26.44" height="3.35" rx="1.56"/><circle class="cls-3" cx="47.61" cy="16.32" r="1.67"/><rect class="cls-3" x="3" y="27.31" width="118.54" height="183.32"/><path class="cls-3" d="M121.54,27.31V22.2S121.54,4,98.88,4H25.66S3,2.33,3,22.2v5.11Z"/><path class="cls-3" d="M3,210.62v15.45s0,13.66,22.66,13.66H98.88s22.66,1,22.66-18.8V210.62Z"/><rect class="cls-3" x="8.28" y="27.31" width="107.99" height="183.32"/><path class="cls-4" d="M15.2,84.52V78.31a6.25,6.25,0,0,1,6.24-6.24h61a6.25,6.25,0,0,1,6.24,6.24v6.21a6.26,6.26,0,0,1-6.24,6.24H24.54a16.83,16.83,0,0,1-7.16,4.65.35.35,0,0,1-.45-.48A10.59,10.59,0,0,0,18.54,90,6.26,6.26,0,0,1,15.2,84.52Z"/><rect class="cls-3" x="34.36" y="77.37" width="45.18" height="2.55"/><rect class="cls-3" x="24.29" y="83.2" width="30.99" height="2.55"/><path class="cls-3" d="M109.46,59.58v-.71a6.26,6.26,0,0,0-6.24-6.24h-61A6.26,6.26,0,0,0,36,58.87v.71a6.26,6.26,0,0,0,6.24,6.25h57.86a17,17,0,0,0,7.16,4.65.36.36,0,0,0,.44-.49,10.6,10.6,0,0,1-1.6-4.89A6.26,6.26,0,0,0,109.46,59.58Z"/><rect class="cls-3" x="45.11" y="58.26" width="55.25" height="2.55"/><rect class="cls-3" x="8.28" y="27.31" width="107.99" height="17.54"/><rect class="cls-3" x="8.28" y="27.31" width="17.54" height="17.54"/><rect class="cls-3" x="8.28" y="191.88" width="107.99" height="18.74"/><circle class="cls-3" cx="106.31" cy="201.25" r="5.95"/><rect class="cls-3" x="12.22" y="195.3" width="84.53" height="11.9" rx="5.54"/><path class="cls-3" d="M13.17,33h7.75v1.66H13.17Zm0,2.22h7.75v1.66H13.17Zm0,2.21h7.75v1.66H13.17Z"/><rect class="cls-3" x="29.84" y="32.59" width="33.15" height="2.55"/><rect class="cls-3" x="29.84" y="37.02" width="14.36" height="2.55"/><rect class="cls-3" x="52.16" y="14.65" width="26.44" height="3.35" rx="1.56"/><circle class="cls-3" cx="47.61" cy="16.32" r="1.67"/></g><rect class="cls-5" y="23.31" width="118.54" height="183.32"/><path class="cls-5" d="M118.54,23.31V18.2S118.54,0,95.88,0H22.66S0-1.67,0,18.2v5.11Z"/><path class="cls-5" d="M0,206.62v15.45s0,13.66,22.66,13.66H95.88s22.66,1,22.66-18.8V206.62Z"/><rect class="cls-5" x="5.28" y="23.31" width="107.99" height="183.32"/><path class="cls-5" d="M12.2,80.52V74.31a6.25,6.25,0,0,1,6.24-6.24h61a6.25,6.25,0,0,1,6.24,6.24v6.21a6.26,6.26,0,0,1-6.24,6.24H21.54a16.83,16.83,0,0,1-7.16,4.65.35.35,0,0,1-.45-.48A10.59,10.59,0,0,0,15.54,86,6.26,6.26,0,0,1,12.2,80.52Z"/><rect class="cls-5" x="31.36" y="73.37" width="45.18" height="2.55"/><rect class="cls-5" x="21.29" y="79.2" width="30.99" height="2.55"/><path class="cls-5" d="M106.46,55.58v-.71a6.26,6.26,0,0,0-6.24-6.24h-61A6.26,6.26,0,0,0,33,54.87v.71a6.26,6.26,0,0,0,6.24,6.25H97.12a17,17,0,0,0,7.16,4.65.36.36,0,0,0,.44-.49,10.6,10.6,0,0,1-1.6-4.89A6.26,6.26,0,0,0,106.46,55.58Z"/><rect class="cls-5" x="42.11" y="54.26" width="55.25" height="2.55"/><rect class="cls-5" x="5.28" y="23.31" width="107.99" height="17.54"/><rect class="cls-5" x="5.28" y="23.31" width="17.54" height="17.54"/><rect class="cls-5" x="5.28" y="187.88" width="107.99" height="18.74"/><circle class="cls-5" cx="103.31" cy="197.25" r="5.95"/><rect class="cls-5" x="9.22" y="191.3" width="84.53" height="11.9" rx="5.54"/><path class="cls-5" d="M10.17,29h7.75v1.66H10.17Zm0,2.22h7.75v1.66H10.17Zm0,2.21h7.75v1.66H10.17Z"/><rect class="cls-5" x="26.84" y="28.59" width="33.15" height="2.55"/><rect class="cls-5" x="26.84" y="33.02" width="14.36" height="2.55"/><rect class="cls-5" x="49.16" y="10.65" width="26.44" height="3.35" rx="1.56"/><circle class="cls-5" cx="44.61" cy="12.32" r="1.67"/><rect class="cls-6" y="23.31" width="118.54" height="183.32"/><path class="cls-7" d="M118.54,23.31V18.2S118.54,0,95.88,0H22.66S0-1.67,0,18.2v5.11Z"/><path class="cls-7" d="M0,206.62v15.45s0,13.66,22.66,13.66H95.88s22.66,1,22.66-18.8V206.62Z"/><rect class="cls-5" x="5.28" y="23.31" width="107.99" height="183.32"/><path class="cls-8" d="M12.2,80.52V74.31a6.25,6.25,0,0,1,6.24-6.24h61a6.25,6.25,0,0,1,6.24,6.24v6.21a6.26,6.26,0,0,1-6.24,6.24H21.54a16.83,16.83,0,0,1-7.16,4.65.35.35,0,0,1-.45-.48A10.59,10.59,0,0,0,15.54,86,6.26,6.26,0,0,1,12.2,80.52Z"/><rect class="cls-9" x="31.36" y="73.37" width="45.18" height="2.55"/><rect class="cls-9" x="21.29" y="79.2" width="30.99" height="2.55"/><path class="cls-9" d="M106.46,55.58v-.71a6.26,6.26,0,0,0-6.24-6.24h-61A6.26,6.26,0,0,0,33,54.87v.71a6.26,6.26,0,0,0,6.24,6.25H97.12a17,17,0,0,0,7.16,4.65.36.36,0,0,0,.44-.49,10.6,10.6,0,0,1-1.6-4.89A6.26,6.26,0,0,0,106.46,55.58Z"/><rect class="cls-5" x="42.11" y="54.26" width="55.25" height="2.55"/><rect class="cls-10" x="5.28" y="23.31" width="107.99" height="17.54"/><rect class="cls-11" x="5.28" y="23.31" width="17.54" height="17.54"/><rect class="cls-9" x="5.28" y="187.88" width="107.99" height="18.74"/><circle class="cls-12" cx="103.31" cy="197.25" r="5.95"/><rect class="cls-5" x="9.22" y="191.3" width="84.53" height="11.9" rx="5.54"/><path class="cls-5" d="M10.17,29h7.75v1.66H10.17Zm0,2.22h7.75v1.66H10.17Zm0,2.21h7.75v1.66H10.17Z"/><rect class="cls-5" x="26.84" y="28.59" width="33.15" height="2.55"/><rect class="cls-5" x="26.84" y="33.02" width="14.36" height="2.55"/><rect class="cls-13" x="49.16" y="10.65" width="26.44" height="3.35" rx="1.56"/><circle class="cls-13" cx="44.61" cy="12.32" r="1.67"/><circle class="cls-14" cx="25.11" cy="74.64" r="3.81"/><circle class="cls-15" cx="58.56" cy="218.27" r="3.4"/><rect class="cls-15" x="85.77" y="215.09" width="6.36" height="6.36"/><polygon class="cls-15" points="31.35 221.12 26.41 218.27 31.35 215.42 31.35 221.12"/></g></g></g></svg>