<svg width="77" height="77" viewBox="0 0 77 77" fill="none" xmlns="http://www.w3.org/2000/svg">
<circle cx="38.5" cy="38.5" r="38.5" fill="#00005B"/>
<path fill-rule="evenodd" clip-rule="evenodd" d="M38.5 70C55.897 70 70 55.897 70 38.5C70 21.103 55.897 7 38.5 7C21.103 7 7 21.103 7 38.5C7 55.897 21.103 70 38.5 70ZM38.5 77C59.763 77 77 59.763 77 38.5C77 17.237 59.763 0 38.5 0C17.237 0 0 17.237 0 38.5C0 59.763 17.237 77 38.5 77Z" fill="#9999FF"/>
<path d="M25.0243 24.4399H30.0643L39.4603 49.9999H34.3483L31.9723 43.6279H23.0443L20.7043 49.9999H15.5923L25.0243 24.4399ZM31.0723 40.1359L27.5443 29.5879L23.8723 40.1359H31.0723Z" fill="#9999FF"/>
<path d="M49.9813 50.3599C47.9413 50.3599 46.1773 49.9159 44.6893 49.0279C43.2253 48.1399 42.0853 46.9639 41.2693 45.4999C40.4533 44.0119 40.0453 42.4039 40.0453 40.6759C40.0453 38.8999 40.4413 37.2679 41.2333 35.7799C42.0493 34.2679 43.2013 33.0679 44.6893 32.1799C46.1773 31.2679 47.9533 30.8119 50.0173 30.8119C52.0813 30.8119 53.8453 31.2679 55.3093 32.1799C56.7733 33.0679 57.8893 34.2559 58.6573 35.7439C59.4493 37.2079 59.8453 38.7919 59.8453 40.4959C59.8453 41.1199 59.8093 41.6599 59.7373 42.1159H45.1573C45.2773 43.5799 45.8173 44.7319 46.7773 45.5719C47.7613 46.4119 48.8893 46.8319 50.1613 46.8319C51.1213 46.8319 52.0213 46.6039 52.8613 46.1479C53.7253 45.6679 54.3133 45.0439 54.6253 44.2759L58.7653 45.4279C58.0693 46.8679 56.9533 48.0559 55.4173 48.9919C53.8813 49.9039 52.0693 50.3599 49.9813 50.3599ZM45.0493 39.0559H54.9133C54.7693 37.6399 54.2293 36.4999 53.2933 35.6359C52.3813 34.7479 51.2653 34.3039 49.9453 34.3039C48.6493 34.3039 47.5333 34.7479 46.5973 35.6359C45.6853 36.4999 45.1693 37.6399 45.0493 39.0559Z" fill="#9999FF"/>
</svg>
