<svg width="170" height="51" viewBox="0 0 170 51" fill="none" xmlns="http://www.w3.org/2000/svg">
<path d="M18.8562 0.272749C16.2301 0.293265 13.563 0.88823 11.0396 2.12945C2.08431 6.51988 -1.60857 17.3523 2.79211 26.3076C7.1928 35.2628 18.015 38.9455 26.9702 34.555C28.3448 33.878 29.5963 33.0574 30.7042 32.1136L28.1499 26.9025C28.1499 26.8923 28.1499 26.8923 28.1499 26.8923C27.5139 25.5895 27.0318 24.2457 26.7035 22.8917C26.683 22.9224 26.6728 22.943 26.6523 22.9737C26.6112 23.0353 26.5804 23.0968 26.5394 23.1584C26.4984 23.2199 26.4573 23.2815 26.4163 23.343C26.2112 23.6405 25.9957 23.9277 25.7598 24.2047C25.6675 24.3175 25.5649 24.4201 25.4623 24.5227C25.411 24.574 25.3597 24.6253 25.3085 24.6766C25.2572 24.7278 25.2059 24.7791 25.1546 24.8304C24.9392 25.0356 24.7135 25.2202 24.4878 25.4049C24.0159 25.7639 23.503 26.0922 22.9491 26.3589C22.6721 26.4922 22.3952 26.6153 22.108 26.7179C22.0361 26.7487 21.9643 26.7692 21.8925 26.7897C21.6771 26.8615 21.4617 26.9231 21.2463 26.9846C21.1745 27.0051 21.1027 27.0256 21.0309 27.0359C20.8975 27.0667 20.7642 27.0975 20.6308 27.118C20.4051 27.159 20.1692 27.1898 19.9435 27.2205C19.6563 27.2513 19.3588 27.2718 19.0716 27.2718C18.9998 27.2718 18.928 27.2718 18.8562 27.2718C18.6407 27.2718 18.4253 27.2616 18.2099 27.2411C18.0663 27.2308 17.9227 27.2103 17.7791 27.1898C17.6355 27.1693 17.4918 27.1487 17.3585 27.118C17.2867 27.1077 17.2149 27.0872 17.1533 27.0769C16.7328 26.9846 16.3224 26.8718 15.9224 26.7179C15.7172 26.6461 15.5223 26.564 15.3274 26.4717C14.0246 25.887 12.8552 24.9843 11.9525 23.8046C11.9115 23.7431 11.8602 23.6918 11.8192 23.6302C11.5114 23.2097 11.2345 22.7583 10.9985 22.2762C10.9267 22.1326 10.8652 21.9992 10.8036 21.8556C10.7728 21.7838 10.7421 21.712 10.7216 21.6504C10.6908 21.5786 10.6703 21.5068 10.6395 21.435C10.5882 21.2914 10.5369 21.1478 10.4959 21.0042C10.3625 20.5734 10.2599 20.1425 10.1881 19.7117C10.1779 19.6399 10.1676 19.5681 10.1574 19.4963C10.1471 19.4245 10.1369 19.3527 10.1369 19.2808C10.1266 19.209 10.1266 19.1372 10.1163 19.0654C10.1061 18.9218 10.0958 18.7782 10.0958 18.6346C10.0958 18.491 10.0856 18.3474 10.0958 18.2038C10.0958 18.0601 10.1061 17.9165 10.1163 17.7729C10.1369 17.4139 10.1881 17.0549 10.2497 16.7061C10.2599 16.6343 10.2805 16.5625 10.2907 16.5009C10.3215 16.3573 10.3523 16.224 10.3933 16.0803C10.4343 15.947 10.4651 15.8034 10.5164 15.67C10.5574 15.5469 10.5985 15.4341 10.6395 15.3213C10.6498 15.3007 10.6498 15.2905 10.66 15.27C10.6805 15.1982 10.7113 15.1366 10.7318 15.0751C10.7831 14.9417 10.8447 14.8084 10.8959 14.675C10.9267 14.6134 10.9575 14.5416 10.9883 14.4801C11.0806 14.2852 11.1832 14.1005 11.2857 13.9056C11.3165 13.8441 11.3576 13.7826 11.3986 13.721C11.4396 13.6595 11.4704 13.5979 11.5114 13.5364C11.6653 13.2902 11.8294 13.0542 12.0141 12.8286C12.0551 12.767 12.1064 12.7157 12.1474 12.6644C12.1987 12.6131 12.2397 12.5516 12.291 12.5003C12.3321 12.449 12.3731 12.408 12.4141 12.3567C12.4244 12.3464 12.4244 12.3464 12.4346 12.3362C12.4859 12.2849 12.5372 12.2336 12.5783 12.1823C12.6295 12.131 12.6808 12.0797 12.7321 12.0284C12.886 11.8746 13.0501 11.7207 13.2143 11.5771C13.3784 11.4335 13.5528 11.2899 13.7374 11.1668C13.8605 11.0744 13.9836 10.9924 14.1067 10.9103C14.4247 10.7051 14.753 10.5102 15.0915 10.3461C15.1633 10.3153 15.2351 10.2743 15.2966 10.2435C15.3684 10.2128 15.4402 10.182 15.5018 10.1512C15.6454 10.0897 15.7788 10.0384 15.9224 9.97683C16.066 9.92554 16.2096 9.87425 16.3532 9.83322C16.5686 9.76141 16.784 9.71012 16.9995 9.65883C17.1431 9.62806 17.2867 9.59728 17.4303 9.56651C17.5021 9.55625 17.5739 9.54599 17.6457 9.52548C17.7893 9.50496 17.9329 9.48444 18.0766 9.46393C18.2202 9.45367 18.3638 9.43316 18.5074 9.43316C18.651 9.4229 18.7946 9.4229 18.9382 9.4229C19.1536 9.4229 19.3691 9.4229 19.5845 9.44341C19.7999 9.46393 20.0153 9.47419 20.2307 9.50496C20.3025 9.51522 20.3743 9.52548 20.4462 9.53574C20.518 9.54599 20.5898 9.55625 20.6616 9.57677C20.8052 9.60754 20.9385 9.62806 21.0822 9.66909C21.154 9.68961 21.2155 9.69986 21.2873 9.72038C21.4207 9.76141 21.5643 9.79219 21.6976 9.84348C21.831 9.88451 21.9643 9.9358 22.0977 9.97683C22.1695 9.99735 22.231 10.0281 22.3029 10.0486C22.4978 10.1307 22.7029 10.2128 22.8876 10.3051C22.9081 10.3153 22.9389 10.3256 22.9594 10.3461C23.9749 7.46362 25.5341 4.77602 27.5755 2.44745C24.9084 1.00107 21.913 0.252233 18.8562 0.272749Z" fill="white"/>
<path d="M43.2497 36.5656L37.2283 39.5301L42.6342 50.537L48.6557 47.5827L43.2497 36.5656Z" fill="white"/>
<path d="M35.8537 39.4788L35.5152 39.366L29.145 26.4101C24.693 17.342 28.4474 6.34543 37.5155 1.8832C41.9059 -0.270986 46.8811 -0.588984 51.5074 0.99075C56.144 2.57048 59.878 5.86331 62.0321 10.2537C64.1863 14.6442 64.5043 19.6193 62.9246 24.2457C61.3449 28.8823 58.052 32.6162 53.6616 34.7704C51.1176 36.0219 48.4095 36.6476 45.5988 36.6476H45.4347L39.9979 25.5895L40.3775 25.2715C43.0035 27.2307 46.4605 27.559 49.4045 26.1126C51.4869 25.0868 53.0461 23.3224 53.795 21.1272C54.5438 18.932 54.3899 16.5829 53.3744 14.5006C52.3486 12.4182 50.5842 10.859 48.389 10.1101C46.1938 9.36129 43.8447 9.51516 41.7623 10.5307C39.6799 11.5565 38.1207 13.3209 37.3719 15.5161C36.623 17.7113 36.7769 20.0604 37.7925 22.1428L37.8027 22.153L44.1627 35.0986L44.0498 35.4372L35.8537 39.4788ZM29.6066 26.1844L35.8537 38.9044L43.5882 35.0986L37.3309 22.3582C36.2538 20.163 36.0896 17.6703 36.8795 15.3417C37.6694 13.0234 39.3209 11.1462 41.5264 10.0588C43.7318 8.97148 46.2245 8.81761 48.5429 9.60748C50.8612 10.3973 52.7384 12.0489 53.8257 14.2544C54.9028 16.4598 55.067 18.9525 54.2771 21.2708C53.4872 23.5891 51.8357 25.4664 49.6302 26.5537C46.8093 27.9385 43.5369 27.7949 40.8801 26.2049L45.7527 36.1142C48.43 36.0937 51.015 35.4782 53.4359 34.2883C57.7033 32.1956 60.9038 28.554 62.4425 24.0508C63.9812 19.5475 63.6734 14.716 61.5705 10.4486C59.4779 6.1813 55.8363 2.9808 51.333 1.4421C46.8298 -0.0965995 41.9982 0.211141 37.7309 2.31403L37.6181 2.08836L37.7309 2.31403C28.9193 6.64291 25.2674 17.3318 29.5963 26.1537L29.3706 26.2767L29.6066 26.1844Z" fill="white"/>
<path d="M114.092 2.85767C113.712 2.85767 113.425 2.96025 113.22 3.17566C113.015 3.39108 112.922 3.65779 112.922 3.97579C112.922 4.29379 113.025 4.55024 113.22 4.76566C113.425 4.97082 113.712 5.0734 114.092 5.0734C114.471 5.0734 114.758 4.97082 114.964 4.76566C115.169 4.55024 115.271 4.29379 115.271 3.97579C115.271 3.65779 115.169 3.39108 114.964 3.17566C114.758 2.96025 114.461 2.85767 114.092 2.85767ZM128.36 2.85767C127.981 2.85767 127.694 2.96025 127.489 3.17566C127.283 3.39108 127.191 3.65779 127.191 3.97579C127.191 4.29379 127.294 4.55024 127.489 4.76566C127.694 4.97082 127.981 5.0734 128.36 5.0734C128.74 5.0734 129.027 4.97082 129.232 4.76566C129.438 4.55024 129.54 4.29379 129.54 3.97579C129.54 3.65779 129.438 3.39108 129.232 3.17566C129.027 2.96025 128.73 2.85767 128.36 2.85767ZM81.6147 3.00128C80.3017 3.00128 79.2349 3.32953 78.4142 3.97579C77.5936 4.6323 77.1833 5.45294 77.1833 6.45823C77.1833 7.60713 77.7475 8.5406 78.8861 9.25867C79.4811 9.62795 80.2812 9.96647 81.2865 10.2742C82.2918 10.5819 82.9893 10.8794 83.3688 11.1769C83.7587 11.4744 83.9536 11.895 83.9536 12.4489C83.9536 12.9516 83.7587 13.3619 83.3791 13.6696C82.9996 13.9774 82.4354 14.121 81.6763 14.121C80.8043 14.121 80.1273 13.9261 79.6657 13.5363C79.2041 13.1465 78.9579 12.6028 78.9579 11.8847H76.7832C76.7832 12.6643 76.9884 13.3516 77.4089 13.9466C77.8295 14.5313 78.4245 15.0032 79.1733 15.3314C79.9324 15.6597 80.7633 15.8238 81.666 15.8238C83.0303 15.8238 84.1177 15.5161 84.9075 14.9108C85.7077 14.2954 86.1077 13.4645 86.1077 12.4284C86.1077 11.7924 85.9744 11.2282 85.6974 10.7563C85.4205 10.2742 84.9896 9.85363 84.4049 9.48434C83.8202 9.11505 83.0406 8.7868 82.0661 8.49957C81.0916 8.21235 80.394 7.91487 79.9734 7.60713C79.5529 7.29939 79.3375 6.91984 79.3375 6.45823C79.3375 5.91455 79.5324 5.49398 79.9222 5.18623C80.312 4.87849 80.8659 4.73488 81.5737 4.73488C82.3328 4.73488 82.9175 4.91953 83.3278 5.28882C83.7381 5.6581 83.9433 6.16075 83.9433 6.81726H86.1077C86.1077 6.0992 85.9128 5.44268 85.523 4.85798C85.1332 4.26301 84.5998 3.8014 83.9228 3.4834C83.2458 3.16541 82.4764 3.00128 81.6147 3.00128ZM141.255 4.1194V6.37616H139.726V7.91487H141.255V13.167C141.255 14.9313 142.055 15.8135 143.655 15.8135C144.096 15.8135 144.548 15.752 145.03 15.6186V14.0184C144.784 14.0799 144.537 14.1004 144.301 14.1004C143.942 14.1004 143.686 14.0184 143.542 13.8645C143.409 13.7004 143.337 13.4439 143.337 13.0952V7.91487H144.978V6.37616H143.337V4.1194H141.255ZM102.305 6.21204C101.177 6.21204 100.284 6.59158 99.6278 7.35068L99.5663 6.38642H97.607V15.6597H99.6894V8.94067C100.038 8.26364 100.633 7.92512 101.464 7.92512C102.551 7.92512 103.105 8.4688 103.136 9.56641V15.6597H105.218L105.208 9.2997C105.331 8.88938 105.536 8.56112 105.834 8.30467C106.142 8.04822 106.521 7.91487 107.003 7.91487C107.598 7.91487 108.019 8.04822 108.286 8.32519C108.542 8.60215 108.675 9.03299 108.675 9.6177V15.6597H110.758V9.56641C110.747 8.45854 110.491 7.62764 109.988 7.06345C109.496 6.49926 108.727 6.21204 107.711 6.21204C106.49 6.21204 105.536 6.6839 104.859 7.6379C104.398 6.6839 103.546 6.21204 102.305 6.21204ZM122.093 6.21204C120.975 6.21204 120.082 6.62236 119.395 7.45326L119.333 6.38642H117.374V15.6597H119.457V9.05351C119.867 8.29441 120.493 7.91487 121.334 7.91487C121.908 7.91487 122.329 8.05848 122.575 8.3457C122.831 8.62267 122.965 9.06376 122.965 9.64847V15.6597H125.047V9.52537C125.016 7.30964 124.032 6.21204 122.093 6.21204ZM135.141 6.21204C134.105 6.21204 133.243 6.47874 132.566 7.02242C131.889 7.56609 131.551 8.23286 131.551 9.03299C131.551 9.98698 132.074 10.7153 133.11 11.2179C133.582 11.4436 134.177 11.6385 134.885 11.7821C135.592 11.9257 136.095 12.1001 136.403 12.295C136.711 12.4899 136.864 12.7772 136.864 13.1465C136.864 13.485 136.721 13.7619 136.434 13.9671C136.146 14.1723 135.726 14.2748 135.182 14.2748C134.618 14.2748 134.167 14.1415 133.818 13.885C133.479 13.6183 133.284 13.2388 133.264 12.7464H131.243C131.243 13.3003 131.407 13.8132 131.735 14.2954C132.064 14.7775 132.525 15.157 133.12 15.4237C133.715 15.6904 134.392 15.8341 135.151 15.8341C136.269 15.8341 137.182 15.5776 137.87 15.0647C138.557 14.5415 138.906 13.8645 138.906 13.0336C138.906 12.5412 138.793 12.1104 138.567 11.7616C138.342 11.4128 138.003 11.1154 137.531 10.8692C137.07 10.6127 136.423 10.4076 135.613 10.2229C134.792 10.0383 134.249 9.86389 133.982 9.67924C133.715 9.50486 133.582 9.24841 133.582 8.93041C133.582 8.57138 133.725 8.29441 134.013 8.07899C134.3 7.86358 134.679 7.761 135.141 7.761C135.633 7.761 136.023 7.89435 136.321 8.16106C136.618 8.42777 136.762 8.75602 136.762 9.15609H138.844C138.844 8.28415 138.506 7.56609 137.818 7.02242C137.141 6.47874 136.249 6.21204 135.141 6.21204ZM150.682 6.21204C149.789 6.21204 149.092 6.6121 148.589 7.42248L148.538 6.38642H146.548V15.6597H148.63V9.30996C148.959 8.58164 149.605 8.21235 150.559 8.21235C150.846 8.21235 151.133 8.23286 151.41 8.28415L151.42 6.32487C151.226 6.24281 150.979 6.21204 150.682 6.21204ZM156.334 6.21204C155.493 6.21204 154.744 6.40694 154.088 6.807C153.431 7.19681 152.928 7.761 152.569 8.48931C152.21 9.21763 152.026 10.028 152.026 10.941V11.0436C152.026 12.5002 152.416 13.6594 153.205 14.5313C153.995 15.4032 155.042 15.8341 156.355 15.8341C157.216 15.8341 157.965 15.6391 158.622 15.2391C159.278 14.8493 159.781 14.2851 160.13 13.567C160.489 12.849 160.663 12.0283 160.663 11.1154L160.653 10.623C160.591 9.28944 160.171 8.22261 159.381 7.41222C158.601 6.6121 157.586 6.21204 156.334 6.21204ZM165.905 6.21204C164.869 6.21204 164.007 6.47874 163.33 7.02242C162.653 7.55584 162.315 8.23286 162.315 9.03299C162.315 9.98698 162.838 10.7153 163.874 11.2179C164.346 11.4436 164.941 11.6385 165.648 11.7821C166.356 11.9257 166.859 12.1001 167.167 12.295C167.474 12.4899 167.628 12.7772 167.628 13.1465C167.628 13.485 167.485 13.7619 167.197 13.9671C166.91 14.1723 166.49 14.2748 165.946 14.2748C165.382 14.2748 164.93 14.1415 164.582 13.885C164.243 13.6183 164.048 13.2388 164.028 12.7464H162.007C162.007 13.3003 162.171 13.8132 162.499 14.2954C162.827 14.7775 163.289 15.157 163.884 15.4237C164.479 15.6904 165.156 15.8341 165.915 15.8341C167.033 15.8341 167.946 15.5776 168.633 15.0647C169.321 14.5415 169.67 13.8645 169.67 13.0336C169.67 12.5412 169.557 12.1104 169.331 11.7616C169.105 11.4128 168.767 11.1154 168.295 10.8692C167.833 10.6127 167.187 10.4076 166.377 10.2229C165.556 10.0383 165.012 9.86389 164.746 9.67924C164.479 9.50486 164.346 9.24841 164.346 8.93041C164.346 8.57138 164.489 8.29441 164.776 8.07899C165.064 7.86358 165.443 7.761 165.905 7.761C166.397 7.761 166.787 7.89435 167.084 8.16106C167.382 8.42777 167.526 8.75602 167.526 9.15609H169.608C169.608 8.28415 169.269 7.56609 168.582 7.02242C167.915 6.47874 167.013 6.21204 165.905 6.21204ZM87.7901 6.37616V12.3874C87.7901 13.5055 88.0465 14.3569 88.5594 14.9416C89.0826 15.5263 89.8417 15.8238 90.8469 15.8238C91.9753 15.8238 92.837 15.4648 93.4525 14.7467L93.5038 15.6597H95.463V6.37616H93.3807V13.0439C93.0216 13.7722 92.3446 14.1312 91.3291 14.1312C90.3546 14.1312 89.8622 13.5465 89.8622 12.3668V6.37616H87.7901ZM113.045 6.37616V15.6597H115.128V6.37616H113.045ZM127.314 6.37616V15.6597H129.397V6.37616H127.314ZM156.334 7.88409C157.021 7.88409 157.575 8.16106 157.975 8.70473C158.386 9.25867 158.581 9.99724 158.581 10.9307C158.581 11.9873 158.386 12.7874 157.986 13.3414C157.596 13.8953 157.052 14.162 156.344 14.162C155.637 14.162 155.093 13.8953 154.693 13.3516C154.303 12.8079 154.098 12.0591 154.098 11.1051C154.098 10.028 154.303 9.22789 154.703 8.68422C155.113 8.1508 155.657 7.88409 156.334 7.88409Z" fill="white"/>
<path d="M165.936 16.0905C165.146 16.0905 164.417 15.9469 163.792 15.6596C163.156 15.3622 162.653 14.9518 162.294 14.4389C161.935 13.9158 161.75 13.3413 161.75 12.7361V12.4797H164.274L164.284 12.7259C164.305 13.1464 164.458 13.4542 164.746 13.6799C165.043 13.9055 165.443 14.0184 165.956 14.0184C166.448 14.0184 166.818 13.926 167.054 13.7619C167.269 13.5978 167.372 13.4029 167.372 13.1464C167.372 12.8592 167.259 12.6643 167.033 12.5104C166.756 12.3361 166.274 12.1719 165.597 12.0283C164.869 11.8744 164.253 11.6795 163.761 11.4436C162.632 10.8999 162.058 10.0793 162.058 9.02272C162.058 8.14053 162.427 7.40195 163.166 6.81724C163.884 6.24279 164.807 5.95557 165.895 5.95557C167.054 5.95557 168.018 6.25305 168.736 6.83776C169.485 7.43272 169.864 8.22259 169.864 9.17659V9.43304H167.269V9.17659C167.269 8.84833 167.156 8.59188 166.91 8.37646C166.654 8.15078 166.325 8.03795 165.895 8.03795C165.494 8.03795 165.166 8.13027 164.92 8.30466C164.705 8.46878 164.602 8.67394 164.602 8.95091C164.602 9.18684 164.694 9.35097 164.889 9.48433C165.053 9.59716 165.453 9.77155 166.438 9.98697C167.269 10.1716 167.946 10.3973 168.428 10.6537C168.931 10.9204 169.31 11.2487 169.557 11.6283C169.813 12.0181 169.936 12.4899 169.936 13.0336C169.936 13.9466 169.557 14.7057 168.798 15.2698C168.069 15.8135 167.105 16.0905 165.936 16.0905ZM162.284 12.9926C162.325 13.4029 162.468 13.7824 162.725 14.1415C163.033 14.5826 163.463 14.9313 164.007 15.1878C164.561 15.4442 165.217 15.5776 165.936 15.5776C166.992 15.5776 167.854 15.3314 168.5 14.8595C169.126 14.3877 169.434 13.7927 169.434 13.0336C169.434 12.5925 169.331 12.213 169.136 11.9052C168.941 11.5975 168.623 11.3205 168.192 11.0948C167.751 10.8589 167.125 10.6435 166.336 10.4794C165.474 10.2845 164.92 10.0998 164.623 9.9049C164.284 9.67923 164.099 9.35097 164.099 8.94065C164.099 8.49956 164.274 8.15078 164.633 7.88408C164.971 7.63788 165.402 7.51479 165.905 7.51479C166.459 7.51479 166.92 7.66866 167.259 7.98666C167.546 8.24311 167.72 8.55085 167.772 8.92014H169.351C169.29 8.24311 168.992 7.68917 168.428 7.23782C167.792 6.72492 166.951 6.46847 165.905 6.46847C164.93 6.46847 164.12 6.72492 163.494 7.21731C162.879 7.70969 162.581 8.2944 162.581 9.02272C162.581 9.87413 163.043 10.5204 163.997 10.982C164.448 11.1974 165.023 11.3821 165.71 11.5257C166.459 11.6795 166.982 11.8642 167.31 12.0796C167.69 12.3155 167.895 12.6848 167.895 13.1464C167.895 13.567 167.72 13.9158 167.361 14.1722C167.033 14.4082 166.561 14.5313 165.956 14.5313C165.33 14.5313 164.828 14.3774 164.438 14.0799C164.089 13.8132 163.884 13.4439 163.812 12.9926H162.284ZM156.355 16.0905C154.98 16.0905 153.852 15.6186 153.021 14.7057C152.2 13.7824 151.78 12.5515 151.78 11.0435V10.941C151.78 9.99723 151.974 9.13555 152.344 8.37646C152.723 7.60711 153.267 7.00189 153.964 6.59157C154.652 6.17099 155.452 5.96583 156.344 5.96583C157.668 5.96583 158.745 6.39666 159.576 7.25834C160.396 8.10975 160.848 9.23813 160.919 10.6332L160.93 11.1256C160.93 12.0796 160.745 12.9413 160.376 13.7004C160.006 14.4595 159.463 15.0647 158.765 15.475C158.068 15.8751 157.257 16.0905 156.355 16.0905ZM156.334 6.46847C155.544 6.46847 154.826 6.65312 154.221 7.0224C153.616 7.38143 153.134 7.91485 152.805 8.60214C152.467 9.28942 152.292 10.0793 152.292 10.941V11.0435C152.292 12.4284 152.662 13.5362 153.4 14.3671C154.149 15.1878 155.113 15.5878 156.355 15.5878C157.165 15.5878 157.873 15.4032 158.488 15.0339C159.104 14.6646 159.576 14.1415 159.904 13.4644C160.242 12.7771 160.407 11.9975 160.407 11.1256L160.396 10.6435C160.335 9.392 159.935 8.3662 159.196 7.60711C158.468 6.83776 157.524 6.46847 156.334 6.46847ZM143.655 16.0905C141.922 16.0905 140.998 15.0852 140.998 13.1875V8.19182H139.47V6.1197H140.998V3.86294H143.594V6.1197H145.235V8.1713H143.594V13.0951C143.594 13.3824 143.645 13.5875 143.737 13.7004C143.819 13.7927 144.014 13.844 144.301 13.844C144.517 13.844 144.743 13.8132 144.968 13.7619L145.286 13.6901V15.8238L145.102 15.8751C144.599 16.0187 144.117 16.0905 143.655 16.0905ZM139.983 7.66866H141.511V13.1772C141.511 14.8082 142.188 15.5673 143.655 15.5673C144.014 15.5673 144.383 15.516 144.773 15.4237V14.3261C144.619 14.3466 144.455 14.3569 144.301 14.3569C143.86 14.3569 143.553 14.2543 143.358 14.0389C143.173 13.8235 143.081 13.5157 143.081 13.0951V7.6584H144.722V6.6326H143.081V4.37584H141.511V6.6326H139.983V7.66866ZM135.162 16.0905C134.372 16.0905 133.643 15.9469 133.018 15.6596C132.382 15.3622 131.879 14.9518 131.52 14.4389C131.161 13.9158 130.976 13.3413 130.976 12.7361V12.4797H133.5L133.51 12.7259C133.53 13.1464 133.684 13.4542 133.972 13.6799C134.269 13.9055 134.669 14.0184 135.182 14.0184C135.674 14.0184 136.044 13.926 136.28 13.7619C136.495 13.5978 136.598 13.4029 136.598 13.1464C136.598 12.8592 136.485 12.6643 136.259 12.5104C135.982 12.3361 135.5 12.1719 134.823 12.0283C134.095 11.8744 133.479 11.6795 132.987 11.4436C131.858 10.8999 131.284 10.0793 131.284 9.02272C131.284 8.14053 131.653 7.40195 132.392 6.81724C133.11 6.24279 134.033 5.95557 135.12 5.95557C136.28 5.95557 137.244 6.25305 137.962 6.83776C138.711 7.43272 139.09 8.22259 139.09 9.17659V9.43304H136.495V9.17659C136.495 8.84833 136.382 8.59188 136.136 8.37646C135.88 8.15078 135.551 8.03795 135.12 8.03795C134.72 8.03795 134.392 8.13027 134.146 8.30466C133.931 8.46878 133.828 8.67394 133.828 8.95091C133.828 9.18684 133.92 9.35097 134.115 9.48433C134.279 9.59716 134.679 9.77155 135.664 9.98697C136.495 10.1716 137.172 10.3973 137.654 10.6537C138.157 10.9204 138.536 11.2487 138.783 11.6283C139.039 12.0181 139.162 12.4899 139.162 13.0336C139.162 13.9466 138.783 14.7057 138.024 15.2698C137.305 15.8135 136.341 16.0905 135.162 16.0905ZM131.52 12.9926C131.561 13.4029 131.705 13.7824 131.961 14.1415C132.269 14.5826 132.7 14.9313 133.243 15.1878C133.797 15.4442 134.454 15.5776 135.172 15.5776C136.228 15.5776 137.09 15.3314 137.736 14.8595C138.362 14.3877 138.67 13.7927 138.67 13.0336C138.67 12.5925 138.567 12.213 138.372 11.9052C138.177 11.5975 137.859 11.3205 137.429 11.0948C136.987 10.8589 136.362 10.6435 135.572 10.4794C134.71 10.2845 134.156 10.0998 133.859 9.9049C133.52 9.67923 133.336 9.35097 133.336 8.94065C133.336 8.49956 133.51 8.15078 133.869 7.88408C134.208 7.63788 134.638 7.51479 135.141 7.51479C135.695 7.51479 136.157 7.66866 136.495 7.98666C136.782 8.24311 136.957 8.55085 137.008 8.92014H138.588C138.526 8.24311 138.229 7.68917 137.664 7.23782C137.028 6.72492 136.187 6.46847 135.141 6.46847C134.167 6.46847 133.356 6.72492 132.73 7.21731C132.115 7.70969 131.817 8.2944 131.817 9.02272C131.817 9.87413 132.279 10.5204 133.233 10.982C133.684 11.1974 134.259 11.3821 134.946 11.5257C135.695 11.6795 136.218 11.8642 136.546 12.0796C136.926 12.3155 137.131 12.6848 137.131 13.1464C137.131 13.567 136.957 13.9158 136.598 14.1722C136.269 14.4082 135.798 14.5313 135.192 14.5313C134.567 14.5313 134.064 14.3774 133.674 14.0799C133.325 13.8132 133.12 13.4439 133.048 12.9926H131.52ZM90.8469 16.0905C89.7698 16.0905 88.9287 15.7622 88.3645 15.116C87.8105 14.48 87.5336 13.567 87.5336 12.3873V6.1197H90.1289V12.3566C90.1289 13.7106 90.8161 13.8645 91.3393 13.8645C92.2317 13.8645 92.8165 13.567 93.1344 12.9721V6.1197H95.7297V15.9161H93.2678L93.237 15.3314C92.6113 15.834 91.8112 16.0905 90.8469 16.0905ZM88.0465 6.6326V12.3873C88.0465 13.4337 88.2824 14.2338 88.7543 14.7775C89.2261 15.3109 89.9134 15.5776 90.8469 15.5776C91.9035 15.5776 92.6934 15.2493 93.2575 14.5826L93.6679 14.0902L93.7397 15.3929H95.2066V6.6326H93.6474V13.0951L93.6166 13.1464C93.2165 13.9671 92.4472 14.3774 91.3393 14.3774C90.5494 14.3774 89.616 14.0286 89.616 12.3566V6.6326H88.0465ZM81.6865 16.0905C80.753 16.0905 79.8811 15.9161 79.0912 15.5673C78.2911 15.2083 77.6654 14.7159 77.214 14.0902C76.7627 13.4542 76.537 12.7156 76.537 11.8847V11.6283H79.2246V11.8847C79.2246 12.5207 79.4195 12.9926 79.8401 13.3311C80.2606 13.6799 80.8864 13.8542 81.6865 13.8542C82.3738 13.8542 82.897 13.7209 83.2252 13.4542C83.5432 13.1977 83.7073 12.8592 83.7073 12.4386C83.7073 11.9668 83.5535 11.618 83.2252 11.3718C82.8662 11.0948 82.1994 10.8076 81.2249 10.5101C80.1991 10.2024 79.3785 9.85361 78.763 9.47407C77.5423 8.71497 76.9268 7.69943 76.9268 6.46847C76.9268 5.38112 77.3679 4.47842 78.2501 3.78087C79.1117 3.09358 80.2504 2.74481 81.6044 2.74481C82.5071 2.74481 83.3278 2.9192 84.0356 3.24746C84.7537 3.58597 85.3281 4.07835 85.7487 4.71435C86.159 5.34009 86.3744 6.04789 86.3744 6.81724V7.07369H83.6971V6.81724C83.6971 6.23254 83.5227 5.8017 83.1637 5.4837C82.8046 5.15545 82.2712 4.99132 81.5839 4.99132C80.9377 4.99132 80.435 5.12467 80.0863 5.39138C79.758 5.64783 79.6041 5.9966 79.6041 6.45821C79.6041 6.8275 79.7785 7.13524 80.1375 7.40195C80.5376 7.68917 81.2146 7.9764 82.1481 8.25337C83.1329 8.54059 83.9433 8.88936 84.5485 9.26891C85.1742 9.65871 85.6358 10.1101 85.9333 10.623C86.2308 11.1359 86.3744 11.7411 86.3744 12.4181C86.3744 13.5362 85.9333 14.4389 85.0717 15.1057C84.251 15.7622 83.1021 16.0905 81.6865 16.0905ZM77.0704 12.1412C77.1114 12.7669 77.3063 13.3208 77.6449 13.7927C78.0347 14.3364 78.5988 14.7775 79.3067 15.0955C80.0247 15.4135 80.8351 15.5673 81.6968 15.5673C82.9995 15.5673 84.0356 15.2801 84.7844 14.7057C85.523 14.1312 85.882 13.3824 85.882 12.4181C85.882 11.8232 85.7589 11.3103 85.5025 10.8794C85.246 10.4383 84.846 10.0383 84.292 9.69974C83.7279 9.34071 82.9585 9.02272 82.0148 8.74575C81.0095 8.43801 80.2914 8.14053 79.8503 7.81227C79.3579 7.45324 79.1117 6.99163 79.1117 6.45821C79.1117 5.83247 79.3374 5.34009 79.7888 4.99132C80.2299 4.6528 80.8351 4.47842 81.6044 4.47842C82.4251 4.47842 83.0713 4.68358 83.5227 5.10416C83.933 5.46319 84.1587 5.95557 84.21 6.56079H85.8615C85.8205 5.9966 85.6461 5.46319 85.3281 4.99132C84.9691 4.43738 84.4664 4.00655 83.8304 3.70907C83.1842 3.41158 82.4456 3.25771 81.6147 3.25771C80.3735 3.25771 79.3477 3.56545 78.5783 4.18093C77.8192 4.78616 77.4499 5.53499 77.4499 6.46847C77.4499 7.5353 77.9731 8.37646 79.0399 9.04323C79.6144 9.40226 80.394 9.73052 81.3788 10.028C82.4251 10.346 83.1329 10.6537 83.5432 10.9717C83.9946 11.3205 84.2305 11.8129 84.2305 12.4386C84.2305 13.0233 84.0048 13.4952 83.5637 13.8542C83.1431 14.1928 82.5174 14.3671 81.707 14.3671C80.7735 14.3671 80.0452 14.1517 79.5323 13.7209C79.0605 13.3311 78.804 12.7977 78.7425 12.1309H77.0704V12.1412ZM148.897 15.9161H146.302V6.1197H148.794L148.825 6.71466C149.328 6.20176 149.954 5.94531 150.692 5.94531C151.02 5.94531 151.308 5.9966 151.523 6.08892L151.687 6.15047L151.677 8.58162L151.379 8.53033C151.123 8.4893 150.846 8.46878 150.569 8.46878C149.738 8.46878 149.194 8.76626 148.897 9.37149V15.9161ZM146.815 15.4032H148.384V9.25865L148.405 9.20736C148.784 8.37646 149.512 7.95588 150.569 7.95588C150.774 7.95588 150.969 7.96614 151.164 7.98666L151.174 6.5095C151.041 6.47873 150.877 6.45821 150.692 6.45821C149.892 6.45821 149.277 6.81724 148.815 7.54556L148.384 8.24311L148.302 6.6326H146.815V15.4032ZM129.653 15.9161H127.058V6.1197H129.653V15.9161ZM127.571 15.4032H129.14V6.6326H127.571V15.4032ZM125.304 15.9161H122.708V9.64845C122.708 9.1253 122.606 8.74575 122.39 8.52007C122.185 8.2944 121.836 8.1713 121.334 8.1713C120.605 8.1713 120.082 8.47904 119.713 9.1253V15.9161H117.118V6.1197H119.58L119.621 6.84802C120.298 6.25305 121.129 5.94531 122.103 5.94531C123.539 5.94531 125.263 6.56079 125.314 9.5151V15.9161H125.304ZM123.221 15.4032H124.791V9.52536C124.76 7.4635 123.878 6.45821 122.093 6.45821C121.047 6.45821 120.226 6.83776 119.59 7.60711L119.169 8.10975L119.087 6.62234H117.62V15.3929H119.19V8.99194L119.221 8.93039C119.682 8.08924 120.39 7.6584 121.323 7.6584C121.98 7.6584 122.462 7.83279 122.76 8.1713C123.057 8.49956 123.211 8.99194 123.211 9.64845V15.4032H123.221ZM115.384 15.9161H112.789V6.1197H115.384V15.9161ZM113.302 15.4032H114.871V6.6326H113.302V15.4032ZM111.004 15.9161H108.409V9.61768C108.409 9.09452 108.306 8.72523 108.091 8.49956C107.885 8.28414 107.516 8.1713 107.003 8.1713C106.583 8.1713 106.265 8.27388 105.998 8.49956C105.742 8.71497 105.567 8.99194 105.465 9.34071L105.475 15.9264H102.88V9.56639C102.859 8.62265 102.408 8.18156 101.464 8.18156C100.746 8.18156 100.254 8.44827 99.9458 9.01246V15.9264H97.3505V6.1197H99.8124L99.8534 6.76595C100.5 6.22228 101.331 5.94531 102.305 5.94531C103.485 5.94531 104.357 6.35563 104.89 7.16602C105.598 6.35563 106.542 5.94531 107.701 5.94531C108.798 5.94531 109.629 6.26331 110.173 6.87879C110.717 7.48401 110.994 8.38672 111.004 9.54587V15.9161ZM108.922 15.4032H110.491V9.56639C110.481 8.53033 110.245 7.75072 109.783 7.23782C109.342 6.73518 108.634 6.47873 107.691 6.47873C106.542 6.47873 105.68 6.90957 105.054 7.79175L104.798 8.14053L104.613 7.75072C104.203 6.88905 103.444 6.46847 102.295 6.46847C101.228 6.46847 100.418 6.81724 99.8124 7.51479L99.4021 7.99691L99.32 6.6326H97.8531V15.4032H99.4226V8.8791L99.4534 8.82781C99.8432 8.05846 100.52 7.66866 101.454 7.66866C102.685 7.66866 103.351 8.32517 103.382 9.55613V15.4135H104.952L104.941 9.26891L104.952 9.23813C105.085 8.77652 105.321 8.40724 105.659 8.12001C106.008 7.82253 106.46 7.66866 106.993 7.66866C107.66 7.66866 108.152 7.83279 108.46 8.16104C108.757 8.47904 108.911 8.98168 108.911 9.62794V15.4032H108.922ZM156.355 14.4184C155.565 14.4184 154.949 14.1107 154.498 13.5055C154.067 12.9208 153.852 12.1104 153.852 11.1051C153.852 9.97671 154.067 9.11504 154.498 8.53033C154.949 7.92511 155.565 7.61737 156.324 7.61737C157.103 7.61737 157.719 7.92511 158.17 8.55085C158.611 9.14581 158.827 9.94594 158.827 10.9307C158.827 12.0386 158.611 12.9002 158.191 13.4952C157.76 14.1107 157.144 14.4184 156.355 14.4184ZM156.334 8.14053C155.739 8.14053 155.267 8.37646 154.918 8.84833C154.549 9.34071 154.365 10.0998 154.365 11.1153C154.365 12.0078 154.549 12.7156 154.908 13.208C155.257 13.6799 155.729 13.9055 156.344 13.9055C156.96 13.9055 157.432 13.6696 157.77 13.1875C158.129 12.6848 158.314 11.9257 158.314 10.9307C158.314 10.0588 158.129 9.35097 157.76 8.85859C157.411 8.3662 156.95 8.14053 156.334 8.14053ZM128.36 5.31957C127.919 5.31957 127.56 5.18622 127.304 4.94003C127.058 4.67332 126.924 4.35532 126.924 3.96552C126.924 3.57571 127.047 3.24746 127.294 2.99101C127.55 2.7243 127.909 2.59094 128.35 2.59094C128.791 2.59094 129.15 2.7243 129.407 2.99101C129.663 3.24746 129.786 3.57571 129.786 3.96552C129.786 4.34506 129.653 4.67332 129.407 4.92977C129.161 5.19648 128.802 5.31957 128.36 5.31957ZM128.36 3.1141C128.053 3.1141 127.827 3.19617 127.673 3.35004C127.519 3.51416 127.448 3.71932 127.448 3.96552C127.448 4.21171 127.519 4.41687 127.673 4.581C127.827 4.73487 128.053 4.80667 128.36 4.80667C128.668 4.80667 128.894 4.73487 129.058 4.57074C129.212 4.40661 129.294 4.21171 129.294 3.96552C129.294 3.70907 129.212 3.51416 129.058 3.35004C128.894 3.18591 128.668 3.1141 128.36 3.1141ZM114.092 5.31957C113.65 5.31957 113.291 5.18622 113.035 4.94003C112.789 4.67332 112.655 4.35532 112.655 3.96552C112.655 3.57571 112.779 3.24746 113.025 2.99101C113.281 2.7243 113.64 2.59094 114.081 2.59094C114.533 2.59094 114.881 2.7243 115.138 2.99101C115.394 3.24746 115.517 3.57571 115.517 3.96552C115.517 4.34506 115.384 4.67332 115.138 4.92977C114.892 5.19648 114.533 5.31957 114.092 5.31957ZM114.092 3.1141C113.784 3.1141 113.558 3.19617 113.404 3.35004C113.25 3.51416 113.179 3.71932 113.179 3.96552C113.179 4.21171 113.25 4.41687 113.404 4.581C113.558 4.73487 113.784 4.80667 114.092 4.80667C114.399 4.80667 114.625 4.73487 114.789 4.57074C114.943 4.40661 115.025 4.21171 115.025 3.96552C115.025 3.70907 114.943 3.51416 114.789 3.35004C114.625 3.18591 114.399 3.1141 114.092 3.1141Z" fill="white"/>
<path d="M69.6333 0.682983H68.4023V36.0834H69.6333V0.682983Z" fill="white"/>
<path d="M153.298 34.1755C152.262 34.1755 151.328 33.9293 150.528 33.4369C149.728 32.9342 149.112 32.2264 148.682 31.3135C148.261 30.4108 148.035 29.3645 148.015 28.1848V27.0154C148.015 25.8049 148.23 24.7176 148.661 23.7944C149.102 22.8506 149.738 22.1223 150.549 21.6094C151.369 21.0965 152.323 20.8401 153.39 20.8401C154.826 20.8401 156.006 21.2401 156.888 22.03C157.77 22.8199 158.293 23.938 158.437 25.3638L158.468 25.6511H155.79L155.76 25.4254C155.667 24.5945 155.421 23.9995 155.052 23.6507C154.683 23.302 154.118 23.1173 153.38 23.1173C152.518 23.1173 151.872 23.4251 151.41 24.0508C150.938 24.6868 150.702 25.6613 150.692 26.9231V28.0309C150.692 29.3234 150.918 30.3082 151.369 30.975C151.81 31.611 152.436 31.929 153.287 31.929C154.067 31.929 154.662 31.7546 155.042 31.4161C155.421 31.0776 155.667 30.4826 155.77 29.6619L155.801 29.4363H158.468L158.437 29.7132C158.304 31.1083 157.78 32.2162 156.878 33.0061C155.985 33.7754 154.775 34.1755 153.298 34.1755ZM153.4 21.3427C152.426 21.3427 151.564 21.5786 150.826 22.03C150.097 22.4813 149.523 23.1481 149.133 23.9995C148.733 24.8612 148.528 25.8665 148.528 27.0051V28.1745C148.548 29.2824 148.753 30.2569 149.143 31.0878C149.533 31.9084 150.087 32.5444 150.795 32.9958C151.513 33.4369 152.354 33.6626 153.287 33.6626C154.641 33.6626 155.739 33.3035 156.539 32.606C157.278 31.9597 157.739 31.057 157.893 29.9389H156.242C156.098 30.7801 155.811 31.3955 155.38 31.7854C154.908 32.2059 154.2 32.4213 153.287 32.4213C152.272 32.4213 151.482 32.0213 150.949 31.2417C150.436 30.4928 150.179 29.4055 150.179 28.0104V26.9025C150.19 25.5177 150.466 24.4509 151 23.7226C151.554 22.9635 152.364 22.5839 153.38 22.5839C154.252 22.5839 154.939 22.8096 155.401 23.2507C155.831 23.6507 156.108 24.2765 156.242 25.1176H157.893C157.729 23.9585 157.278 23.0455 156.549 22.389C155.77 21.7017 154.703 21.3427 153.4 21.3427ZM138.506 34.1755C137.716 34.1755 136.987 34.0319 136.362 33.7446C135.726 33.4471 135.223 33.0368 134.864 32.5239C134.505 32.0008 134.32 31.4263 134.32 30.8211V30.5646H136.844L136.854 30.8108C136.875 31.2314 137.028 31.5392 137.316 31.7648C137.613 31.9905 138.013 32.1033 138.526 32.1033C139.019 32.1033 139.388 32.011 139.624 31.8469C139.839 31.6828 139.942 31.4879 139.942 31.2314C139.942 30.9442 139.829 30.7493 139.603 30.5954C139.326 30.421 138.844 30.2569 138.167 30.1133C137.439 29.9594 136.823 29.7645 136.331 29.5286C135.203 28.9849 134.628 28.1643 134.628 27.1077C134.628 26.2255 134.997 25.4869 135.736 24.9022C136.454 24.3278 137.377 24.0406 138.465 24.0406C139.624 24.0406 140.588 24.338 141.306 24.9227C142.055 25.5177 142.434 26.3076 142.434 27.2616V27.518H139.839V27.2513C139.839 26.9231 139.726 26.6666 139.48 26.4512C139.224 26.2255 138.895 26.1127 138.465 26.1127C138.065 26.1127 137.736 26.205 137.49 26.3794C137.275 26.5435 137.172 26.7487 137.172 27.0256C137.172 27.2616 137.264 27.4257 137.459 27.5591C137.623 27.6719 138.024 27.8463 139.008 28.0617C139.839 28.2463 140.516 28.472 140.998 28.7285C141.501 28.9952 141.881 29.3234 142.127 29.703C142.383 30.0928 142.506 30.5646 142.506 31.1083C142.506 32.0213 142.127 32.7804 141.368 33.3446C140.65 33.8985 139.685 34.1755 138.506 34.1755ZM134.864 31.0775C134.905 31.4879 135.049 31.8674 135.305 32.2264C135.613 32.6675 136.044 33.0163 136.587 33.2728C137.141 33.5292 137.798 33.6626 138.516 33.6626C139.572 33.6626 140.434 33.4164 141.08 32.9445C141.706 32.4726 142.014 31.8777 142.014 31.1186C142.014 30.6775 141.911 30.2979 141.716 29.9902C141.521 29.6825 141.203 29.4055 140.773 29.1798C140.332 28.9439 139.706 28.7285 138.916 28.5643C138.054 28.3694 137.5 28.1848 137.203 27.9899C136.864 27.7642 136.68 27.436 136.68 27.0256C136.68 26.5845 136.854 26.2358 137.213 25.9691C137.552 25.7229 137.982 25.5998 138.485 25.5998C139.039 25.5998 139.501 25.7536 139.839 26.0716C140.126 26.3281 140.301 26.6358 140.352 27.0051H141.932C141.87 26.3281 141.573 25.7742 141.009 25.3228C140.373 24.8099 139.531 24.5535 138.485 24.5535C137.511 24.5535 136.7 24.8099 136.074 25.3023C135.459 25.7947 135.162 26.3794 135.162 27.1077C135.162 27.9591 135.623 28.6054 136.577 29.067C137.028 29.2824 137.603 29.467 138.29 29.6107C139.039 29.7645 139.562 29.9492 139.89 30.1646C140.27 30.4005 140.475 30.7698 140.475 31.2314C140.475 31.652 140.301 32.0008 139.942 32.2572C139.614 32.4932 139.142 32.6163 138.536 32.6163C137.911 32.6163 137.408 32.4624 137.018 32.1649C136.669 31.8982 136.464 31.5289 136.392 31.0775H134.864ZM128.935 34.1755C127.56 34.1755 126.432 33.7036 125.601 32.7906C124.78 31.8674 124.36 30.6365 124.36 29.1285V29.0259C124.36 28.0822 124.555 27.2205 124.924 26.4614C125.304 25.6921 125.847 25.0869 126.545 24.6765C127.232 24.256 128.032 24.0508 128.925 24.0508C130.248 24.0508 131.325 24.4816 132.156 25.3433C132.977 26.1947 133.428 27.3231 133.5 28.7182L133.51 29.2106C133.51 30.1646 133.325 31.0263 132.956 31.7854C132.587 32.5444 132.043 33.1497 131.346 33.56C130.638 33.9601 129.827 34.1755 128.935 34.1755ZM128.914 24.5535C128.125 24.5535 127.406 24.7381 126.801 25.1074C126.196 25.4664 125.714 25.9998 125.386 26.6769C125.047 27.3641 124.873 28.154 124.873 29.0157V29.1183C124.873 30.5031 125.242 31.611 125.981 32.4419C126.729 33.2625 127.694 33.6626 128.935 33.6626C129.745 33.6626 130.453 33.4779 131.069 33.1086C131.684 32.7393 132.156 32.2162 132.484 31.5392C132.823 30.8519 132.987 30.0723 132.987 29.2003L132.977 28.7182C132.915 27.4667 132.515 26.4409 131.776 25.6818C131.038 24.9227 130.104 24.5535 128.914 24.5535ZM119.641 34.1755C118.277 34.1755 117.169 33.7241 116.369 32.8317C115.569 31.9495 115.158 30.7185 115.158 29.1798V28.9644C115.158 27.4975 115.558 26.2973 116.359 25.4049C117.159 24.5022 118.267 24.0406 119.641 24.0406C120.811 24.0406 121.775 24.3893 122.513 25.0766C123.262 25.7639 123.652 26.6769 123.693 27.7847L123.703 28.0514H121.231L121.221 27.8052C121.2 27.3334 121.046 26.9641 120.749 26.6666C120.462 26.3691 120.093 26.2255 119.631 26.2255C119.036 26.2255 118.595 26.4307 118.277 26.8615C117.949 27.3026 117.774 28.0001 117.774 28.9336V29.2619C117.774 30.2056 117.938 30.9134 118.267 31.3648C118.585 31.7854 119.036 32.0008 119.641 32.0008C120.103 32.0008 120.472 31.8777 120.77 31.611C121.057 31.3545 121.211 31.0468 121.231 30.6672L121.241 30.421H123.714L123.703 30.6877C123.683 31.3135 123.478 31.8982 123.119 32.4419C122.76 32.9753 122.267 33.4061 121.652 33.7139C121.016 34.0216 120.349 34.1755 119.641 34.1755ZM119.631 24.5535C118.39 24.5535 117.446 24.9433 116.738 25.7434C116.03 26.5332 115.671 27.6206 115.671 28.9644V29.1798C115.671 30.5852 116.03 31.7033 116.748 32.4932C117.466 33.283 118.41 33.6728 119.641 33.6728C120.267 33.6728 120.852 33.5395 121.395 33.2625C121.929 32.9958 122.36 32.6265 122.667 32.1649C122.924 31.7854 123.078 31.375 123.139 30.9442H121.683C121.611 31.3545 121.406 31.7135 121.077 32.0008C120.687 32.3495 120.195 32.5239 119.61 32.5239C118.841 32.5239 118.246 32.2367 117.825 31.6828C117.436 31.1391 117.231 30.3287 117.231 29.2721V28.9336C117.241 27.8873 117.446 27.0872 117.836 26.5538C118.246 25.9998 118.841 25.7126 119.6 25.7126C120.195 25.7126 120.687 25.9075 121.077 26.3076C121.406 26.6358 121.611 27.0564 121.683 27.5385H123.139C123.057 26.6769 122.729 25.9998 122.144 25.4562C121.518 24.8612 120.667 24.5535 119.631 24.5535ZM104.654 34.1755C103.485 34.1755 102.531 33.7036 101.813 32.7599C101.115 31.8469 100.756 30.5852 100.756 29.0362C100.756 27.5591 101.105 26.3486 101.802 25.4459C102.51 24.5124 103.475 24.0406 104.675 24.0406C105.506 24.0406 106.213 24.2765 106.798 24.7278V20.3169H109.393V34.0011H107.024L106.952 33.3548C106.337 33.8985 105.567 34.1755 104.654 34.1755ZM104.675 24.5535C103.639 24.5535 102.828 24.9433 102.213 25.7536C101.587 26.564 101.269 27.6719 101.269 29.0362C101.269 30.4723 101.587 31.6212 102.223 32.4521C102.849 33.2625 103.649 33.6626 104.664 33.6626C105.629 33.6626 106.388 33.3241 106.962 32.6265L107.352 32.1546L107.496 33.4882H108.891V20.8298H107.321V25.9998L106.87 25.4869C106.306 24.8612 105.588 24.5535 104.675 24.5535ZM96.058 34.1755C94.6732 34.1755 93.5345 33.7344 92.6626 32.8522C91.8009 31.97 91.3598 30.7903 91.3598 29.3439V29.0875C91.3598 28.1232 91.5445 27.2513 91.9137 26.4922C92.2933 25.7229 92.837 25.1074 93.514 24.6765C94.2013 24.2457 94.9706 24.0303 95.8118 24.0303C97.1453 24.0303 98.2019 24.4714 98.9302 25.3331C99.6585 26.1845 100.028 27.3949 100.028 28.9234V30.021H93.9961C94.0884 30.5954 94.3039 31.057 94.6526 31.4058C95.0527 31.8059 95.5553 32.0008 96.1708 32.0008C97.053 32.0008 97.7506 31.652 98.3045 30.9442L98.4789 30.7185L99.9663 32.1341L99.8432 32.3085C99.4431 32.8932 98.9097 33.3651 98.2532 33.6933C97.5967 34.0113 96.8581 34.1755 96.058 34.1755ZM95.8118 24.5535C95.0732 24.5535 94.3859 24.7484 93.791 25.1279C93.1857 25.5074 92.7139 26.0409 92.3754 26.7282C92.0368 27.4154 91.8727 28.2156 91.8727 29.0978V29.3542C91.8727 30.657 92.2625 31.7238 93.0216 32.5034C93.791 33.2728 94.8065 33.6728 96.058 33.6728C96.7863 33.6728 97.4531 33.5292 98.0275 33.242C98.5404 32.9855 98.961 32.6368 99.2995 32.2059L98.5302 31.4776C97.9044 32.1649 97.1146 32.5137 96.1811 32.5137C95.4322 32.5137 94.8065 32.2675 94.3039 31.7751C93.8115 31.2827 93.5345 30.6159 93.4627 29.7953L93.4422 29.5183H99.5252V28.9336C99.5252 27.5283 99.1969 26.4307 98.5507 25.6818C97.9044 24.9227 97.012 24.5535 95.8118 24.5535ZM162.55 34.0011H159.863V21.0042H164.899C166.356 21.0042 167.526 21.394 168.387 22.1531C169.259 22.9224 169.711 23.9585 169.711 25.2305C169.711 26.523 169.269 27.5488 168.408 28.2771C167.567 28.9952 166.377 29.3542 164.869 29.3542H162.54V34.0011H162.55ZM160.376 33.4882H162.038V28.8516H164.879C166.254 28.8516 167.331 28.5336 168.079 27.8873C168.828 27.2513 169.198 26.3794 169.198 25.2305C169.198 24.1021 168.818 23.2199 168.049 22.5429C167.279 21.8659 166.223 21.5171 164.899 21.5171H160.376V33.4882ZM113.784 34.0011H111.189V24.2047H113.784V34.0011ZM111.701 33.4882H113.271V24.7176H111.701V33.4882ZM89.8724 34.0011H87.1951V29.6312L87.3489 25.6716L84.1587 34.0113H82.2507L79.0605 25.6921L79.2143 29.6312V34.0113H76.537V21.0042H79.7888L83.215 30.103L86.6309 21.0042H89.8724V34.0011ZM87.708 33.4882H89.3595V21.5171H86.9899L83.215 31.5597L79.44 21.5171H77.0601V33.4882H78.7117V29.6312L78.4963 24.1431L78.9886 24.0406L82.5995 33.4882H83.7997L87.4207 24.0303L87.9131 24.1329L87.6977 29.6414L87.708 33.4882ZM128.935 32.5137C128.145 32.5137 127.53 32.2059 127.078 31.6007C126.647 31.016 126.432 30.2056 126.432 29.2003C126.432 28.072 126.647 27.2103 127.078 26.6256C127.53 26.0203 128.145 25.7126 128.904 25.7126C129.684 25.7126 130.299 26.0204 130.751 26.6461C131.192 27.2411 131.407 28.0412 131.407 29.0259C131.407 30.1338 131.192 30.9955 130.771 31.5904C130.34 32.1957 129.715 32.5137 128.935 32.5137ZM128.914 26.2255C128.319 26.2255 127.848 26.4614 127.499 26.9333C127.13 27.4257 126.945 28.1848 126.945 29.2003C126.945 30.0928 127.13 30.8006 127.489 31.293C127.837 31.7648 128.309 31.9905 128.925 31.9905C129.54 31.9905 130.012 31.7546 130.351 31.2725C130.71 30.7698 130.894 30.0107 130.894 29.0157C130.894 28.1438 130.71 27.436 130.34 26.9436C129.991 26.4614 129.52 26.2255 128.914 26.2255ZM105.188 32.4726C104.429 32.4726 103.844 32.1752 103.423 31.5699C103.033 30.9955 102.839 30.2056 102.839 29.2106C102.839 28.072 103.033 27.2411 103.433 26.6563C103.844 26.0511 104.449 25.7434 105.208 25.7434C106.162 25.7434 106.86 26.164 107.291 26.9949L107.321 27.0462V31.1288L107.291 31.1801C106.839 32.0418 106.142 32.4726 105.188 32.4726ZM105.208 26.2563C104.623 26.2563 104.182 26.482 103.864 26.9538C103.526 27.436 103.362 28.2053 103.362 29.2209C103.362 30.103 103.526 30.8006 103.854 31.293C104.172 31.7443 104.613 31.97 105.198 31.97C105.936 31.97 106.46 31.6623 106.808 31.0263V27.1898C106.46 26.564 105.936 26.2563 105.208 26.2563ZM97.9762 28.5028H93.4524L93.4935 28.2156C93.5961 27.4565 93.8423 26.8512 94.2218 26.4102C94.6219 25.9485 95.1553 25.7229 95.8015 25.7229C96.4478 25.7229 96.9709 25.928 97.3505 26.3486C97.7095 26.7487 97.9249 27.3231 97.9762 28.0822V28.1027V28.5028ZM94.0474 27.9899H97.4531C97.4018 27.4154 97.2377 26.9743 96.9709 26.6871C96.694 26.3794 96.3144 26.2255 95.8015 26.2255C95.2989 26.2255 94.9091 26.3896 94.6013 26.7384C94.3449 27.0462 94.1603 27.4667 94.0474 27.9899ZM164.899 27.6206H162.038V22.748H164.961C165.751 22.7583 166.377 22.9942 166.838 23.4456C167.3 23.8969 167.536 24.4919 167.536 25.2407C167.536 25.9998 167.3 26.5948 166.838 27.0051C166.377 27.4154 165.73 27.6206 164.899 27.6206ZM162.55 27.1077H164.899C165.607 27.1077 166.141 26.9436 166.5 26.6358C166.849 26.3178 167.023 25.8665 167.023 25.251C167.023 24.6458 166.849 24.1739 166.479 23.8251C166.11 23.4661 165.618 23.2815 164.961 23.2712H162.55V27.1077ZM112.491 23.4148C112.05 23.4148 111.691 23.2815 111.435 23.0353C111.189 22.7686 111.055 22.4506 111.055 22.0608C111.055 21.671 111.178 21.3427 111.424 21.0862C111.681 20.8195 112.04 20.6862 112.481 20.6862C112.932 20.6862 113.281 20.8195 113.538 21.076C113.794 21.3324 113.917 21.6607 113.917 22.0505C113.917 22.43 113.784 22.7583 113.538 23.0148C113.291 23.2815 112.943 23.4148 112.491 23.4148ZM112.491 21.1991C112.184 21.1991 111.958 21.2811 111.804 21.435C111.65 21.5991 111.578 21.8043 111.578 22.0505C111.578 22.2967 111.65 22.5019 111.804 22.666C111.958 22.8198 112.184 22.8917 112.491 22.8917C112.799 22.8917 113.025 22.8199 113.189 22.6557C113.343 22.4916 113.425 22.2967 113.425 22.0505C113.425 21.794 113.343 21.5991 113.189 21.435C113.025 21.2811 112.799 21.1991 112.491 21.1991Z" fill="white"/>
</svg>
