<svg width="77" height="77" viewBox="0 0 77 77" fill="none" xmlns="http://www.w3.org/2000/svg">
<circle cx="38.5" cy="38.5" r="38.5" fill="white"/>
<path fill-rule="evenodd" clip-rule="evenodd" d="M38.5 70C55.897 70 70 55.897 70 38.5C70 21.103 55.897 7 38.5 7C21.103 7 7 21.103 7 38.5C7 55.897 21.103 70 38.5 70ZM38.5 77C59.763 77 77 59.763 77 38.5C77 17.237 59.763 0 38.5 0C17.237 0 0 17.237 0 38.5C0 59.763 17.237 77 38.5 77Z" fill="#404040"/>
<path d="M34.2064 28.212V35.556C34.2064 36.036 34.0984 36.492 33.8824 36.924C33.6664 37.332 33.3664 37.704 32.9824 38.04C33.3424 38.352 33.6304 38.736 33.8464 39.192C34.0864 39.624 34.2064 40.068 34.2064 40.524V48.264H36.1864V52.116H30.7144C30.5464 52.116 30.3664 52.044 30.1744 51.9C29.9824 51.756 29.8864 51.468 29.8864 51.036V42.108C29.8864 41.484 29.6944 40.956 29.3104 40.524C28.9504 40.068 28.5424 39.792 28.0864 39.696V36.312C28.5904 36.312 29.0104 36.048 29.3464 35.52C29.7064 34.992 29.8864 34.476 29.8864 33.972V25.44C29.8864 25.008 29.9824 24.72 30.1744 24.576C30.3904 24.432 30.5704 24.36 30.7144 24.36H36.1864V28.212H34.2064Z" fill="#404040"/>
<path d="M39.8002 28.212V24.36H45.3082C45.4282 24.36 45.5962 24.432 45.8122 24.576C46.0282 24.72 46.1362 25.008 46.1362 25.44V33.972C46.1362 34.476 46.3042 34.992 46.6402 35.52C47.0002 36.048 47.4322 36.312 47.9362 36.312V39.696C47.4562 39.792 47.0362 40.068 46.6762 40.524C46.3162 40.956 46.1362 41.484 46.1362 42.108V51.036C46.1362 51.468 46.0282 51.756 45.8122 51.9C45.6202 52.044 45.4522 52.116 45.3082 52.116H39.8002V48.264H41.7802V40.524C41.7802 40.068 41.8882 39.624 42.1042 39.192C42.3442 38.736 42.6562 38.352 43.0402 38.04C42.6562 37.704 42.3442 37.332 42.1042 36.924C41.8882 36.492 41.7802 36.036 41.7802 35.556V28.212H39.8002Z" fill="#404040"/>
</svg>
