<svg width="234" height="180" viewBox="0 0 234 180" fill="none" xmlns="http://www.w3.org/2000/svg">
<path d="M116.9 130.4C152.357 130.4 181.1 101.657 181.1 66.2C181.1 30.7433 152.357 2 116.9 2C81.4433 2 52.7 30.7433 52.7 66.2C52.7 101.657 81.4433 130.4 116.9 130.4Z" stroke="#E6E7E8" stroke-width="4" stroke-miterlimit="10"/>
<path d="M130.9 82.6001L137.9 89.6001L161.3 66.2001L137.9 42.8L130.9 49.8L147.3 66.2001L130.9 82.6001Z" stroke="#51BFEA" stroke-width="2" stroke-miterlimit="10"/>
<path d="M102.9 49.8L95.9 42.8L72.5 66.2001L95.9 89.6001L102.9 82.6001L86.5 66.2001L102.9 49.8Z" stroke="#51BFEA" stroke-width="2" stroke-miterlimit="10"/>
<path d="M121.4 39.8L126.5 41.2001L112.5 92.6001L107.4 91.2001L121.4 39.8Z" stroke="#51BFEA" stroke-width="2" stroke-miterlimit="10"/>
<path d="M47.3 179.3H0.599976L9.89998 166L0.599976 152.8H47.3V179.3Z" fill="#3BAED2"/>
<path d="M26.7 168.1L47.3 179.3V168.1H26.7Z" fill="#2897B2"/>
<path d="M186.5 179.3H233.2L223.9 166L233.2 152.8H186.5V179.3Z" fill="#3BAED2"/>
<path d="M120.3 141.6H26.7V168.1H120.3H207.1V141.6H120.3Z" fill="#51BFEA"/>
<path d="M207.1 168.1L186.5 179.3V168.1H207.1Z" fill="#2897B2"/>
<path d="M59.621 148.399H65.137C66.5692 148.399 67.8337 148.689 68.9305 149.27C70.0272 149.838 70.8788 150.638 71.4853 151.67C72.0917 152.689 72.3949 153.857 72.3949 155.173C72.3949 156.489 72.0917 157.663 71.4853 158.696C70.8788 159.715 70.0272 160.515 68.9305 161.096C67.8337 161.663 66.5692 161.947 65.137 161.947H59.621V148.399ZM65.0596 160.708C66.2467 160.708 67.2853 160.476 68.1757 160.012C69.066 159.534 69.7563 158.883 70.2466 158.057C70.7369 157.218 70.9821 156.257 70.9821 155.173C70.9821 154.089 70.7369 153.134 70.2466 152.309C69.7563 151.47 69.066 150.818 68.1757 150.354C67.2853 149.876 66.2467 149.638 65.0596 149.638H61.0532V160.708H65.0596ZM75.3208 151.767H76.695V161.947H75.3208V151.767ZM76.0176 149.541C75.7337 149.541 75.495 149.444 75.3014 149.251C75.1079 149.057 75.0111 148.825 75.0111 148.554C75.0111 148.296 75.1079 148.07 75.3014 147.876C75.495 147.683 75.7337 147.586 76.0176 147.586C76.3014 147.586 76.5401 147.683 76.7337 147.876C76.9272 148.057 77.024 148.276 77.024 148.534C77.024 148.818 76.9272 149.057 76.7337 149.251C76.5401 149.444 76.3014 149.541 76.0176 149.541ZM83.2475 162.044C82.4217 162.044 81.6282 161.928 80.8669 161.696C80.1185 161.45 79.5315 161.147 79.1057 160.786L79.725 159.702C80.1508 160.037 80.6863 160.315 81.3314 160.534C81.9766 160.741 82.6475 160.844 83.3443 160.844C84.2733 160.844 84.9572 160.702 85.3959 160.418C85.8475 160.121 86.0733 159.708 86.0733 159.179C86.0733 158.805 85.9507 158.515 85.7055 158.308C85.4604 158.089 85.1507 157.928 84.7765 157.825C84.4023 157.709 83.9056 157.599 83.2862 157.496C82.4604 157.341 81.7959 157.186 81.2927 157.031C80.7895 156.863 80.3572 156.586 79.996 156.199C79.6476 155.812 79.4734 155.276 79.4734 154.592C79.4734 153.741 79.8282 153.044 80.5379 152.502C81.2476 151.96 82.2346 151.689 83.4991 151.689C84.1572 151.689 84.8152 151.78 85.4733 151.96C86.1313 152.128 86.6733 152.354 87.0991 152.638L86.4991 153.741C85.6604 153.16 84.6604 152.87 83.4991 152.87C82.6217 152.87 81.9572 153.025 81.5056 153.334C81.0669 153.644 80.8476 154.051 80.8476 154.554C80.8476 154.941 80.9701 155.25 81.2153 155.483C81.4734 155.715 81.7895 155.889 82.1637 156.005C82.5379 156.109 83.054 156.218 83.712 156.334C84.5249 156.489 85.1765 156.644 85.6668 156.799C86.1571 156.954 86.5765 157.218 86.9249 157.592C87.2733 157.967 87.4474 158.483 87.4474 159.141C87.4474 160.031 87.0733 160.741 86.3249 161.27C85.5894 161.786 84.5636 162.044 83.2475 162.044ZM98.8522 157.283H90.3363C90.4137 158.341 90.8201 159.199 91.5556 159.857C92.2911 160.502 93.2201 160.825 94.3426 160.825C94.9749 160.825 95.5555 160.715 96.0845 160.496C96.6136 160.263 97.0716 159.928 97.4587 159.489L98.2329 160.379C97.7813 160.921 97.2136 161.334 96.5297 161.618C95.8587 161.902 95.1168 162.044 94.3039 162.044C93.2588 162.044 92.3298 161.825 91.5169 161.386C90.7169 160.934 90.0911 160.315 89.6395 159.528C89.1879 158.741 88.9621 157.85 88.9621 156.857C88.9621 155.863 89.175 154.973 89.6008 154.186C90.0395 153.399 90.633 152.786 91.3814 152.347C92.1427 151.909 92.9943 151.689 93.9362 151.689C94.8781 151.689 95.7233 151.909 96.4716 152.347C97.22 152.786 97.8071 153.399 98.2329 154.186C98.6587 154.96 98.8716 155.85 98.8716 156.857L98.8522 157.283ZM93.9362 152.87C92.9556 152.87 92.1298 153.186 91.4588 153.818C90.8008 154.438 90.4266 155.25 90.3363 156.257H97.5555C97.4652 155.25 97.0845 154.438 96.4136 153.818C95.7555 153.186 94.9297 152.87 93.9362 152.87ZM106.856 151.689C108.133 151.689 109.146 152.063 109.894 152.812C110.656 153.547 111.036 154.625 111.036 156.044V161.947H109.662V156.18C109.662 155.121 109.398 154.315 108.868 153.76C108.339 153.205 107.585 152.928 106.604 152.928C105.507 152.928 104.636 153.257 103.991 153.915C103.359 154.56 103.043 155.457 103.043 156.605V161.947H101.669V151.767H102.985V153.644C103.359 153.025 103.875 152.547 104.533 152.212C105.204 151.863 105.978 151.689 106.856 151.689ZM107.649 150.063C107.352 150.063 107.088 149.999 106.856 149.87C106.623 149.728 106.372 149.534 106.101 149.289C105.869 149.096 105.681 148.96 105.54 148.883C105.41 148.793 105.269 148.747 105.114 148.747C104.817 148.747 104.578 148.857 104.398 149.076C104.217 149.296 104.12 149.599 104.107 149.986H103.275C103.301 149.341 103.469 148.825 103.778 148.438C104.088 148.051 104.501 147.857 105.017 147.857C105.314 147.857 105.572 147.922 105.791 148.051C106.023 148.18 106.288 148.373 106.585 148.631C106.791 148.812 106.965 148.947 107.107 149.038C107.249 149.128 107.398 149.173 107.552 149.173C107.836 149.173 108.069 149.07 108.249 148.864C108.43 148.644 108.533 148.347 108.559 147.973H109.391C109.365 148.605 109.198 149.115 108.888 149.502C108.578 149.876 108.165 150.063 107.649 150.063ZM118.966 162.044C117.985 162.044 117.101 161.825 116.314 161.386C115.527 160.934 114.908 160.315 114.456 159.528C114.005 158.741 113.779 157.85 113.779 156.857C113.779 155.863 114.005 154.973 114.456 154.186C114.908 153.399 115.527 152.786 116.314 152.347C117.101 151.909 117.985 151.689 118.966 151.689C119.947 151.689 120.83 151.909 121.618 152.347C122.405 152.786 123.017 153.399 123.456 154.186C123.908 154.973 124.134 155.863 124.134 156.857C124.134 157.85 123.908 158.741 123.456 159.528C123.017 160.315 122.405 160.934 121.618 161.386C120.83 161.825 119.947 162.044 118.966 162.044ZM118.966 160.825C119.689 160.825 120.334 160.663 120.901 160.341C121.482 160.005 121.934 159.534 122.256 158.928C122.579 158.321 122.74 157.631 122.74 156.857C122.74 156.083 122.579 155.392 122.256 154.786C121.934 154.18 121.482 153.715 120.901 153.392C120.334 153.057 119.689 152.889 118.966 152.889C118.243 152.889 117.592 153.057 117.011 153.392C116.443 153.715 115.992 154.18 115.656 154.786C115.334 155.392 115.172 156.083 115.172 156.857C115.172 157.631 115.334 158.321 115.656 158.928C115.992 159.534 116.443 160.005 117.011 160.341C117.592 160.663 118.243 160.825 118.966 160.825ZM150.895 148.399L146.327 161.947H144.817L140.85 150.393L136.863 161.947H135.372L130.805 148.399H132.275L136.185 160.05L140.23 148.399H141.566L145.553 160.108L149.52 148.399H150.895ZM161.32 157.283H152.804C152.881 158.341 153.288 159.199 154.023 159.857C154.758 160.502 155.687 160.825 156.81 160.825C157.442 160.825 158.023 160.715 158.552 160.496C159.081 160.263 159.539 159.928 159.926 159.489L160.7 160.379C160.249 160.921 159.681 161.334 158.997 161.618C158.326 161.902 157.584 162.044 156.771 162.044C155.726 162.044 154.797 161.825 153.984 161.386C153.184 160.934 152.558 160.315 152.107 159.528C151.655 158.741 151.429 157.85 151.429 156.857C151.429 155.863 151.642 154.973 152.068 154.186C152.507 153.399 153.1 152.786 153.849 152.347C154.61 151.909 155.462 151.689 156.404 151.689C157.346 151.689 158.191 151.909 158.939 152.347C159.687 152.786 160.274 153.399 160.7 154.186C161.126 154.96 161.339 155.85 161.339 156.857L161.32 157.283ZM156.404 152.87C155.423 152.87 154.597 153.186 153.926 153.818C153.268 154.438 152.894 155.25 152.804 156.257H160.023C159.933 155.25 159.552 154.438 158.881 153.818C158.223 153.186 157.397 152.87 156.404 152.87ZM169.381 151.689C170.336 151.689 171.2 151.909 171.975 152.347C172.749 152.773 173.355 153.38 173.794 154.167C174.233 154.954 174.452 155.85 174.452 156.857C174.452 157.863 174.233 158.76 173.794 159.547C173.355 160.334 172.749 160.947 171.975 161.386C171.2 161.825 170.336 162.044 169.381 162.044C168.529 162.044 167.762 161.863 167.078 161.502C166.407 161.141 165.865 160.618 165.452 159.934V161.947H164.136V147.586H165.51V153.702C165.936 153.044 166.478 152.547 167.136 152.212C167.807 151.863 168.555 151.689 169.381 151.689ZM169.284 160.825C169.994 160.825 170.639 160.663 171.22 160.341C171.8 160.005 172.252 159.534 172.575 158.928C172.91 158.321 173.078 157.631 173.078 156.857C173.078 156.083 172.91 155.392 172.575 154.786C172.252 154.18 171.8 153.715 171.22 153.392C170.639 153.057 169.994 152.889 169.284 152.889C168.562 152.889 167.91 153.057 167.33 153.392C166.762 153.715 166.31 154.18 165.975 154.786C165.652 155.392 165.491 156.083 165.491 156.857C165.491 157.631 165.652 158.321 165.975 158.928C166.31 159.534 166.762 160.005 167.33 160.341C167.91 160.663 168.562 160.825 169.284 160.825Z" fill="white"/>
</svg>
