<svg width="233" height="180" viewBox="0 0 233 180" fill="none" xmlns="http://www.w3.org/2000/svg">
<path d="M116.5 130.4C151.957 130.4 180.7 101.657 180.7 66.2C180.7 30.7433 151.957 2 116.5 2C81.0432 2 52.2999 30.7433 52.2999 66.2C52.2999 101.657 81.0432 130.4 116.5 130.4Z" stroke="#E6E7E8" stroke-width="4" stroke-miterlimit="10"/>
<path d="M134.1 26H99C94.9 26 91.5 29.4 91.5 33.5V98.7C91.5 102.8 94.9 106.2 99 106.2H134.1C138.2 106.2 141.6 102.8 141.6 98.7V33.6C141.6 29.4 138.2 26 134.1 26ZM106.5 29.8H126.5V32.3H106.5V29.8ZM116.5 101.3C113.7 101.3 111.5 99.1 111.5 96.3C111.5 93.5 113.7 91.3 116.5 91.3C119.3 91.3 121.5 93.5 121.5 96.3C121.5 99.1 119.3 101.3 116.5 101.3ZM136.6 86.3H96.4V36.1H136.5V86.3H136.6Z" stroke="#51BFEA" stroke-width="2" stroke-miterlimit="10"/>
<path d="M46.9 179.3H0.199951L9.49995 166L0.199951 152.8H46.9V179.3Z" fill="#3BAED2"/>
<path d="M26.2999 168.1L46.8999 179.3V168.1H26.2999Z" fill="#2897B2"/>
<path d="M186.1 179.3H232.8L223.5 166L232.8 152.8H186.1V179.3Z" fill="#3BAED2"/>
<path d="M119.9 141.6H26.2999V168.1H119.9H206.7V141.6H119.9Z" fill="#51BFEA"/>
<path d="M206.7 168.1L186.1 179.3V168.1H206.7Z" fill="#2897B2"/>
<path d="M56.6182 148.397H62.1342C63.5664 148.397 64.8309 148.688 65.9277 149.268C67.0244 149.836 67.876 150.636 68.4825 151.668C69.0889 152.688 69.3921 153.855 69.3921 155.171C69.3921 156.488 69.0889 157.662 68.4825 158.694C67.876 159.713 67.0244 160.513 65.9277 161.094C64.8309 161.662 63.5664 161.946 62.1342 161.946H56.6182V148.397ZM62.0568 160.707C63.2438 160.707 64.2825 160.475 65.1728 160.01C66.0632 159.533 66.7535 158.881 67.2438 158.055C67.7341 157.217 67.9792 156.255 67.9792 155.171C67.9792 154.088 67.7341 153.133 67.2438 152.307C66.7535 151.468 66.0632 150.817 65.1728 150.352C64.2825 149.875 63.2438 149.636 62.0568 149.636H58.0504V160.707H62.0568ZM72.318 151.765H73.6922V161.946H72.318V151.765ZM73.0147 149.539C72.7309 149.539 72.4922 149.443 72.2986 149.249C72.1051 149.055 72.0083 148.823 72.0083 148.552C72.0083 148.294 72.1051 148.068 72.2986 147.875C72.4922 147.681 72.7309 147.585 73.0147 147.585C73.2986 147.585 73.5373 147.681 73.7309 147.875C73.9244 148.055 74.0212 148.275 74.0212 148.533C74.0212 148.817 73.9244 149.055 73.7309 149.249C73.5373 149.443 73.2986 149.539 73.0147 149.539ZM80.2447 162.042C79.4189 162.042 78.6254 161.926 77.8641 161.694C77.1157 161.449 76.5286 161.146 76.1028 160.784L76.7222 159.7C77.148 160.036 77.6835 160.313 78.3286 160.533C78.9738 160.739 79.6447 160.842 80.3415 160.842C81.2705 160.842 81.9544 160.7 82.3931 160.417C82.8447 160.12 83.0705 159.707 83.0705 159.178C83.0705 158.804 82.9479 158.513 82.7027 158.307C82.4576 158.088 82.1479 157.926 81.7737 157.823C81.3995 157.707 80.9028 157.597 80.2834 157.494C79.4576 157.339 78.7931 157.184 78.2899 157.03C77.7867 156.862 77.3544 156.584 76.9932 156.197C76.6448 155.81 76.4706 155.275 76.4706 154.591C76.4706 153.739 76.8254 153.042 77.5351 152.501C78.2447 151.959 79.2318 151.688 80.4963 151.688C81.1544 151.688 81.8124 151.778 82.4705 151.959C83.1285 152.126 83.6705 152.352 84.0963 152.636L83.4963 153.739C82.6576 153.159 81.6576 152.868 80.4963 152.868C79.6189 152.868 78.9544 153.023 78.5028 153.333C78.0641 153.642 77.8448 154.049 77.8448 154.552C77.8448 154.939 77.9673 155.249 78.2125 155.481C78.4705 155.713 78.7867 155.888 79.1609 156.004C79.535 156.107 80.0512 156.217 80.7092 156.333C81.5221 156.488 82.1737 156.642 82.664 156.797C83.1543 156.952 83.5737 157.217 83.9221 157.591C84.2704 157.965 84.4446 158.481 84.4446 159.139C84.4446 160.029 84.0704 160.739 83.3221 161.268C82.5866 161.784 81.5608 162.042 80.2447 162.042ZM95.8494 157.281H87.3334C87.4109 158.339 87.8173 159.197 88.5528 159.855C89.2883 160.5 90.2173 160.823 91.3398 160.823C91.9721 160.823 92.5527 160.713 93.0817 160.494C93.6108 160.262 94.0688 159.926 94.4559 159.488L95.2301 160.378C94.7785 160.92 94.2107 161.333 93.5269 161.617C92.8559 161.9 92.114 162.042 91.3011 162.042C90.256 162.042 89.327 161.823 88.5141 161.384C87.7141 160.933 87.0883 160.313 86.6367 159.526C86.1851 158.739 85.9593 157.849 85.9593 156.855C85.9593 155.862 86.1722 154.971 86.598 154.184C87.0367 153.397 87.6302 152.784 88.3786 152.346C89.1399 151.907 89.9915 151.688 90.9334 151.688C91.8753 151.688 92.7204 151.907 93.4688 152.346C94.2172 152.784 94.8043 153.397 95.2301 154.184C95.6559 154.959 95.8688 155.849 95.8688 156.855L95.8494 157.281ZM90.9334 152.868C89.9528 152.868 89.127 153.184 88.456 153.817C87.798 154.436 87.4238 155.249 87.3334 156.255H94.5527C94.4624 155.249 94.0817 154.436 93.4108 153.817C92.7527 153.184 91.9269 152.868 90.9334 152.868ZM103.853 151.688C105.13 151.688 106.143 152.062 106.891 152.81C107.653 153.546 108.033 154.623 108.033 156.042V161.946H106.659V156.178C106.659 155.12 106.395 154.313 105.866 153.759C105.337 153.204 104.582 152.926 103.601 152.926C102.504 152.926 101.633 153.255 100.988 153.913C100.356 154.559 100.04 155.455 100.04 156.604V161.946H98.6658V151.765H99.9819V153.642C100.356 153.023 100.872 152.546 101.53 152.21C102.201 151.862 102.975 151.688 103.853 151.688ZM104.646 150.062C104.35 150.062 104.085 149.997 103.853 149.868C103.621 149.726 103.369 149.533 103.098 149.288C102.866 149.094 102.679 148.959 102.537 148.881C102.408 148.791 102.266 148.746 102.111 148.746C101.814 148.746 101.575 148.855 101.395 149.075C101.214 149.294 101.117 149.597 101.104 149.984H100.272C100.298 149.339 100.466 148.823 100.775 148.436C101.085 148.049 101.498 147.855 102.014 147.855C102.311 147.855 102.569 147.92 102.788 148.049C103.021 148.178 103.285 148.372 103.582 148.63C103.788 148.81 103.962 148.946 104.104 149.036C104.246 149.126 104.395 149.172 104.55 149.172C104.833 149.172 105.066 149.068 105.246 148.862C105.427 148.643 105.53 148.346 105.556 147.972H106.388C106.362 148.604 106.195 149.114 105.885 149.501C105.575 149.875 105.162 150.062 104.646 150.062ZM115.963 162.042C114.983 162.042 114.099 161.823 113.312 161.384C112.524 160.933 111.905 160.313 111.454 159.526C111.002 158.739 110.776 157.849 110.776 156.855C110.776 155.862 111.002 154.971 111.454 154.184C111.905 153.397 112.524 152.784 113.312 152.346C114.099 151.907 114.983 151.688 115.963 151.688C116.944 151.688 117.828 151.907 118.615 152.346C119.402 152.784 120.015 153.397 120.453 154.184C120.905 154.971 121.131 155.862 121.131 156.855C121.131 157.849 120.905 158.739 120.453 159.526C120.015 160.313 119.402 160.933 118.615 161.384C117.828 161.823 116.944 162.042 115.963 162.042ZM115.963 160.823C116.686 160.823 117.331 160.662 117.899 160.339C118.479 160.004 118.931 159.533 119.253 158.926C119.576 158.32 119.737 157.63 119.737 156.855C119.737 156.081 119.576 155.391 119.253 154.784C118.931 154.178 118.479 153.713 117.899 153.391C117.331 153.055 116.686 152.888 115.963 152.888C115.241 152.888 114.589 153.055 114.008 153.391C113.441 153.713 112.989 154.178 112.654 154.784C112.331 155.391 112.17 156.081 112.17 156.855C112.17 157.63 112.331 158.32 112.654 158.926C112.989 159.533 113.441 160.004 114.008 160.339C114.589 160.662 115.241 160.823 115.963 160.823ZM143.363 148.397V161.946H141.989V151.107L136.666 160.223H135.989L130.666 151.165V161.946H129.292V148.397H130.473L136.356 158.442L142.182 148.397H143.363ZM151.648 162.042C150.667 162.042 149.784 161.823 148.996 161.384C148.209 160.933 147.59 160.313 147.138 159.526C146.687 158.739 146.461 157.849 146.461 156.855C146.461 155.862 146.687 154.971 147.138 154.184C147.59 153.397 148.209 152.784 148.996 152.346C149.784 151.907 150.667 151.688 151.648 151.688C152.629 151.688 153.512 151.907 154.3 152.346C155.087 152.784 155.7 153.397 156.138 154.184C156.59 154.971 156.816 155.862 156.816 156.855C156.816 157.849 156.59 158.739 156.138 159.526C155.7 160.313 155.087 160.933 154.3 161.384C153.512 161.823 152.629 162.042 151.648 162.042ZM151.648 160.823C152.371 160.823 153.016 160.662 153.583 160.339C154.164 160.004 154.616 159.533 154.938 158.926C155.261 158.32 155.422 157.63 155.422 156.855C155.422 156.081 155.261 155.391 154.938 154.784C154.616 154.178 154.164 153.713 153.583 153.391C153.016 153.055 152.371 152.888 151.648 152.888C150.925 152.888 150.274 153.055 149.693 153.391C149.125 153.713 148.674 154.178 148.338 154.784C148.016 155.391 147.855 156.081 147.855 156.855C147.855 157.63 148.016 158.32 148.338 158.926C148.674 159.533 149.125 160.004 149.693 160.339C150.274 160.662 150.925 160.823 151.648 160.823ZM153.022 147.778H154.861L151.725 150.178H150.371L153.022 147.778ZM167.892 151.765L163.363 161.946H161.95L157.441 151.765H158.873L162.686 160.436L166.538 151.765H167.892ZM169.828 151.765H171.202V161.946H169.828V151.765ZM170.524 149.539C170.241 149.539 170.002 149.443 169.808 149.249C169.615 149.055 169.518 148.823 169.518 148.552C169.518 148.294 169.615 148.068 169.808 147.875C170.002 147.681 170.241 147.585 170.524 147.585C170.808 147.585 171.047 147.681 171.24 147.875C171.434 148.055 171.531 148.275 171.531 148.533C171.531 148.817 171.434 149.055 171.24 149.249C171.047 149.443 170.808 149.539 170.524 149.539ZM175.025 147.585H176.4V161.946H175.025V147.585Z" fill="white"/>
</svg>
