<svg width="233" height="180" viewBox="0 0 233 180" fill="none" xmlns="http://www.w3.org/2000/svg">
<path d="M116.3 130.4C151.757 130.4 180.5 101.657 180.5 66.2C180.5 30.7433 151.757 2 116.3 2C80.8433 2 52.1 30.7433 52.1 66.2C52.1 101.657 80.8433 130.4 116.3 130.4Z" stroke="#E6E7E8" stroke-width="4" stroke-miterlimit="10"/>
<path d="M129.2 97.3H103.4L101.4 103C101.1 103.8 101.6 104.5 102.5 104.5H130.1C131 104.5 131.5 103.8 131.2 103L129.2 97.3Z" stroke="#51BFEA" stroke-width="2" stroke-miterlimit="10"/>
<path d="M141.5 75.7001C128.4 55.7001 124 27.8 124 27.8H118.5V54C119.4 54.3 120.2 54.8 120.9 55.5C123.5 58.1 123.5 62.2 120.9 64.8C118.3 67.4 114.2 67.4 111.6 64.8C109 62.2 109 58.1 111.6 55.5C112.3 54.8 113.2 54.3 114 54V27.8H108.5C108.5 27.8 104.1 55.7001 91 75.7001C90.1 77.0001 90.7 77.9 91.4 78.9L103 92.7001H129.4L141 78.9C141.9 78 142.4 77.1001 141.5 75.7001Z" stroke="#51BFEA" stroke-width="2" stroke-miterlimit="10"/>
<path d="M46.7 179.3H0L9.3 166L0 152.8H46.7V179.3Z" fill="#3BAED2"/>
<path d="M26.1 168.1L46.7 179.3V168.1H26.1Z" fill="#2897B2"/>
<path d="M185.9 179.3H232.6L223.3 166L232.6 152.8H185.9V179.3Z" fill="#3BAED2"/>
<path d="M119.7 141.6H26.1V168.1H119.7H206.5V141.6H119.7Z" fill="#51BFEA"/>
<path d="M206.5 168.1L185.9 179.3V168.1H206.5Z" fill="#2897B2"/>
<path d="M46.9347 148.399H52.4507C53.883 148.399 55.1474 148.689 56.2442 149.27C57.341 149.838 58.1926 150.638 58.799 151.67C59.4054 152.689 59.7087 153.857 59.7087 155.173C59.7087 156.489 59.4054 157.663 58.799 158.696C58.1926 159.715 57.341 160.515 56.2442 161.096C55.1474 161.663 53.883 161.947 52.4507 161.947H46.9347V148.399ZM52.3733 160.708C53.5604 160.708 54.5991 160.476 55.4894 160.012C56.3797 159.534 57.07 158.883 57.5603 158.057C58.0506 157.218 58.2958 156.257 58.2958 155.173C58.2958 154.089 58.0506 153.134 57.5603 152.309C57.07 151.47 56.3797 150.818 55.4894 150.354C54.5991 149.876 53.5604 149.638 52.3733 149.638H48.3669V160.708H52.3733ZM62.6345 151.767H64.0087V161.947H62.6345V151.767ZM63.3313 149.541C63.0474 149.541 62.8087 149.444 62.6152 149.251C62.4216 149.057 62.3248 148.825 62.3248 148.554C62.3248 148.296 62.4216 148.07 62.6152 147.876C62.8087 147.683 63.0474 147.586 63.3313 147.586C63.6151 147.586 63.8538 147.683 64.0474 147.876C64.2409 148.057 64.3377 148.276 64.3377 148.534C64.3377 148.818 64.2409 149.057 64.0474 149.251C63.8538 149.444 63.6151 149.541 63.3313 149.541ZM70.5612 162.044C69.7354 162.044 68.9419 161.928 68.1806 161.696C67.4323 161.45 66.8452 161.147 66.4194 160.786L67.0387 159.702C67.4645 160.037 68 160.315 68.6451 160.534C69.2903 160.741 69.9612 160.844 70.658 160.844C71.587 160.844 72.2709 160.702 72.7096 160.418C73.1612 160.121 73.387 159.708 73.387 159.179C73.387 158.805 73.2644 158.515 73.0193 158.308C72.7741 158.089 72.4644 157.928 72.0902 157.825C71.7161 157.709 71.2193 157.599 70.5999 157.496C69.7742 157.341 69.1096 157.186 68.6064 157.031C68.1032 156.863 67.671 156.586 67.3097 156.199C66.9613 155.812 66.7871 155.276 66.7871 154.592C66.7871 153.741 67.1419 153.044 67.8516 152.502C68.5613 151.96 69.5484 151.689 70.8128 151.689C71.4709 151.689 72.129 151.78 72.787 151.96C73.4451 152.128 73.987 152.354 74.4128 152.638L73.8128 153.741C72.9741 153.16 71.9741 152.87 70.8128 152.87C69.9354 152.87 69.2709 153.025 68.8193 153.334C68.3806 153.644 68.1613 154.051 68.1613 154.554C68.1613 154.941 68.2839 155.25 68.529 155.483C68.7871 155.715 69.1032 155.889 69.4774 156.005C69.8516 156.109 70.3677 156.218 71.0257 156.334C71.8386 156.489 72.4902 156.644 72.9805 156.799C73.4709 156.954 73.8902 157.218 74.2386 157.592C74.587 157.967 74.7612 158.483 74.7612 159.141C74.7612 160.031 74.387 160.741 73.6386 161.27C72.9031 161.786 71.8773 162.044 70.5612 162.044ZM86.166 157.283H77.65C77.7274 158.341 78.1338 159.199 78.8693 159.857C79.6048 160.502 80.5338 160.825 81.6564 160.825C82.2886 160.825 82.8692 160.715 83.3983 160.496C83.9273 160.263 84.3853 159.928 84.7724 159.489L85.5466 160.379C85.095 160.921 84.5273 161.334 83.8434 161.618C83.1725 161.902 82.4305 162.044 81.6176 162.044C80.5725 162.044 79.6435 161.825 78.8306 161.386C78.0306 160.934 77.4048 160.315 76.9532 159.528C76.5016 158.741 76.2758 157.85 76.2758 156.857C76.2758 155.863 76.4887 154.973 76.9145 154.186C77.3532 153.399 77.9467 152.786 78.6951 152.347C79.4564 151.909 80.308 151.689 81.2499 151.689C82.1918 151.689 83.037 151.909 83.7854 152.347C84.5337 152.786 85.1208 153.399 85.5466 154.186C85.9724 154.96 86.1853 155.85 86.1853 156.857L86.166 157.283ZM81.2499 152.87C80.2693 152.87 79.4435 153.186 78.7725 153.818C78.1145 154.438 77.7403 155.25 77.65 156.257H84.8692C84.7789 155.25 84.3982 154.438 83.7273 153.818C83.0692 153.186 82.2434 152.87 81.2499 152.87ZM94.1693 151.689C95.4467 151.689 96.4596 152.063 97.208 152.812C97.9693 153.547 98.3499 154.625 98.3499 156.044V161.947H96.9757V156.18C96.9757 155.121 96.7112 154.315 96.1822 153.76C95.6532 153.205 94.8984 152.928 93.9177 152.928C92.821 152.928 91.95 153.257 91.3049 153.915C90.6726 154.56 90.3565 155.457 90.3565 156.605V161.947H88.9823V151.767H90.2984V153.644C90.6726 153.025 91.1887 152.547 91.8468 152.212C92.5178 151.863 93.2919 151.689 94.1693 151.689ZM94.9629 150.063C94.6661 150.063 94.4016 149.999 94.1693 149.87C93.9371 149.728 93.6855 149.534 93.4145 149.289C93.1823 149.096 92.9952 148.96 92.8532 148.883C92.7242 148.793 92.5823 148.747 92.4274 148.747C92.1307 148.747 91.892 148.857 91.7113 149.076C91.5307 149.296 91.4339 149.599 91.421 149.986H90.5888C90.6146 149.341 90.7823 148.825 91.092 148.438C91.4016 148.051 91.8145 147.857 92.3307 147.857C92.6274 147.857 92.8855 147.922 93.1048 148.051C93.3371 148.18 93.6016 148.373 93.8984 148.631C94.1048 148.812 94.279 148.947 94.4209 149.038C94.5629 149.128 94.7113 149.173 94.8661 149.173C95.15 149.173 95.3822 149.07 95.5629 148.864C95.7435 148.644 95.8467 148.347 95.8725 147.973H96.7048C96.679 148.605 96.5112 149.115 96.2016 149.502C95.8919 149.876 95.479 150.063 94.9629 150.063ZM106.28 162.044C105.299 162.044 104.415 161.825 103.628 161.386C102.841 160.934 102.222 160.315 101.77 159.528C101.318 158.741 101.093 157.85 101.093 156.857C101.093 155.863 101.318 154.973 101.77 154.186C102.222 153.399 102.841 152.786 103.628 152.347C104.415 151.909 105.299 151.689 106.28 151.689C107.26 151.689 108.144 151.909 108.931 152.347C109.718 152.786 110.331 153.399 110.77 154.186C111.222 154.973 111.447 155.863 111.447 156.857C111.447 157.85 111.222 158.741 110.77 159.528C110.331 160.315 109.718 160.934 108.931 161.386C108.144 161.825 107.26 162.044 106.28 162.044ZM106.28 160.825C107.002 160.825 107.647 160.663 108.215 160.341C108.796 160.005 109.247 159.534 109.57 158.928C109.893 158.321 110.054 157.631 110.054 156.857C110.054 156.083 109.893 155.392 109.57 154.786C109.247 154.18 108.796 153.715 108.215 153.392C107.647 153.057 107.002 152.889 106.28 152.889C105.557 152.889 104.905 153.057 104.325 153.392C103.757 153.715 103.306 154.18 102.97 154.786C102.647 155.392 102.486 156.083 102.486 156.857C102.486 157.631 102.647 158.321 102.97 158.928C103.306 159.534 103.757 160.005 104.325 160.341C104.905 160.663 105.557 160.825 106.28 160.825ZM129.15 155.173H130.525V160.341C129.892 160.896 129.144 161.321 128.279 161.618C127.415 161.915 126.505 162.063 125.55 162.063C124.196 162.063 122.976 161.767 121.892 161.173C120.809 160.579 119.957 159.76 119.338 158.715C118.718 157.657 118.409 156.476 118.409 155.173C118.409 153.87 118.718 152.696 119.338 151.651C119.957 150.593 120.809 149.767 121.892 149.173C122.976 148.58 124.202 148.283 125.57 148.283C126.602 148.283 127.55 148.451 128.415 148.786C129.279 149.109 130.008 149.593 130.602 150.238L129.712 151.147C128.641 150.089 127.279 149.56 125.628 149.56C124.531 149.56 123.538 149.805 122.647 150.296C121.77 150.773 121.08 151.444 120.576 152.309C120.073 153.16 119.821 154.115 119.821 155.173C119.821 156.231 120.073 157.186 120.576 158.038C121.08 158.889 121.77 159.56 122.647 160.05C123.525 160.541 124.512 160.786 125.608 160.786C127.002 160.786 128.183 160.437 129.15 159.741V155.173ZM135.604 153.76C135.926 153.076 136.404 152.56 137.036 152.212C137.681 151.863 138.475 151.689 139.417 151.689V153.025L139.088 153.005C138.017 153.005 137.178 153.334 136.572 153.992C135.965 154.65 135.662 155.573 135.662 156.76V161.947H134.288V151.767H135.604V153.76ZM145.447 151.689C146.776 151.689 147.795 152.025 148.505 152.696C149.215 153.354 149.57 154.334 149.57 155.638V161.947H148.254V160.36C147.944 160.889 147.486 161.302 146.879 161.599C146.286 161.896 145.576 162.044 144.75 162.044C143.615 162.044 142.712 161.773 142.041 161.231C141.37 160.689 141.034 159.973 141.034 159.083C141.034 158.218 141.344 157.521 141.963 156.992C142.596 156.463 143.596 156.199 144.963 156.199H148.195V155.58C148.195 154.702 147.95 154.038 147.46 153.586C146.97 153.121 146.254 152.889 145.312 152.889C144.666 152.889 144.047 152.999 143.454 153.218C142.86 153.425 142.35 153.715 141.925 154.089L141.305 153.063C141.821 152.625 142.441 152.289 143.163 152.057C143.886 151.812 144.647 151.689 145.447 151.689ZM144.963 160.96C145.737 160.96 146.402 160.786 146.957 160.437C147.512 160.076 147.925 159.56 148.195 158.889V157.225H145.002C143.26 157.225 142.389 157.831 142.389 159.044C142.389 159.638 142.615 160.108 143.067 160.457C143.518 160.792 144.15 160.96 144.963 160.96ZM146.879 147.78H148.718L145.583 150.18H144.228L146.879 147.78ZM156.67 148.651C156.076 148.651 155.625 148.812 155.315 149.134C155.018 149.457 154.87 149.934 154.87 150.567V151.767H158.005V152.928H154.908V161.947H153.534V152.928H151.715V151.767H153.534V150.509C153.534 149.58 153.799 148.844 154.328 148.302C154.87 147.76 155.631 147.489 156.612 147.489C156.999 147.489 157.373 147.547 157.734 147.664C158.095 147.767 158.399 147.922 158.644 148.128L158.179 149.154C157.779 148.818 157.276 148.651 156.67 148.651ZM161.412 151.767H162.786V161.947H161.412V151.767ZM162.108 149.541C161.824 149.541 161.586 149.444 161.392 149.251C161.199 149.057 161.102 148.825 161.102 148.554C161.102 148.296 161.199 148.07 161.392 147.876C161.586 147.683 161.824 147.586 162.108 147.586C162.392 147.586 162.631 147.683 162.824 147.876C163.018 148.057 163.115 148.276 163.115 148.534C163.115 148.818 163.018 149.057 162.824 149.251C162.631 149.444 162.392 149.541 162.108 149.541ZM170.846 162.044C169.84 162.044 168.937 161.825 168.137 161.386C167.35 160.947 166.73 160.334 166.279 159.547C165.827 158.747 165.601 157.85 165.601 156.857C165.601 155.863 165.827 154.973 166.279 154.186C166.73 153.399 167.35 152.786 168.137 152.347C168.937 151.909 169.84 151.689 170.846 151.689C171.724 151.689 172.504 151.863 173.188 152.212C173.885 152.547 174.433 153.044 174.833 153.702L173.808 154.399C173.472 153.896 173.046 153.521 172.53 153.276C172.014 153.018 171.453 152.889 170.846 152.889C170.111 152.889 169.446 153.057 168.853 153.392C168.272 153.715 167.814 154.18 167.479 154.786C167.156 155.392 166.995 156.083 166.995 156.857C166.995 157.644 167.156 158.341 167.479 158.947C167.814 159.541 168.272 160.005 168.853 160.341C169.446 160.663 170.111 160.825 170.846 160.825C171.453 160.825 172.014 160.702 172.53 160.457C173.046 160.212 173.472 159.838 173.808 159.334L174.833 160.031C174.433 160.689 173.885 161.192 173.188 161.541C172.492 161.876 171.711 162.044 170.846 162.044ZM181.524 162.044C180.543 162.044 179.66 161.825 178.872 161.386C178.085 160.934 177.466 160.315 177.014 159.528C176.563 158.741 176.337 157.85 176.337 156.857C176.337 155.863 176.563 154.973 177.014 154.186C177.466 153.399 178.085 152.786 178.872 152.347C179.66 151.909 180.543 151.689 181.524 151.689C182.505 151.689 183.389 151.909 184.176 152.347C184.963 152.786 185.576 153.399 186.014 154.186C186.466 154.973 186.692 155.863 186.692 156.857C186.692 157.85 186.466 158.741 186.014 159.528C185.576 160.315 184.963 160.934 184.176 161.386C183.389 161.825 182.505 162.044 181.524 162.044ZM181.524 160.825C182.247 160.825 182.892 160.663 183.46 160.341C184.04 160.005 184.492 159.534 184.814 158.928C185.137 158.321 185.298 157.631 185.298 156.857C185.298 156.083 185.137 155.392 184.814 154.786C184.492 154.18 184.04 153.715 183.46 153.392C182.892 153.057 182.247 152.889 181.524 152.889C180.801 152.889 180.15 153.057 179.569 153.392C179.002 153.715 178.55 154.18 178.214 154.786C177.892 155.392 177.731 156.083 177.731 156.857C177.731 157.631 177.892 158.321 178.214 158.928C178.55 159.534 179.002 160.005 179.569 160.341C180.15 160.663 180.801 160.825 181.524 160.825Z" fill="white"/>
</svg>
