<svg width="645" height="343" viewBox="0 0 645 343" fill="none" xmlns="http://www.w3.org/2000/svg">
<rect x="0.5" y="0.5" width="644" height="342" rx="12.5" fill="#F7F7F7" stroke="#EAEAEA"/>
<path d="M56 42.5H590C596.904 42.5 602.5 48.0964 602.5 55V59C602.5 65.9036 596.904 71.5 590 71.5H56C49.0964 71.5 43.5 65.9036 43.5 59V55C43.5 48.0964 49.0964 42.5 56 42.5Z" fill="#FBFBFB" stroke="#EAEAEA"/>
<path d="M13 0.5H632C638.904 0.5 644.5 6.09644 644.5 13V33.5H0.5V13C0.5 6.09644 6.09644 0.5 13 0.5Z" fill="#EAEAEA" stroke="#EAEAEA"/>
<circle cx="613" cy="17" r="7" fill="#FF9797"/>
<circle cx="591" cy="17" r="7" fill="#E8DB6A"/>
<circle cx="569" cy="17" r="7" fill="#7AEC85"/>
<circle cx="616.5" cy="49.5" r="1.5" fill="#C4C4C4"/>
<circle cx="616.5" cy="56.5" r="1.5" fill="#C4C4C4"/>
<circle cx="616.5" cy="63.5" r="1.5" fill="#C4C4C4"/>
<path opacity="0.4" d="M30 58.742L22 52.532L14 58.742V56.21L22 50L30 56.21V58.742ZM28 58.516V64.516H24V60.516H20V64.516H16V58.516L22 54.016L28 58.516Z" fill="#BEBEBE"/>
<path fill-rule="evenodd" clip-rule="evenodd" d="M254.724 223.952H236.836V247H195.64V223.952H132V196.476L187.957 118.6H232.931L198.173 168.48H236.836V188.948H253.806C253.694 186.937 253.638 184.887 253.638 182.8C253.638 169.39 255.951 157.596 260.733 147.542L260.738 147.533L260.742 147.523C265.62 137.402 272.415 129.559 281.172 124.18C289.888 118.826 299.799 116.192 310.786 116.192C321.666 116.192 331.518 118.83 340.227 124.18C348.986 129.56 355.727 137.407 360.49 147.533C365.39 157.59 367.762 169.388 367.762 182.8C367.762 196.221 365.387 208.073 360.49 218.239C355.722 228.259 348.979 236.044 340.227 241.42C331.518 246.77 321.666 249.408 310.786 249.408C299.799 249.408 289.888 246.774 281.172 241.42C272.428 236.049 265.632 228.273 260.751 218.266L260.738 218.239L260.725 218.213C257.833 212.057 255.843 205.281 254.724 197.913V223.952ZM356.882 216.512C361.468 206.995 363.762 195.757 363.762 182.8C363.762 169.843 361.468 158.663 356.882 149.26C352.41 139.743 346.16 132.519 338.134 127.588C330.107 122.657 320.991 120.192 310.786 120.192C300.466 120.192 291.292 122.657 283.266 127.588C275.239 132.519 268.932 139.743 264.346 149.26C259.874 158.663 257.638 169.843 257.638 182.8C257.638 195.757 259.874 206.995 264.346 216.512C268.932 225.915 275.239 233.081 283.266 238.012C291.292 242.943 300.466 245.408 310.786 245.408C320.991 245.408 330.107 242.943 338.134 238.012C346.16 233.081 352.41 225.915 356.882 216.512ZM232.836 192.948V172.48H200.672V192.948H176.248L225.268 122.6H190.008L136 197.764V219.952H199.64V243H232.836V219.952H250.724V192.948H232.836ZM183.911 188.948H196.672V170.634L183.911 188.948ZM320.956 207.209L320.962 207.199C323.814 202.541 325.534 194.625 325.534 182.8C325.534 170.964 323.81 163.13 320.982 158.604L320.956 158.563L320.931 158.521C318.207 153.917 314.886 152.056 310.786 152.056C306.531 152.056 303.093 153.959 300.272 158.561C297.532 163.103 295.866 170.959 295.866 182.8C295.866 194.603 297.52 202.531 300.272 207.21C303.072 211.667 306.501 213.544 310.786 213.544C314.926 213.544 318.244 211.699 320.95 207.22L320.956 207.209ZM492.904 223.952H475.016V247H433.82V223.952H370.18V196.476L426.136 118.6H471.11L436.353 168.48H475.016V188.948H492.904V223.952ZM471.016 192.948V172.48H438.852V192.948H414.428L463.448 122.6H428.188L374.18 197.764V219.952H437.82V243H471.016V219.952H488.904V192.948H471.016ZM422.09 188.948H434.852V170.634L422.09 188.948ZM324.374 209.288C321.048 214.792 316.519 217.544 310.786 217.544C304.938 217.544 300.294 214.792 296.854 209.288C293.528 203.669 291.866 194.84 291.866 182.8C291.866 170.76 293.528 161.988 296.854 156.484C300.294 150.865 304.938 148.056 310.786 148.056C316.519 148.056 321.048 150.865 324.374 156.484C327.814 161.988 329.534 170.76 329.534 182.8C329.534 194.84 327.814 203.669 324.374 209.288Z" fill="#51BFEA"/>
<path d="M206.696 282.46C206.96 282.46 207.182 282.55 207.362 282.73C207.542 282.91 207.632 283.132 207.632 283.396C207.632 283.648 207.542 283.864 207.362 284.044C207.182 284.224 206.96 284.314 206.696 284.314C206.432 284.314 206.204 284.224 206.012 284.044C205.832 283.864 205.742 283.648 205.742 283.396C205.742 283.132 205.832 282.91 206.012 282.73C206.204 282.55 206.432 282.46 206.696 282.46ZM207.452 294.772H205.94L206.192 286.33H207.182L207.452 294.772Z" fill="#A4A4A4"/>
<path d="M219.994 290.848V292H211.084V279.4H219.724V280.552H212.416V285.034H218.932V286.168H212.416V290.848H219.994Z" fill="#A4A4A4"/>
<path d="M231.729 292L228.849 287.95C228.525 287.986 228.189 288.004 227.841 288.004H224.457V292H223.125V279.4H227.841C229.449 279.4 230.709 279.784 231.621 280.552C232.533 281.32 232.989 282.376 232.989 283.72C232.989 284.704 232.737 285.538 232.233 286.222C231.741 286.894 231.033 287.38 230.109 287.68L233.187 292H231.729ZM227.805 286.87C229.053 286.87 230.007 286.594 230.667 286.042C231.327 285.49 231.657 284.716 231.657 283.72C231.657 282.7 231.327 281.92 230.667 281.38C230.007 280.828 229.053 280.552 227.805 280.552H224.457V286.87H227.805Z" fill="#A4A4A4"/>
<path d="M244.737 292L241.857 287.95C241.533 287.986 241.197 288.004 240.849 288.004H237.465V292H236.133V279.4H240.849C242.457 279.4 243.717 279.784 244.629 280.552C245.541 281.32 245.997 282.376 245.997 283.72C245.997 284.704 245.745 285.538 245.241 286.222C244.749 286.894 244.041 287.38 243.117 287.68L246.195 292H244.737ZM240.813 286.87C242.061 286.87 243.015 286.594 243.675 286.042C244.335 285.49 244.665 284.716 244.665 283.72C244.665 282.7 244.335 281.92 243.675 281.38C243.015 280.828 242.061 280.552 240.813 280.552H237.465V286.87H240.813Z" fill="#A4A4A4"/>
<path d="M254.649 292.108C253.401 292.108 252.267 291.832 251.247 291.28C250.239 290.716 249.447 289.948 248.871 288.976C248.307 288.004 248.025 286.912 248.025 285.7C248.025 284.488 248.307 283.396 248.871 282.424C249.447 281.452 250.239 280.69 251.247 280.138C252.267 279.574 253.401 279.292 254.649 279.292C255.897 279.292 257.019 279.568 258.015 280.12C259.023 280.672 259.815 281.44 260.391 282.424C260.967 283.396 261.255 284.488 261.255 285.7C261.255 286.912 260.967 288.01 260.391 288.994C259.815 289.966 259.023 290.728 258.015 291.28C257.019 291.832 255.897 292.108 254.649 292.108ZM254.649 290.92C255.645 290.92 256.545 290.698 257.349 290.254C258.153 289.798 258.783 289.174 259.239 288.382C259.695 287.578 259.923 286.684 259.923 285.7C259.923 284.716 259.695 283.828 259.239 283.036C258.783 282.232 258.153 281.608 257.349 281.164C256.545 280.708 255.645 280.48 254.649 280.48C253.653 280.48 252.747 280.708 251.931 281.164C251.127 281.608 250.491 282.232 250.023 283.036C249.567 283.828 249.339 284.716 249.339 285.7C249.339 286.684 249.567 287.578 250.023 288.382C250.491 289.174 251.127 289.798 251.931 290.254C252.747 290.698 253.653 290.92 254.649 290.92Z" fill="#A4A4A4"/>
<path d="M272.844 292L269.964 287.95C269.64 287.986 269.304 288.004 268.956 288.004H265.572V292H264.24V279.4H268.956C270.564 279.4 271.824 279.784 272.736 280.552C273.648 281.32 274.104 282.376 274.104 283.72C274.104 284.704 273.852 285.538 273.348 286.222C272.856 286.894 272.148 287.38 271.224 287.68L274.302 292H272.844ZM268.92 286.87C270.168 286.87 271.122 286.594 271.782 286.042C272.442 285.49 272.772 284.716 272.772 283.72C272.772 282.7 272.442 281.92 271.782 281.38C271.122 280.828 270.168 280.552 268.92 280.552H265.572V286.87H268.92Z" fill="#A4A4A4"/>
<path d="M276.78 279.4H278.292L278.022 288.22H277.032L276.78 279.4ZM277.536 292.09C277.272 292.09 277.044 292 276.852 291.82C276.672 291.628 276.582 291.406 276.582 291.154C276.582 290.89 276.672 290.674 276.852 290.506C277.032 290.326 277.26 290.236 277.536 290.236C277.8 290.236 278.022 290.326 278.202 290.506C278.382 290.674 278.472 290.89 278.472 291.154C278.472 291.406 278.382 291.628 278.202 291.82C278.022 292 277.8 292.09 277.536 292.09Z" fill="#A4A4A4"/>
<path d="M291.351 279.4C292.959 279.4 294.219 279.784 295.131 280.552C296.043 281.32 296.499 282.376 296.499 283.72C296.499 285.064 296.043 286.12 295.131 286.888C294.219 287.644 292.959 288.022 291.351 288.022H287.967V292H286.635V279.4H291.351ZM291.315 286.852C292.563 286.852 293.517 286.582 294.177 286.042C294.837 285.49 295.167 284.716 295.167 283.72C295.167 282.7 294.837 281.92 294.177 281.38C293.517 280.828 292.563 280.552 291.315 280.552H287.967V286.852H291.315Z" fill="#A4A4A4"/>
<path d="M306.648 288.634H299.628L298.116 292H296.73L302.49 279.4H303.804L309.564 292H308.16L306.648 288.634ZM306.162 287.554L303.138 280.786L300.114 287.554H306.162Z" fill="#A4A4A4"/>
<path d="M320.347 285.7H321.625V290.506C321.037 291.022 320.341 291.418 319.537 291.694C318.733 291.97 317.887 292.108 316.999 292.108C315.739 292.108 314.605 291.832 313.597 291.28C312.589 290.728 311.797 289.966 311.221 288.994C310.645 288.01 310.357 286.912 310.357 285.7C310.357 284.488 310.645 283.396 311.221 282.424C311.797 281.44 312.589 280.672 313.597 280.12C314.605 279.568 315.745 279.292 317.017 279.292C317.977 279.292 318.859 279.448 319.663 279.76C320.467 280.06 321.145 280.51 321.697 281.11L320.869 281.956C319.873 280.972 318.607 280.48 317.071 280.48C316.051 280.48 315.127 280.708 314.299 281.164C313.483 281.608 312.841 282.232 312.373 283.036C311.905 283.828 311.671 284.716 311.671 285.7C311.671 286.684 311.905 287.572 312.373 288.364C312.841 289.156 313.483 289.78 314.299 290.236C315.115 290.692 316.033 290.92 317.053 290.92C318.349 290.92 319.447 290.596 320.347 289.948V285.7Z" fill="#A4A4A4"/>
<path d="M325.395 279.4H326.727V292H325.395V279.4Z" fill="#A4A4A4"/>
<path d="M341.356 279.4V292H340.258L332.158 281.776V292H330.826V279.4H331.924L340.042 289.624V279.4H341.356Z" fill="#A4A4A4"/>
<path d="M353.371 288.634H346.351L344.839 292H343.453L349.213 279.4H350.527L356.287 292H354.883L353.371 288.634ZM352.885 287.554L349.861 280.786L346.837 287.554H352.885Z" fill="#A4A4A4"/>
<path d="M373.612 279.4V292H372.514L364.414 281.776V292H363.082V279.4H364.18L372.298 289.624V279.4H373.612Z" fill="#A4A4A4"/>
<path d="M383.233 292.108C381.985 292.108 380.851 291.832 379.831 291.28C378.823 290.716 378.031 289.948 377.455 288.976C376.891 288.004 376.609 286.912 376.609 285.7C376.609 284.488 376.891 283.396 377.455 282.424C378.031 281.452 378.823 280.69 379.831 280.138C380.851 279.574 381.985 279.292 383.233 279.292C384.481 279.292 385.603 279.568 386.599 280.12C387.607 280.672 388.399 281.44 388.975 282.424C389.551 283.396 389.839 284.488 389.839 285.7C389.839 286.912 389.551 288.01 388.975 288.994C388.399 289.966 387.607 290.728 386.599 291.28C385.603 291.832 384.481 292.108 383.233 292.108ZM383.233 290.92C384.229 290.92 385.129 290.698 385.933 290.254C386.737 289.798 387.367 289.174 387.823 288.382C388.279 287.578 388.507 286.684 388.507 285.7C388.507 284.716 388.279 283.828 387.823 283.036C387.367 282.232 386.737 281.608 385.933 281.164C385.129 280.708 384.229 280.48 383.233 280.48C382.237 280.48 381.331 280.708 380.515 281.164C379.711 281.608 379.075 282.232 378.607 283.036C378.151 283.828 377.923 284.716 377.923 285.7C377.923 286.684 378.151 287.578 378.607 288.382C379.075 289.174 379.711 289.798 380.515 290.254C381.331 290.698 382.237 290.92 383.233 290.92Z" fill="#A4A4A4"/>
<path d="M406.445 290.848V292H397.535V279.4H406.175V280.552H398.867V285.034H405.383V286.168H398.867V290.848H406.445Z" fill="#A4A4A4"/>
<path d="M420.106 279.4V292H419.008L410.908 281.776V292H409.576V279.4H410.674L418.792 289.624V279.4H420.106Z" fill="#A4A4A4"/>
<path d="M429.691 292.108C428.443 292.108 427.315 291.832 426.307 291.28C425.311 290.728 424.525 289.966 423.949 288.994C423.385 288.01 423.103 286.912 423.103 285.7C423.103 284.488 423.385 283.396 423.949 282.424C424.525 281.44 425.317 280.672 426.325 280.12C427.333 279.568 428.461 279.292 429.709 279.292C430.645 279.292 431.509 279.448 432.301 279.76C433.093 280.072 433.765 280.528 434.317 281.128L433.471 281.974C432.487 280.978 431.245 280.48 429.745 280.48C428.749 280.48 427.843 280.708 427.027 281.164C426.211 281.62 425.569 282.244 425.101 283.036C424.645 283.828 424.417 284.716 424.417 285.7C424.417 286.684 424.645 287.572 425.101 288.364C425.569 289.156 426.211 289.78 427.027 290.236C427.843 290.692 428.749 290.92 429.745 290.92C431.257 290.92 432.499 290.416 433.471 289.408L434.317 290.254C433.765 290.854 433.087 291.316 432.283 291.64C431.491 291.952 430.627 292.108 429.691 292.108Z" fill="#A4A4A4"/>
<path d="M442.401 292.108C441.153 292.108 440.019 291.832 438.999 291.28C437.991 290.716 437.199 289.948 436.623 288.976C436.059 288.004 435.777 286.912 435.777 285.7C435.777 284.488 436.059 283.396 436.623 282.424C437.199 281.452 437.991 280.69 438.999 280.138C440.019 279.574 441.153 279.292 442.401 279.292C443.649 279.292 444.771 279.568 445.767 280.12C446.775 280.672 447.567 281.44 448.143 282.424C448.719 283.396 449.007 284.488 449.007 285.7C449.007 286.912 448.719 288.01 448.143 288.994C447.567 289.966 446.775 290.728 445.767 291.28C444.771 291.832 443.649 292.108 442.401 292.108ZM442.401 290.92C443.397 290.92 444.297 290.698 445.101 290.254C445.905 289.798 446.535 289.174 446.991 288.382C447.447 287.578 447.675 286.684 447.675 285.7C447.675 284.716 447.447 283.828 446.991 283.036C446.535 282.232 445.905 281.608 445.101 281.164C444.297 280.708 443.397 280.48 442.401 280.48C441.405 280.48 440.499 280.708 439.683 281.164C438.879 281.608 438.243 282.232 437.775 283.036C437.319 283.828 437.091 284.716 437.091 285.7C437.091 286.684 437.319 287.578 437.775 288.382C438.243 289.174 438.879 289.798 439.683 290.254C440.499 290.698 441.405 290.92 442.401 290.92Z" fill="#A4A4A4"/>
<path d="M454.264 280.552H449.836V279.4H460.024V280.552H455.596V292H454.264V280.552Z" fill="#A4A4A4"/>
<path d="M470.756 292L467.876 287.95C467.552 287.986 467.216 288.004 466.868 288.004H463.484V292H462.152V279.4H466.868C468.476 279.4 469.736 279.784 470.648 280.552C471.56 281.32 472.016 282.376 472.016 283.72C472.016 284.704 471.764 285.538 471.26 286.222C470.768 286.894 470.06 287.38 469.136 287.68L472.214 292H470.756ZM466.832 286.87C468.08 286.87 469.034 286.594 469.694 286.042C470.354 285.49 470.684 284.716 470.684 283.72C470.684 282.7 470.354 281.92 469.694 281.38C469.034 280.828 468.08 280.552 466.832 280.552H463.484V286.87H466.832Z" fill="#A4A4A4"/>
<path d="M483.062 288.634H476.042L474.53 292H473.144L478.904 279.4H480.218L485.978 292H484.574L483.062 288.634ZM482.576 287.554L479.552 280.786L476.528 287.554H482.576Z" fill="#A4A4A4"/>
<path d="M488.062 279.4H493.193C494.525 279.4 495.7 279.67 496.72 280.21C497.74 280.738 498.532 281.482 499.096 282.442C499.66 283.39 499.943 284.476 499.943 285.7C499.943 286.924 499.66 288.016 499.096 288.976C498.532 289.924 497.74 290.668 496.72 291.208C495.7 291.736 494.525 292 493.193 292H488.062V279.4ZM493.12 290.848C494.224 290.848 495.19 290.632 496.018 290.2C496.846 289.756 497.488 289.15 497.944 288.382C498.4 287.602 498.629 286.708 498.629 285.7C498.629 284.692 498.4 283.804 497.944 283.036C497.488 282.256 496.846 281.65 496.018 281.218C495.19 280.774 494.224 280.552 493.12 280.552H489.395V290.848H493.12Z" fill="#A4A4A4"/>
<path d="M510.66 288.634H503.64L502.128 292H500.742L506.502 279.4H507.816L513.576 292H512.172L510.66 288.634ZM510.174 287.554L507.15 280.786L504.126 287.554H510.174Z" fill="#A4A4A4"/>
<path d="M172.993 296.929C172.766 296.889 172.564 296.761 172.431 296.573C170.428 293.73 168.556 292.412 166.934 291.93C165.311 291.448 163.868 291.759 162.566 292.424C159.962 293.753 158.17 296.535 158.17 296.535C158.109 296.631 158.03 296.715 157.937 296.781C157.843 296.848 157.738 296.895 157.627 296.92C157.515 296.946 157.4 296.949 157.287 296.93C157.174 296.911 157.067 296.87 156.97 296.809C156.873 296.748 156.789 296.669 156.723 296.576C156.656 296.483 156.609 296.377 156.584 296.266C156.558 296.155 156.555 296.039 156.574 295.926C156.593 295.814 156.634 295.706 156.695 295.609C156.695 295.609 158.602 292.494 161.775 290.874C163.362 290.064 165.326 289.637 167.429 290.261C169.531 290.885 171.701 292.516 173.853 295.57C173.986 295.759 174.039 295.993 173.999 296.22C173.96 296.447 173.832 296.65 173.643 296.783C173.55 296.849 173.444 296.896 173.333 296.921C173.221 296.946 173.106 296.949 172.993 296.929V296.929Z" fill="#616161"/>
<path d="M157.456 283.071C157.456 286.114 154.988 288.582 151.945 288.582C148.901 288.582 146.434 286.114 146.434 283.071C146.434 280.027 148.901 277.56 151.945 277.56C154.988 277.56 157.456 280.027 157.456 283.071Z" fill="#616161"/>
<path d="M184.141 283.071C184.141 286.114 181.673 288.582 178.63 288.582C175.586 288.582 173.119 286.114 173.119 283.071C173.119 280.027 175.586 277.56 178.63 277.56C181.673 277.56 184.141 280.027 184.141 283.071Z" fill="#616161"/>
<path d="M154.652 280.436C154.652 281.184 154.046 281.789 153.298 281.789C152.55 281.789 151.945 281.184 151.945 280.436C151.945 279.688 152.55 279.082 153.298 279.082C154.046 279.082 154.652 279.688 154.652 280.436Z" fill="white"/>
<path d="M181.337 280.436C181.337 281.184 180.731 281.789 179.983 281.789C179.236 281.789 178.63 281.184 178.63 280.436C178.63 279.688 179.236 279.082 179.983 279.082C180.731 279.082 181.337 279.688 181.337 280.436Z" fill="white"/>
<path d="M144.416 278.895C144.191 278.945 143.955 278.904 143.76 278.78C143.566 278.657 143.428 278.461 143.377 278.236C143.352 278.125 143.349 278.009 143.369 277.897C143.388 277.784 143.43 277.676 143.491 277.58C143.552 277.483 143.632 277.399 143.726 277.334C143.819 277.268 143.925 277.221 144.037 277.196C149.028 276.079 150.025 271.971 150.025 271.971C150.083 271.747 150.228 271.557 150.427 271.44C150.626 271.323 150.863 271.29 151.086 271.349C151.197 271.378 151.301 271.428 151.392 271.497C151.483 271.566 151.56 271.652 151.618 271.751C151.675 271.85 151.713 271.959 151.729 272.072C151.744 272.186 151.737 272.301 151.708 272.411C151.708 272.411 150.276 277.583 144.416 278.895V278.895Z" fill="#616161"/>
<path d="M186.241 278.895C180.38 277.583 178.948 272.411 178.948 272.411C178.919 272.301 178.912 272.186 178.928 272.072C178.944 271.959 178.981 271.85 179.039 271.751C179.097 271.652 179.174 271.566 179.265 271.497C179.356 271.428 179.46 271.378 179.57 271.349C179.794 271.29 180.031 271.323 180.23 271.44C180.429 271.557 180.574 271.747 180.632 271.971C180.632 271.971 181.628 276.079 186.62 277.196C186.732 277.221 186.837 277.268 186.931 277.334C187.025 277.399 187.104 277.483 187.165 277.58C187.227 277.676 187.268 277.784 187.288 277.897C187.307 278.009 187.305 278.125 187.28 278.236C187.229 278.461 187.091 278.657 186.896 278.78C186.701 278.904 186.466 278.945 186.241 278.895V278.895Z" fill="#616161"/>
<path d="M183.516 285.618C183.516 285.618 177.491 291.721 178.63 296.748C179.769 301.776 183.516 301.679 183.516 301.679C183.516 301.679 187.264 301.776 188.403 296.748C189.541 291.721 183.516 285.618 183.516 285.618Z" fill="#00B8D4"/>
</svg>
