<svg width="77" height="77" viewBox="0 0 77 77" fill="none" xmlns="http://www.w3.org/2000/svg">
<circle cx="38.5" cy="38.5" r="38" fill="#2F2F2F" stroke="url(#paint0_linear_303:3120)"/>
<path fill-rule="evenodd" clip-rule="evenodd" d="M38.5 70C55.897 70 70 55.897 70 38.5C70 21.103 55.897 7 38.5 7C21.103 7 7 21.103 7 38.5C7 55.897 21.103 70 38.5 70ZM38.5 77C59.763 77 77 59.763 77 38.5C77 17.237 59.763 0 38.5 0C17.237 0 0 17.237 0 38.5C0 59.763 17.237 77 38.5 77Z" fill="#15B1F1"/>
<path d="M31.1462 60C35.0909 60 38.2924 56.7893 38.2924 52.8333V45.6667H31.1462C27.2015 45.6667 24 48.8774 24 52.8333C24 56.7893 27.2015 60 31.1462 60Z" fill="#0ACF83"/>
<path d="M24 38.5C24 34.544 27.2015 31.3333 31.1462 31.3333H38.2924V45.6666H31.1462C27.2015 45.6666 24 42.456 24 38.5Z" fill="#A259FF"/>
<path d="M24 24.1667C24 20.2107 27.2015 17 31.1462 17H38.2924V31.3333H31.1462C27.2015 31.3333 24 28.1227 24 24.1667Z" fill="#F24E1E"/>
<path d="M38.2925 17H45.4387C49.3834 17 52.5848 20.2107 52.5848 24.1667C52.5848 28.1227 49.3834 31.3333 45.4387 31.3333H38.2925V17Z" fill="#FF7262"/>
<path d="M52.5848 38.5C52.5848 42.456 49.3834 45.6666 45.4387 45.6666C41.494 45.6666 38.2925 42.456 38.2925 38.5C38.2925 34.544 41.494 31.3333 45.4387 31.3333C49.3834 31.3333 52.5848 34.544 52.5848 38.5Z" fill="#1ABCFE"/>
<defs>
<linearGradient id="paint0_linear_303:3120" x1="38.5" y1="0" x2="38.5" y2="77" gradientUnits="userSpaceOnUse">
<stop stop-color="#1ABCFE"/>
<stop offset="1" stop-color="#0ACF83"/>
</linearGradient>
</defs>
</svg>
