<svg width="77" height="77" viewBox="0 0 77 77" fill="none" xmlns="http://www.w3.org/2000/svg">
<circle cx="38.5" cy="38.5" r="38.5" fill="white"/>
<path fill-rule="evenodd" clip-rule="evenodd" d="M38.5 70C55.897 70 70 55.897 70 38.5C70 21.103 55.897 7 38.5 7C21.103 7 7 21.103 7 38.5C7 55.897 21.103 70 38.5 70ZM38.5 77C59.763 77 77 59.763 77 38.5C77 17.237 59.763 0 38.5 0C17.237 0 0 17.237 0 38.5C0 59.763 17.237 77 38.5 77Z" fill="#404040"/>
<path d="M21.6245 37.632L36.8165 28.452V33.564L28.6445 38.676L36.8165 43.572V48.972L21.6245 39.972V37.632Z" fill="#404040"/>
<path d="M56.3879 39.972L41.1959 48.972V43.572L49.3679 38.676L41.1959 33.564V28.452L56.3879 37.632V39.972Z" fill="#404040"/>
</svg>
