<svg width="77" height="77" viewBox="0 0 77 77" fill="none" xmlns="http://www.w3.org/2000/svg">
<circle cx="38.5" cy="38.5" r="38.5" fill="#803511"/>
<path fill-rule="evenodd" clip-rule="evenodd" d="M38.5 70C55.897 70 70 55.897 70 38.5C70 21.103 55.897 7 38.5 7C21.103 7 7 21.103 7 38.5C7 55.897 21.103 70 38.5 70ZM38.5 77C59.763 77 77 59.763 77 38.5C77 17.237 59.763 0 38.5 0C17.237 0 0 17.237 0 38.5C0 59.763 17.237 77 38.5 77Z" fill="#FFCB08"/>
<path d="M30.9305 24.44H35.9705L45.3665 50H40.2545L37.8785 43.628H28.9505L26.6105 50H21.4985L30.9305 24.44ZM36.9785 40.136L33.4505 29.588L29.7785 40.136H36.9785Z" fill="#FFCB08"/>
<path d="M47.702 28.508V23.72H52.526V28.508H47.702ZM47.702 50V31.136H52.526V50H47.702Z" fill="#FFCB08"/>
</svg>
