<svg width="77" height="77" viewBox="0 0 77 77" fill="none" xmlns="http://www.w3.org/2000/svg">
<circle cx="38.5" cy="38.5" r="38.5" fill="#801336"/>
<path fill-rule="evenodd" clip-rule="evenodd" d="M38.5 70C55.897 70 70 55.897 70 38.5C70 21.103 55.897 7 38.5 7C21.103 7 7 21.103 7 38.5C7 55.897 21.103 70 38.5 70ZM38.5 77C59.763 77 77 59.763 77 38.5C77 17.237 59.763 0 38.5 0C17.237 0 0 17.237 0 38.5C0 59.763 17.237 77 38.5 77Z" fill="#E7357F"/>
<path d="M24.0527 50V24.44H29.0207V50H24.0527Z" fill="#E7357F"/>
<path d="M32.4523 40.568C32.4523 38.768 32.8123 37.124 33.5323 35.636C34.2523 34.148 35.2483 32.972 36.5203 32.108C37.7923 31.244 39.2443 30.812 40.8763 30.812C42.2683 30.812 43.5163 31.16 44.6203 31.856C45.7483 32.528 46.6243 33.392 47.2483 34.448V23.72H52.0723V44.6C52.0723 45.128 52.1563 45.5 52.3243 45.716C52.4923 45.908 52.7803 46.028 53.1883 46.076V50C52.3243 50.168 51.6403 50.252 51.1363 50.252C50.2723 50.252 49.5523 50.036 48.9763 49.604C48.4243 49.172 48.1123 48.608 48.0403 47.912L47.9683 46.724C47.2723 47.9 46.3243 48.8 45.1243 49.424C43.9483 50.048 42.7123 50.36 41.4163 50.36C39.6643 50.36 38.1163 49.928 36.7723 49.064C35.4283 48.176 34.3723 47 33.6043 45.536C32.8363 44.048 32.4523 42.392 32.4523 40.568ZM47.2483 43.088V38.588C46.8643 37.532 46.2043 36.656 45.2683 35.96C44.3323 35.264 43.3723 34.916 42.3883 34.916C41.4043 34.916 40.5403 35.192 39.7963 35.744C39.0523 36.272 38.4763 36.98 38.0683 37.868C37.6603 38.732 37.4563 39.668 37.4563 40.676C37.4563 41.708 37.6843 42.656 38.1403 43.52C38.5963 44.36 39.2083 45.032 39.9763 45.536C40.7683 46.016 41.6683 46.256 42.6763 46.256C43.5883 46.256 44.4883 45.956 45.3763 45.356C46.2883 44.756 46.9123 44 47.2483 43.088Z" fill="#E7357F"/>
</svg>
