<svg width="14" height="14" viewBox="0 0 14 14" fill="none" xmlns="http://www.w3.org/2000/svg">
<path d="M1.42792 7.04039C0.612747 7.83111 0.612747 9.10482 1.42792 9.89554L3.50967 11.9141C4.32484 12.7048 5.63931 12.7048 6.45448 11.9141L7.22075 11.1703C7.80665 10.6027 7.80869 9.69174 7.22991 9.12112L6.5574 9.77326C6.01327 10.3011 5.1064 10.3011 4.56227 9.77326L3.63602 8.87555C3.09189 8.34772 3.09087 7.46836 3.63602 6.93951L4.30854 6.28737C4.01507 6.00817 3.63602 5.86756 3.25595 5.86858C2.87282 5.86858 2.48765 6.01123 2.19419 6.29654L1.42792 7.04039Z" fill="#333333"/>
<path d="M6.35769 2.26139C5.7728 2.82794 5.76975 3.73991 6.34852 4.31053L7.02205 3.65737C7.56618 3.12955 8.47306 3.12956 9.01719 3.65738L9.94342 4.55509C10.4876 5.08291 10.4886 5.96228 9.94444 6.4901L9.27091 7.14326C9.85988 7.70369 10.7994 7.70165 11.3853 7.13408L12.1525 6.38921C12.9677 5.5985 12.9677 4.32481 12.1525 3.53409L10.0708 1.51551C9.66322 1.12015 9.13131 0.922478 8.59839 0.92146C8.06649 0.92146 7.53358 1.12014 7.12599 1.5155L6.35769 2.26139Z" fill="#FF2A7F"/>
<path d="M4.10778 7.39702L7.49176 4.11493C7.78217 3.83267 8.25497 3.83266 8.54537 4.11492L9.47162 5.01263C9.76203 5.29489 9.76203 5.75138 9.47162 6.03364L6.08763 9.31573C5.79722 9.59799 5.32442 9.59798 5.03402 9.31573L4.10778 8.41802C3.81737 8.13577 3.81737 7.67927 4.10778 7.39702Z" fill="#333333"/>
</svg>
