<svg width="77" height="77" viewBox="0 0 77 77" fill="none" xmlns="http://www.w3.org/2000/svg">
<circle cx="38.5" cy="38.5" r="38.5" fill="#154450"/>
<path fill-rule="evenodd" clip-rule="evenodd" d="M38.5 70C55.897 70 70 55.897 70 38.5C70 21.103 55.897 7 38.5 7C21.103 7 7 21.103 7 38.5C7 55.897 21.103 70 38.5 70ZM38.5 77C59.763 77 77 59.763 77 38.5C77 17.237 59.763 0 38.5 0C17.237 0 0 17.237 0 38.5C0 59.763 17.237 77 38.5 77Z" fill="#80C4D4"/>
<path d="M23.1914 49.9999V24.4399H28.1594V45.6439H41.1914V49.9999H23.1914Z" fill="#87CDDD"/>
<path d="M54.9788 35.3119C53.5148 35.3119 52.2068 35.5999 51.0548 36.1759C49.9028 36.7279 49.0748 37.5319 48.5708 38.5879V49.9999H43.7468V31.1359H48.1748V35.1679C48.8228 33.8719 49.6628 32.8519 50.6948 32.1079C51.7508 31.3639 52.8548 30.9559 54.0068 30.8839C54.5108 30.8839 54.8348 30.8959 54.9788 30.9199V35.3119Z" fill="#87CDDD"/>
</svg>
