<svg width="157" height="37" viewBox="0 0 157 37" fill="none" xmlns="http://www.w3.org/2000/svg">
<path d="M58.2732 3.59425H62.5771C63.5191 3.57523 64.4525 3.77618 65.3032 4.18114C66.0618 4.54398 66.6995 5.11809 67.1396 5.83453C67.5779 6.59052 67.7964 7.45379 67.7707 8.32723C67.7966 9.19869 67.578 10.06 67.1396 10.8136C66.6982 11.5306 66.061 12.1064 65.3032 12.4733C64.4525 12.8783 63.5191 13.0792 62.5771 13.0602H58.2732V3.59425ZM62.4761 11.2617C63.3065 11.3055 64.1207 11.0198 64.7416 10.4665C65.0269 10.1908 65.2499 9.85731 65.3958 9.48834C65.5416 9.11937 65.6069 8.72349 65.5872 8.32723C65.6062 7.93011 65.5406 7.53349 65.3948 7.16361C65.2491 6.79373 65.0264 6.45901 64.7416 6.18161C64.1197 5.63066 63.3057 5.34721 62.4761 5.39278H60.463V11.2617H62.4761Z" fill="#4E4E4E"/>
<path d="M75.5455 11.028H71.128L70.2887 13.0601H68.0421L72.2639 3.59412H74.4663L78.6945 13.0601H76.3595L75.5455 11.028ZM74.8576 9.36835L73.3557 5.73973L71.8537 9.36835H74.8576Z" fill="#4E4E4E"/>
<path d="M88.3497 3.59412V13.0601H86.5512L81.8308 7.31108V13.0601H79.6663V3.59412H81.4774L86.1852 9.33679V3.59412H88.3497Z" fill="#4E4E4E"/>
<path d="M90.6025 3.59412H92.7671V13.0601H90.5773L90.6025 3.59412Z" fill="#4E4E4E"/>
<path d="M102.366 11.2994V13.0601H95.0389V3.59412H102.189V5.34847H97.2161V7.40574H101.634V9.10961H97.2161V11.2994H102.366Z" fill="#4E4E4E"/>
<path d="M104.126 3.59412H106.316V11.2742H111.068V13.0601H104.126V3.59412Z" fill="#4E4E4E"/>
<path d="M60.1852 26.3884C59.4296 25.9922 58.7951 25.3991 58.3488 24.6719C57.9106 23.9027 57.6802 23.0328 57.6802 22.1476C57.6802 21.2624 57.9106 20.3925 58.3488 19.6233C58.7897 18.8854 59.425 18.2829 60.1852 17.8816C60.9953 17.4532 61.9005 17.2361 62.8168 17.2506C63.5815 17.2393 64.3402 17.3876 65.0444 17.686C65.695 17.9665 66.2686 18.3994 66.7167 18.9481L65.3095 20.2418C65.02 19.8907 64.6554 19.6092 64.2425 19.418C63.8296 19.2268 63.379 19.131 62.924 19.1374C62.3778 19.1281 61.8386 19.2607 61.359 19.5224C60.9058 19.7717 60.5319 20.1435 60.2799 20.5952C60.023 21.072 59.8906 21.606 59.8949 22.1476C59.8856 22.6938 60.0183 23.2331 60.2799 23.7126C60.5315 24.1663 60.9054 24.5402 61.359 24.7918C61.8386 25.0534 62.3778 25.186 62.924 25.1767C63.3818 25.1808 63.8344 25.0806 64.2477 24.8838C64.661 24.687 65.0241 24.3987 65.3095 24.0408L66.7167 25.3029C66.2668 25.8525 65.691 26.2854 65.0381 26.565C64.3315 26.8629 63.5709 27.0111 62.8041 27.0005C61.8936 27.0199 60.9928 26.8094 60.1852 26.3884Z" fill="#4E4E4E"/>
<path d="M69.9163 26.382C69.1475 25.9801 68.5052 25.3728 68.061 24.6276C67.6237 23.8639 67.3937 22.9992 67.3937 22.1191C67.3937 21.2391 67.6237 20.3744 68.061 19.6106C68.5056 18.8674 69.1479 18.2622 69.9163 17.8626C70.7381 17.4437 71.6475 17.2253 72.5699 17.2253C73.4924 17.2253 74.4017 17.4437 75.2235 17.8626C75.9952 18.272 76.639 18.8862 77.0843 19.6377C77.5296 20.3892 77.7592 21.2488 77.7478 22.1223C77.7642 23.0113 77.5279 23.8866 77.0663 24.6465C76.6209 25.3886 75.9816 25.9951 75.2172 26.4009C74.3954 26.8198 73.4861 27.0381 72.5636 27.0381C71.6412 27.0381 70.7318 26.8198 69.91 26.4009L69.9163 26.382ZM74.0876 24.7664C74.5331 24.5105 74.8998 24.1372 75.1478 23.6873C75.4114 23.2085 75.5442 22.6687 75.5328 22.1223C75.5432 21.5739 75.4105 21.0324 75.1478 20.5509C74.8994 20.1029 74.5326 19.7318 74.0876 19.4781C73.6256 19.2184 73.1031 19.0856 72.5731 19.0932C72.0429 19.0841 71.52 19.217 71.0585 19.4781C70.6102 19.7296 70.2409 20.1011 69.992 20.5509C69.7278 21.0409 69.5952 21.591 69.6071 22.1475C69.5978 22.6937 69.7304 23.233 69.992 23.7126C70.2407 24.1641 70.6099 24.5377 71.0585 24.7917C71.52 25.0528 72.0429 25.1857 72.5731 25.1766C73.1054 25.1765 73.628 25.0349 74.0876 24.7664Z" fill="#4E4E4E"/>
<path d="M79.4011 17.3893H81.5909V25.0693H86.3428V26.8552H79.4011V17.3893Z" fill="#4E4E4E"/>
<path d="M96.1874 26.8552V21.1757L93.3981 25.8518H92.4137L89.6117 21.2956V26.8552H87.5608V17.3893H89.3719L92.9122 23.2708L96.402 17.3893H98.2005L98.2321 26.8552H96.1874Z" fill="#4E4E4E"/>
<path d="M107.818 25.0946V26.8552H100.485V17.3893H107.641V19.1436H102.662V21.2009H107.08V22.9048H102.662V25.0946H107.818Z" fill="#4E4E4E"/>
<path d="M118.249 17.3893V26.8552H116.451L111.699 21.1062V26.8552H109.541V17.3893H111.352L116.116 23.1383V17.3893H118.249Z" fill="#4E4E4E"/>
<path d="M126.725 24.8295H122.307L121.468 26.8552H119.272L123.494 17.3893H125.658L129.893 26.8552H127.589L126.725 24.8295ZM126.037 23.1635L124.535 19.5412L123.058 23.1635H126.037Z" fill="#4E4E4E"/>
<path d="M136.885 26.8552L135.048 24.2174H133.029V26.8552H130.839V17.3893H134.941C135.69 17.3724 136.434 17.5144 137.124 17.8058C137.711 18.0503 138.212 18.4631 138.563 18.9922C138.906 19.5376 139.079 20.1722 139.062 20.816C139.088 21.4553 138.914 22.087 138.565 22.623C138.215 23.1591 137.707 23.573 137.112 23.8072L139.239 26.8489L136.885 26.8552ZM136.31 19.6232C135.875 19.3109 135.343 19.1613 134.808 19.2004H133.023V22.5009H134.808C135.345 22.5392 135.878 22.3848 136.31 22.0655C136.474 21.9071 136.605 21.7174 136.694 21.5076C136.783 21.2978 136.829 21.0723 136.829 20.8444C136.829 20.6164 136.783 20.3909 136.694 20.1811C136.605 19.9713 136.474 19.7816 136.31 19.6232Z" fill="#4E4E4E"/>
<path d="M148.124 25.0946V26.8552H140.791V17.3893H147.947V19.1436H142.968V21.2009H147.386V22.9048H142.968V25.0946H148.124Z" fill="#4E4E4E"/>
<path d="M150.825 26.7165C150.216 26.5618 149.64 26.2966 149.127 25.934L149.872 24.2869C150.311 24.6027 150.799 24.8436 151.317 25C151.859 25.1796 152.425 25.2712 152.996 25.2714C153.471 25.3054 153.947 25.2094 154.371 24.9937C154.506 24.9228 154.619 24.8166 154.698 24.6866C154.777 24.5565 154.819 24.4075 154.82 24.2553C154.821 24.1478 154.797 24.0414 154.751 23.9442C154.705 23.8469 154.638 23.7613 154.554 23.6937C154.354 23.5339 154.125 23.4139 153.879 23.3403C153.602 23.2456 153.248 23.151 152.762 23.0374C152.162 22.9019 151.57 22.7313 150.989 22.5262C150.532 22.3547 150.126 22.0703 149.809 21.6995C149.464 21.2723 149.289 20.7332 149.317 20.185C149.311 19.6534 149.464 19.1323 149.758 18.6894C150.1 18.2161 150.568 17.8486 151.109 17.6292C151.807 17.3511 152.554 17.2179 153.305 17.2379C153.903 17.2361 154.498 17.3082 155.078 17.4525C155.613 17.583 156.124 17.7959 156.593 18.0835L155.918 19.7432C155.122 19.2693 154.218 19.0105 153.292 18.9923C152.819 18.9572 152.345 19.0603 151.929 19.2889C151.795 19.3706 151.685 19.4856 151.608 19.6228C151.532 19.7599 151.493 19.9145 151.494 20.0714C151.493 20.2296 151.541 20.3841 151.632 20.5139C151.722 20.6438 151.85 20.7427 151.999 20.7971C152.5 21.0033 153.02 21.1597 153.551 21.2641C154.15 21.3994 154.74 21.5701 155.318 21.7753C155.775 21.941 156.183 22.2187 156.504 22.583C156.851 23.0043 157.027 23.5403 156.997 24.085C157 24.6122 156.842 25.1277 156.542 25.5616C156.202 26.0402 155.731 26.4105 155.186 26.6281C154.485 26.9056 153.736 27.0387 152.983 27.0194C152.253 27.0197 151.527 26.9177 150.825 26.7165Z" fill="#4E4E4E"/>
<path d="M61.725 33.4454C61.7407 33.2044 61.703 32.963 61.6147 32.7383C61.5263 32.5136 61.3895 32.3111 61.2138 32.1454C60.876 31.8827 60.4548 31.7505 60.0275 31.7731H59.3964V35.1808H59.7372C60.9993 35.1808 61.6682 34.6002 61.6682 33.4454H61.725ZM62.0721 33.4454C62.0756 33.7592 62.0155 34.0705 61.8954 34.3604C61.7837 34.6194 61.6155 34.8501 61.4032 35.0357C61.183 35.1923 60.9375 35.3097 60.6774 35.3828C60.3628 35.4677 60.0378 35.5081 59.7119 35.5027H59.144C59.0984 35.5141 59.0507 35.5141 59.0051 35.5027C59.0051 35.5027 59.0051 35.4459 59.0051 35.3638V31.6153C59.0051 31.5312 59.0051 31.487 59.0051 31.4828C59.0051 31.4828 59.0682 31.4828 59.144 31.4828H60.0148C60.303 31.461 60.5925 31.5003 60.8644 31.5982C61.1362 31.696 61.3844 31.8503 61.5925 32.0507C61.934 32.4618 62.1056 32.9878 62.0721 33.5211" fill="#4D4C4D"/>
<path d="M63.9212 35.4504C63.9212 35.5009 63.9212 35.5261 63.8391 35.5261H63.5741C63.5639 35.5271 63.5536 35.5258 63.544 35.5223C63.5344 35.5189 63.5256 35.5133 63.5184 35.5061C63.5111 35.4988 63.5056 35.4901 63.5021 35.4805C63.4987 35.4708 63.4974 35.4606 63.4984 35.4504V31.5062C63.4974 31.496 63.4987 31.4858 63.5021 31.4761C63.5056 31.4665 63.5111 31.4577 63.5184 31.4505C63.5256 31.4433 63.5344 31.4377 63.544 31.4343C63.5536 31.4308 63.5639 31.4295 63.5741 31.4305H63.8391C63.8959 31.4305 63.9212 31.4305 63.9212 31.5062V35.4504Z" fill="#4D4C4D"/>
<path d="M65.2654 35.4692C65.2086 35.4692 65.1833 35.4187 65.196 35.3682V35.1158C65.1892 35.0975 65.1892 35.0773 65.196 35.059C65.2053 35.0527 65.2163 35.0494 65.2275 35.0494C65.2387 35.0494 65.2497 35.0527 65.2591 35.059C65.3794 35.1292 65.509 35.1823 65.644 35.2168C65.7934 35.2483 65.9458 35.2631 66.0984 35.2609C66.3387 35.2702 66.5743 35.1917 66.761 35.0401C66.8482 34.9606 66.9167 34.8628 66.9615 34.7537C67.0062 34.6445 67.0261 34.5268 67.0197 34.409C67.0143 34.2907 66.97 34.1776 66.8935 34.0871C66.7974 33.9657 66.6797 33.8631 66.5464 33.7842C66.4202 33.7022 66.2751 33.6138 66.111 33.5255C65.9469 33.4372 65.7955 33.3425 65.644 33.2415C65.5071 33.1402 65.3841 33.0214 65.278 32.8881C65.1775 32.7558 65.1242 32.5936 65.1265 32.4275C65.125 32.2713 65.1609 32.1171 65.2311 31.9777C65.3014 31.8382 65.404 31.7177 65.5304 31.626C65.6597 31.5298 65.805 31.4571 65.9595 31.4114C66.1175 31.3659 66.2811 31.3425 66.4455 31.342C66.5714 31.3313 66.6981 31.3313 66.8241 31.342C66.9456 31.3617 67.0658 31.3891 67.1838 31.4241C67.2406 31.4241 67.2658 31.4809 67.2532 31.525L67.209 31.7396C67.209 31.8027 67.1649 31.8216 67.1144 31.7901C67.017 31.748 66.9155 31.7163 66.8115 31.6954C66.6876 31.6842 66.563 31.6842 66.4392 31.6954C66.322 31.694 66.2052 31.7088 66.0921 31.7396C65.9909 31.7682 65.895 31.813 65.8081 31.8721C65.7306 31.9321 65.6662 32.0072 65.6188 32.093C65.5716 32.1914 65.5478 32.2994 65.5494 32.4085C65.5498 32.507 65.5831 32.6025 65.644 32.6799C65.7119 32.7689 65.7903 32.8494 65.8775 32.9197C65.9767 32.9928 66.0799 33.0602 66.1867 33.1216L66.4833 33.292C66.6032 33.3614 66.7231 33.4308 66.8367 33.5066C66.947 33.5765 67.0487 33.6591 67.1396 33.7527C67.2278 33.8446 67.3022 33.9487 67.3605 34.0619C67.4155 34.1805 67.4435 34.3098 67.4425 34.4405C67.4465 34.6123 67.4051 34.7821 67.3226 34.9328C67.253 35.0758 67.1516 35.201 67.026 35.2988C66.8966 35.4015 66.7489 35.4786 66.5906 35.526C66.426 35.5819 66.2532 35.6096 66.0794 35.608C65.9337 35.6083 65.7882 35.5978 65.644 35.5765C65.499 35.5466 65.3557 35.5086 65.2149 35.4629" fill="#4D4C4D"/>
<path d="M68.976 35.5323C68.8939 35.5323 68.8498 35.5323 68.8372 35.5323C68.8245 35.5323 68.8372 35.4818 68.8372 35.3998V31.6134C68.8372 31.544 68.8372 31.5061 68.8372 31.4935C68.8372 31.4809 68.8939 31.4935 68.9634 31.4935H70.8566C70.9133 31.4935 70.9386 31.4935 70.9386 31.5693V31.7649C70.9386 31.8154 70.9386 31.8406 70.8566 31.8406H69.1969V33.3047H70.7745C70.7847 33.3037 70.795 33.305 70.8046 33.3084C70.8142 33.3119 70.823 33.3175 70.8302 33.3247C70.8375 33.3319 70.843 33.3407 70.8465 33.3503C70.8499 33.3599 70.8512 33.3702 70.8502 33.3804V33.5066C70.8512 33.5168 70.8499 33.5271 70.8465 33.5367C70.843 33.5463 70.8375 33.5551 70.8302 33.5623C70.823 33.5696 70.8142 33.5751 70.8046 33.5786C70.795 33.582 70.7847 33.5833 70.7745 33.5823H69.1969V35.1789H70.926C70.9362 35.178 70.9464 35.1792 70.9561 35.1827C70.9657 35.1862 70.9744 35.1917 70.9817 35.1989C70.9889 35.2062 70.9945 35.2149 70.9979 35.2246C71.0014 35.2342 71.0027 35.2445 71.0017 35.2547V35.4566C71.0027 35.4668 71.0014 35.4771 70.9979 35.4867C70.9945 35.4963 70.9889 35.5051 70.9817 35.5123C70.9744 35.5196 70.9657 35.5251 70.9561 35.5286C70.9464 35.532 70.9362 35.5333 70.926 35.5323H68.976Z" fill="#4D4C4D"/>
<path d="M72.8129 35.4503C72.8138 35.4605 72.8125 35.4708 72.8091 35.4804C72.8056 35.49 72.8001 35.4988 72.7928 35.506C72.7856 35.5132 72.7769 35.5188 72.7672 35.5222C72.7576 35.5257 72.7473 35.527 72.7371 35.526H72.4847C72.4745 35.527 72.4642 35.5257 72.4546 35.5222C72.445 35.5188 72.4362 35.5132 72.429 35.506C72.4217 35.4988 72.4162 35.49 72.4127 35.4804C72.4093 35.4708 72.408 35.4605 72.409 35.4503V31.5756C72.4014 31.5317 72.4014 31.4869 72.409 31.443C72.409 31.443 72.4721 31.443 72.5478 31.443H72.8065C72.8375 31.4344 72.8702 31.4344 72.9012 31.443C72.9012 31.443 72.9012 31.443 72.9517 31.4998L75.0405 35.0843V31.4935C75.0395 31.4833 75.0408 31.4731 75.0443 31.4634C75.0477 31.4538 75.0533 31.445 75.0605 31.4378C75.0678 31.4306 75.0765 31.425 75.0861 31.4216C75.0958 31.4181 75.106 31.4168 75.1162 31.4178H75.3623C75.3725 31.4168 75.3828 31.4181 75.3924 31.4216C75.4021 31.425 75.4108 31.4306 75.4181 31.4378C75.4253 31.445 75.4308 31.4538 75.4343 31.4634C75.4378 31.4731 75.4391 31.4833 75.4381 31.4935V35.3998C75.4381 35.4818 75.4381 35.526 75.4381 35.5386C75.3947 35.5504 75.3489 35.5504 75.3056 35.5386H74.9648C74.944 35.5435 74.9224 35.5435 74.9017 35.5386C74.8841 35.5246 74.8691 35.5075 74.8575 35.4882L72.8192 31.9668V35.4755" fill="#4D4C4D"/>
<path d="M79.9754 33.5066C79.9788 33.2825 79.949 33.0592 79.887 32.8439C79.8348 32.647 79.7517 32.4596 79.6409 32.2886C79.5205 32.1146 79.3605 31.9719 79.1739 31.8721C78.9909 31.7698 78.7841 31.7176 78.5744 31.7206C78.3544 31.7153 78.1369 31.7675 77.9433 31.8721C77.7599 31.9738 77.6023 32.1163 77.4827 32.2886C77.3718 32.4596 77.2888 32.647 77.2366 32.8439C77.1779 33.0599 77.1481 33.2827 77.1482 33.5066C77.1515 33.7198 77.1812 33.9317 77.2366 34.1376C77.2888 34.3346 77.3718 34.522 77.4827 34.693C77.6088 34.8641 77.7702 35.0062 77.956 35.1095C78.1487 35.2161 78.3668 35.2684 78.587 35.2609C78.7958 35.2629 79.0018 35.213 79.1865 35.1158C79.372 35.0118 79.5317 34.8672 79.6535 34.693C79.7643 34.522 79.8474 34.3346 79.8996 34.1376C79.9579 33.9323 79.9876 33.72 79.988 33.5066H79.9754ZM80.3919 33.5066C80.4193 34.0545 80.2591 34.5955 79.9375 35.04C79.7786 35.2448 79.5732 35.4088 79.3384 35.5185C79.1036 35.6282 78.846 35.6805 78.587 35.6711C78.3261 35.681 78.0666 35.629 77.8297 35.5193C77.5928 35.4096 77.3852 35.2454 77.2239 35.04C76.9005 34.5964 76.74 34.0548 76.7696 33.5066C76.767 33.2253 76.8031 32.945 76.8768 32.6736C76.9493 32.4472 77.058 32.234 77.1987 32.0425C77.3699 31.8384 77.5859 31.6764 77.8298 31.5692C78.0755 31.4576 78.3423 31.3999 78.6123 31.3999C78.8822 31.3999 79.149 31.4576 79.3948 31.5692C79.64 31.677 79.8563 31.8414 80.0259 32.0488C80.1724 32.2538 80.2834 32.4821 80.354 32.724C80.4287 32.9887 80.4628 33.2632 80.455 33.5381" fill="#4D4C4D"/>
<path d="M86.8666 33.311C86.9423 33.311 86.9865 33.311 86.9991 33.311C87.0118 33.311 86.9991 33.3615 86.9991 33.4435V35.1979C86.9976 35.2359 86.9818 35.2719 86.955 35.2989C86.9382 35.3298 86.9115 35.3542 86.8792 35.3683C86.6991 35.4356 86.5132 35.4863 86.3239 35.5197C86.1158 35.5577 85.9043 35.5746 85.6928 35.5702C85.4029 35.5745 85.1145 35.5275 84.8409 35.4314C84.5928 35.3436 84.3652 35.2062 84.172 35.0275C83.9787 34.8386 83.828 34.6105 83.7302 34.3586C83.6201 34.0707 83.5666 33.7643 83.5725 33.4562C83.5697 33.1637 83.6189 32.8732 83.7176 32.5979C83.8123 32.3503 83.9537 32.1232 84.1341 31.929C84.3254 31.7372 84.5557 31.5887 84.8093 31.4936C85.0906 31.3834 85.3908 31.3298 85.6928 31.3358C85.8715 31.3249 86.0506 31.3249 86.2292 31.3358C86.396 31.3577 86.5607 31.3936 86.7215 31.4431C86.7457 31.449 86.7665 31.4643 86.7795 31.4856C86.7925 31.5069 86.7966 31.5324 86.7909 31.5567L86.7593 31.7649C86.7593 31.8091 86.7278 31.828 86.6773 31.8091C86.525 31.75 86.3661 31.7097 86.204 31.6892C86.0344 31.668 85.8637 31.6575 85.6928 31.6576C85.4487 31.6541 85.2063 31.6992 84.9797 31.7902C84.774 31.8676 84.5885 31.9906 84.437 32.1499C84.2821 32.3098 84.1637 32.5014 84.0899 32.7115C83.9302 33.1908 83.9302 33.7089 84.0899 34.1882C84.1682 34.3957 84.2885 34.5847 84.4433 34.7435C84.599 34.8931 84.7837 35.009 84.986 35.0843C85.2092 35.1619 85.444 35.2003 85.6802 35.1979C85.9799 35.2173 86.28 35.1676 86.5574 35.0527V33.6581H85.4404C85.4302 33.6591 85.4199 33.6578 85.4103 33.6543C85.4007 33.6509 85.3919 33.6453 85.3847 33.6381C85.3775 33.6308 85.3719 33.6221 85.3685 33.6125C85.365 33.6028 85.3637 33.5926 85.3647 33.5824V33.3867C85.3637 33.3766 85.365 33.3663 85.3685 33.3566C85.3719 33.347 85.3775 33.3383 85.3847 33.331C85.3919 33.3238 85.4007 33.3182 85.4103 33.3148C85.4199 33.3113 85.4302 33.31 85.4404 33.311H86.8035" fill="#4D4C4D"/>
<path d="M90.6531 32.6231C90.656 32.4904 90.6369 32.3582 90.5963 32.2319C90.5649 32.128 90.5034 32.0358 90.4196 31.9668C90.3257 31.8917 90.2155 31.8398 90.0978 31.8154C89.9333 31.7849 89.7664 31.7701 89.5992 31.7712H89.0313V33.4246H89.6118C89.7527 33.426 89.893 33.4069 90.0283 33.3678C90.1465 33.3359 90.2578 33.2824 90.3565 33.21C90.4449 33.1401 90.5198 33.0545 90.5774 32.9576C90.629 32.8537 90.6549 32.7391 90.6531 32.6231ZM91.2841 35.4503C91.2905 35.4665 91.2905 35.4845 91.2841 35.5008C91.2841 35.5008 91.2841 35.5008 91.24 35.5008H90.956C90.9298 35.502 90.9039 35.4955 90.8814 35.482C90.8589 35.4686 90.841 35.4487 90.8298 35.425C90.6657 35.078 90.5269 34.794 90.4196 34.5794C90.3123 34.3649 90.2177 34.1818 90.1545 34.0493L89.9778 33.7022C89.9002 33.7106 89.822 33.7106 89.7444 33.7022H89.473H89.006V35.3809C89.007 35.3911 89.0057 35.4013 89.0022 35.411C88.9988 35.4206 88.9932 35.4293 88.986 35.4366C88.9788 35.4438 88.97 35.4494 88.9604 35.4528C88.9507 35.4563 88.9405 35.4576 88.9303 35.4566H88.6779C88.6677 35.4576 88.6574 35.4563 88.6478 35.4528C88.6381 35.4494 88.6294 35.4438 88.6221 35.4366C88.6149 35.4293 88.6094 35.4206 88.6059 35.411C88.6024 35.4013 88.6011 35.3911 88.6021 35.3809V31.4998C88.6021 31.491 88.6039 31.4822 88.6075 31.4741C88.611 31.466 88.6162 31.4588 88.6228 31.4528C88.6293 31.4469 88.6371 31.4424 88.6455 31.4396C88.6539 31.4368 88.6627 31.4358 88.6715 31.4367H89.8138C89.9985 31.4336 90.1823 31.4636 90.3565 31.5251C90.5004 31.5729 90.6304 31.6552 90.7351 31.7649C90.8423 31.8668 90.9207 31.9952 90.9623 32.1372C91.0192 32.295 91.047 32.4617 91.0443 32.6294C91.0435 32.7377 91.0221 32.8447 90.9812 32.945C90.945 33.0459 90.8916 33.1398 90.8235 33.2226C90.7594 33.311 90.6828 33.3896 90.5963 33.4561C90.5138 33.5198 90.425 33.5748 90.3312 33.6202L91.2841 35.4566" fill="#4D4C4D"/>
<path d="M94.8749 34.0745L94.4268 32.9386C94.288 32.5663 94.1429 32.1876 93.9851 31.8027C93.8336 32.1876 93.6759 32.5663 93.5244 32.9386C93.373 33.3109 93.2278 33.6896 93.0701 34.0745H94.8749ZM95.8404 35.4502C95.8404 35.5007 95.8404 35.526 95.7899 35.526H95.5249H95.4618C95.4618 35.526 95.4618 35.5259 95.4176 35.4628L95.0074 34.4405H92.9312C92.8555 34.6172 92.7924 34.7876 92.723 34.9517L92.521 35.4628C92.521 35.5007 92.521 35.5196 92.4769 35.526H92.4201H92.1361C92.0793 35.526 92.0667 35.526 92.0856 35.4502L93.7137 31.4871C93.7203 31.4672 93.733 31.4497 93.7499 31.4373C93.7669 31.4248 93.7874 31.418 93.8084 31.4177H94.1492C94.1711 31.4176 94.1925 31.4242 94.2105 31.4366C94.2286 31.449 94.2424 31.4666 94.2502 31.4871L95.8152 35.4502" fill="#4D4C4D"/>
<path d="M97.336 35.4503C97.337 35.4605 97.3357 35.4708 97.3322 35.4804C97.3287 35.4901 97.3232 35.4988 97.316 35.5061C97.3087 35.5133 97.3 35.5188 97.2903 35.5223C97.2807 35.5258 97.2704 35.527 97.2602 35.5261H97.0078C96.951 35.5261 96.9258 35.5261 96.9258 35.4503V31.6135C96.9258 31.5377 96.9258 31.4873 96.9258 31.481C96.9258 31.4746 96.9889 31.481 97.0709 31.481H98.9199C98.9301 31.48 98.9404 31.4813 98.95 31.4847C98.9597 31.4882 98.9684 31.4937 98.9757 31.501C98.9829 31.5082 98.9884 31.517 98.9919 31.5266C98.9954 31.5362 98.9966 31.5465 98.9957 31.5567V31.746C98.9966 31.7562 98.9954 31.7665 98.9919 31.7761C98.9884 31.7857 98.9829 31.7945 98.9757 31.8017C98.9684 31.8089 98.9597 31.8145 98.95 31.818C98.9404 31.8214 98.9301 31.8227 98.9199 31.8217H97.317V33.2921H98.8379C98.8947 33.2921 98.9199 33.2921 98.9199 33.3678V33.5067C98.9199 33.5572 98.9199 33.5824 98.8379 33.5824H97.317V35.4377" fill="#4D4C4D"/>
<path d="M100.592 35.4504C100.593 35.4606 100.592 35.4708 100.588 35.4805C100.585 35.4901 100.579 35.4988 100.572 35.5061C100.565 35.5133 100.556 35.5189 100.547 35.5223C100.537 35.5258 100.527 35.5271 100.517 35.5261H100.251C100.195 35.5261 100.169 35.5261 100.169 35.4504V31.5062C100.169 31.4557 100.169 31.4305 100.251 31.4305H100.517C100.527 31.4295 100.537 31.4308 100.547 31.4343C100.556 31.4377 100.565 31.4433 100.572 31.4505C100.579 31.4577 100.585 31.4665 100.588 31.4761C100.592 31.4858 100.593 31.496 100.592 31.5062V35.4504Z" fill="#4D4C4D"/>
<path d="M104.757 35.1284H104.82C104.825 35.1339 104.827 35.1405 104.827 35.1474C104.827 35.1542 104.825 35.1608 104.82 35.1663V35.3808C104.82 35.4313 104.82 35.4629 104.745 35.4818C104.621 35.5216 104.495 35.5512 104.366 35.5702C104.204 35.5815 104.042 35.5815 103.88 35.5702C103.598 35.5844 103.316 35.5396 103.052 35.4385C102.787 35.3375 102.547 35.1824 102.347 34.9833C102.158 34.7943 102.014 34.5659 101.924 34.3144C101.832 34.0377 101.787 33.7476 101.791 33.4561C101.779 33.175 101.823 32.8943 101.922 32.6307C102.021 32.3672 102.172 32.1264 102.366 31.9226C102.564 31.7259 102.801 31.5722 103.062 31.4713C103.322 31.3703 103.601 31.3241 103.88 31.3357H104.12H104.328H104.536L104.745 31.3862C104.757 31.3868 104.769 31.3901 104.779 31.3957C104.79 31.4014 104.799 31.4093 104.806 31.4189C104.814 31.4286 104.819 31.4397 104.821 31.4515C104.823 31.4633 104.823 31.4755 104.82 31.4872V31.7081C104.82 31.7585 104.82 31.7775 104.738 31.7585C104.604 31.7164 104.467 31.6848 104.328 31.6639C104.183 31.6533 104.038 31.6533 103.893 31.6639C103.659 31.65 103.425 31.6875 103.207 31.7736C102.989 31.8597 102.792 31.9924 102.631 32.1624C102.332 32.5133 102.176 32.964 102.195 33.4246C102.193 33.6685 102.229 33.9113 102.303 34.144C102.369 34.3498 102.479 34.5391 102.624 34.6993C102.784 34.871 102.981 35.0045 103.199 35.0897C103.418 35.1749 103.653 35.2097 103.886 35.1915C104.04 35.2011 104.194 35.2011 104.347 35.1915C104.477 35.1776 104.604 35.1479 104.726 35.1032" fill="#4D4C4D"/>
<path d="M109.232 33.5066C109.235 33.2825 109.205 33.0592 109.143 32.8439C109.091 32.647 109.008 32.4596 108.897 32.2886C108.777 32.1146 108.617 31.9719 108.43 31.8721C108.247 31.7698 108.04 31.7176 107.831 31.7206C107.611 31.7153 107.393 31.7675 107.2 31.8721C107.016 31.9738 106.859 32.1163 106.739 32.2886C106.628 32.4596 106.545 32.647 106.493 32.8439C106.434 33.0599 106.404 33.2827 106.404 33.5066C106.408 33.7198 106.437 33.9317 106.493 34.1376C106.545 34.3346 106.628 34.522 106.739 34.693C106.865 34.8641 107.026 35.0062 107.212 35.1095C107.405 35.2161 107.623 35.2684 107.843 35.2609C108.052 35.2629 108.258 35.213 108.443 35.1158C108.628 35.0118 108.788 34.8672 108.91 34.693C109.027 34.5232 109.117 34.3357 109.175 34.1376C109.233 33.9323 109.263 33.72 109.263 33.5066H109.232ZM109.667 33.5066C109.695 34.0545 109.534 34.5955 109.213 35.04C109.054 35.2448 108.848 35.4088 108.614 35.5185C108.379 35.6282 108.121 35.6805 107.862 35.6711C107.601 35.681 107.342 35.629 107.105 35.5193C106.868 35.4096 106.66 35.2454 106.499 35.04C106.167 34.5997 105.997 34.0578 106.02 33.5066C106.017 33.2253 106.053 32.945 106.127 32.6736C106.199 32.4472 106.308 32.234 106.449 32.0425C106.62 31.8384 106.836 31.6764 107.08 31.5692C107.325 31.4576 107.592 31.3999 107.862 31.3999C108.132 31.3999 108.399 31.4576 108.645 31.5692C108.89 31.677 109.106 31.8414 109.276 32.0488C109.422 32.2538 109.533 32.4821 109.604 32.724C109.679 32.9887 109.713 33.2632 109.705 33.5381" fill="#4D4C4D"/>
<path d="M73.9741 30.8562L73.8163 30.7679L73.709 30.7111H73.6333C73.6043 30.7093 73.5753 30.7147 73.5489 30.7268C73.5225 30.7389 73.4994 30.7573 73.4819 30.7805C73.4458 30.8368 73.4281 30.903 73.4314 30.9698H73.0906C73.0824 30.8145 73.1319 30.6617 73.2294 30.5407C73.2757 30.4877 73.333 30.4455 73.3973 30.4172C73.4617 30.3888 73.5315 30.375 73.6018 30.3766C73.7407 30.3799 73.8761 30.4214 73.993 30.4965L74.1508 30.5785L74.2581 30.629H74.3401C74.3675 30.6305 74.3949 30.6256 74.4201 30.6146C74.4453 30.6037 74.4676 30.587 74.4852 30.5659C74.5226 30.5125 74.5404 30.4479 74.5357 30.3829H74.8765C74.881 30.5406 74.8296 30.6949 74.7314 30.8183C74.6861 30.8704 74.6296 30.9115 74.5663 30.9389C74.5029 30.9662 74.4343 30.9789 74.3653 30.9761C74.3088 30.983 74.2515 30.983 74.195 30.9761L73.9741 30.8814" fill="#4D4C4D"/>
<path d="M94.3133 30.2566H94.8181L94.187 30.9697H93.7769L94.3006 30.2566" fill="#4D4C4D"/>
<path d="M120.054 35.4692C120.054 35.4775 120.051 35.4855 120.047 35.4929C120.043 35.5003 120.038 35.5068 120.031 35.5121C120.025 35.5173 120.018 35.5213 120.01 35.5237C120.002 35.5261 119.993 35.5268 119.985 35.526H119.613C119.604 35.5268 119.596 35.5261 119.588 35.5237C119.58 35.5213 119.572 35.5173 119.566 35.5121C119.56 35.5068 119.554 35.5003 119.55 35.4929C119.546 35.4855 119.544 35.4775 119.543 35.4692L118.508 31.8721C118.331 32.5032 118.155 33.0711 117.984 33.6706L117.454 35.4692C117.454 35.507 117.423 35.526 117.385 35.526H117C116.992 35.5268 116.983 35.5261 116.975 35.5237C116.967 35.5213 116.96 35.5173 116.953 35.5121C116.947 35.5068 116.942 35.5003 116.938 35.4929C116.934 35.4855 116.931 35.4775 116.931 35.4692L115.795 31.5061C115.79 31.4984 115.788 31.4897 115.788 31.4809C115.788 31.472 115.79 31.4633 115.795 31.4556C115.802 31.4512 115.811 31.4489 115.82 31.4489C115.829 31.4489 115.837 31.4512 115.845 31.4556H116.116C116.14 31.4536 116.163 31.4602 116.181 31.4742C116.2 31.4882 116.213 31.5085 116.217 31.5313L117.215 35.1284C117.385 34.4973 117.562 33.9294 117.732 33.3488C117.902 32.7682 118.079 32.1687 118.256 31.5629C118.257 31.5462 118.263 31.5301 118.271 31.5159C118.28 31.5016 118.292 31.4897 118.306 31.4809C118.335 31.4708 118.366 31.4708 118.395 31.4809H118.679C118.708 31.4807 118.737 31.4916 118.759 31.5114C118.781 31.5312 118.795 31.5586 118.798 31.5881L119.814 35.1347C119.985 34.5037 120.149 33.9231 120.319 33.3488C120.49 32.7745 120.654 32.1687 120.824 31.5566C120.835 31.537 120.85 31.5198 120.868 31.5061C120.887 31.4987 120.907 31.4987 120.925 31.5061H121.165C121.173 31.5017 121.181 31.4993 121.19 31.4993C121.199 31.4993 121.208 31.5017 121.215 31.5061C121.22 31.5138 121.222 31.5225 121.222 31.5313C121.222 31.5402 121.22 31.5489 121.215 31.5566L120.061 35.5197" fill="#4D4C4D"/>
<path d="M122.522 35.5323C122.446 35.5323 122.402 35.5323 122.383 35.5323C122.364 35.5323 122.383 35.4818 122.383 35.3998V31.6134C122.383 31.544 122.383 31.5061 122.383 31.4935C122.383 31.4809 122.44 31.4935 122.509 31.4935H124.434C124.444 31.4925 124.454 31.4938 124.464 31.4973C124.473 31.5008 124.482 31.5063 124.489 31.5135C124.497 31.5208 124.502 31.5295 124.506 31.5392C124.509 31.5488 124.51 31.5591 124.509 31.5693V31.7649C124.51 31.7751 124.509 31.7853 124.506 31.795C124.502 31.8046 124.497 31.8134 124.489 31.8206C124.482 31.8278 124.473 31.8334 124.464 31.8368C124.454 31.8403 124.444 31.8416 124.434 31.8406H122.774V33.3047H124.352C124.362 33.3037 124.372 33.305 124.382 33.3084C124.391 33.3119 124.4 33.3175 124.407 33.3247C124.415 33.3319 124.42 33.3407 124.424 33.3503C124.427 33.3599 124.428 33.3702 124.427 33.3804V33.5066C124.428 33.5168 124.427 33.5271 124.424 33.5367C124.42 33.5463 124.415 33.5551 124.407 33.5623C124.4 33.5696 124.391 33.5751 124.382 33.5786C124.372 33.582 124.362 33.5833 124.352 33.5823H122.774V35.1789H124.497C124.547 35.1789 124.579 35.1789 124.579 35.2547V35.4566C124.579 35.5071 124.579 35.5323 124.497 35.5323H122.522Z" fill="#4D4C4D"/>
<path d="M127.86 32.4527C127.86 31.9983 127.558 31.7711 126.958 31.7711H126.39V33.2163H126.844C127.112 33.2361 127.378 33.1673 127.602 33.0206C127.685 32.9521 127.751 32.8651 127.795 32.7665C127.839 32.6679 127.859 32.5604 127.854 32.4527H127.86ZM127.98 34.3774C127.992 34.2553 127.971 34.1322 127.919 34.0211C127.867 33.91 127.785 33.8151 127.684 33.7464C127.393 33.5919 127.065 33.522 126.737 33.5444H126.377V35.1536H126.8C127.589 35.1536 127.98 34.8886 127.98 34.3522V34.3774ZM128.391 34.3522C128.391 35.1284 127.854 35.5196 126.788 35.5196H126.119C126.073 35.5304 126.026 35.5304 125.98 35.5196C125.973 35.4736 125.973 35.4268 125.98 35.3808V31.6134C125.972 31.5696 125.972 31.5246 125.98 31.4808C125.98 31.4808 126.043 31.4808 126.119 31.4808H126.952C127.829 31.4808 128.264 31.8153 128.264 32.4905C128.285 32.7102 128.22 32.9293 128.084 33.1029C127.948 33.2766 127.75 33.3916 127.532 33.4245C127.775 33.4835 127.994 33.6131 128.163 33.7968C128.317 33.9698 128.397 34.1966 128.384 34.4279" fill="#4D4C4D"/>
<path d="M112.949 30.6669H112.475V36.2896H112.949V30.6669Z" fill="#4F4D4D"/>
<path d="M18.2259 0.0601592C15.5818 0.0899244 12.9751 0.688203 10.5826 1.81438C8.19018 2.94057 6.06804 4.56829 4.36023 6.58707C2.65243 8.60584 1.39895 10.9684 0.684869 13.5144C-0.0292104 16.0604 -0.187171 18.7303 0.22171 21.3427C0.63059 23.9552 1.59674 26.4491 3.05458 28.6551C4.51242 30.8612 6.42782 32.7278 8.67077 34.1282C10.9137 35.5287 13.4317 36.4302 16.0538 36.7715C18.676 37.1128 21.3408 36.886 23.8676 36.1065C20.1319 34.9092 16.8756 32.5514 14.5722 29.3759C12.2689 26.2004 11.0387 22.373 11.0605 18.4501C11.0823 14.5273 12.355 10.7138 14.6936 7.56412C17.0321 4.41447 20.3144 2.09299 24.0632 0.937337C22.1773 0.332628 20.2062 0.0364227 18.2259 0.0601592Z" fill="#51BFEA"/>
<path d="M29.6607 36.9964C32.3057 36.9694 34.9138 36.3736 37.3081 35.2492C39.7024 34.1249 41.8266 32.4984 43.5365 30.4804C45.2465 28.4623 46.5021 26.0998 47.2181 23.5535C47.934 21.0071 48.0936 18.3365 47.6859 15.723C47.2782 13.1095 46.3129 10.6143 44.8554 8.40698C43.3979 6.19964 41.4825 4.33184 39.2391 2.93042C36.9958 1.529 34.4771 0.626791 31.8541 0.285081C29.2312 -0.0566292 26.5654 0.170159 24.0379 0.950042C27.7727 2.14917 31.0278 4.50806 33.3302 7.68389C35.6325 10.8597 36.8621 14.687 36.8403 18.6095C36.8185 22.5321 35.5464 26.3454 33.2089 29.4954C30.8713 32.6455 27.5902 34.968 23.8423 36.1255C25.7225 36.7261 27.6871 37.0201 29.6607 36.9964Z" fill="#51BFEA"/>
<path d="M47.3936 22.8857C48.464 18.4554 47.855 13.7856 45.6844 9.77785C43.5137 5.77012 39.9352 2.70868 35.6398 1.18457C31.3443 -0.339544 26.6365 -0.218246 22.4253 1.52504C18.214 3.26833 14.798 6.50999 12.8365 10.6242L17.172 13.9436C19.5167 11.8151 22.3701 10.3264 25.4572 9.62076C28.5443 8.91516 31.7611 9.01648 34.7977 9.91497C37.8343 10.8135 40.5883 12.4788 42.7945 14.7506C45.0006 17.0224 46.5845 19.8241 47.3936 22.8857Z" fill="#4D4C4D"/>
<path d="M47.7407 21.0493C47.7407 21.125 47.7407 21.1945 47.7091 21.2639C47.7154 21.1945 47.728 21.125 47.7407 21.0493Z" fill="url(#paint0_radial_302:1110)"/>
<path d="M47.6649 21.5164L47.6271 21.7372L47.6649 21.5164Z" fill="url(#paint1_radial_302:1110)"/>
<path d="M47.8669 19.7241C47.8701 19.7494 47.8701 19.775 47.8669 19.8004C47.8701 19.775 47.8701 19.7494 47.8669 19.7241Z" fill="url(#paint2_radial_302:1110)"/>
<path d="M47.9049 18.7839C47.9081 18.8158 47.9081 18.8479 47.9049 18.8798C47.9081 18.8479 47.9081 18.8158 47.9049 18.7839Z" fill="url(#paint3_radial_302:1110)"/>
<path d="M47.8355 20.1786C47.8355 20.2233 47.8355 20.2681 47.8355 20.3192C47.8291 20.2553 47.8291 20.2553 47.8355 20.1786Z" fill="url(#paint4_radial_302:1110)"/>
<path d="M47.6081 21.8824L47.5323 22.28L47.6081 21.8824Z" fill="url(#paint5_radial_302:1110)"/>
<path d="M47.7092 21.2639C47.7092 21.3523 47.7092 21.4406 47.665 21.529C47.684 21.4406 47.6966 21.3523 47.7092 21.2639Z" fill="#4D4C4D"/>
<path d="M47.766 20.8223C47.766 20.898 47.766 20.9737 47.766 21.0494C47.747 20.9737 47.7597 20.8854 47.766 20.8223Z" fill="#4D4C4D"/>
<path d="M47.8228 20.3174L47.7849 20.6708L47.8228 20.3174Z" fill="#4D4C4D"/>
<path d="M47.8606 19.7999C47.8606 19.9261 47.8606 20.0524 47.8606 20.1786C47.8479 20.0524 47.8542 19.9261 47.8606 19.7999Z" fill="#4D4C4D"/>
<path d="M47.5323 22.2799C47.5352 22.3118 47.5352 22.3439 47.5323 22.3758C47.5352 22.3439 47.5352 22.3118 47.5323 22.2799Z" fill="#4D4C4D"/>
<path d="M0.511915 14.1771C-0.546197 18.6047 0.0708275 23.2671 2.24422 27.267C4.41761 31.2669 7.99374 34.3214 12.2842 35.8427C16.5747 37.364 21.2763 37.2445 25.484 35.5072C29.6916 33.7699 33.1079 30.5375 35.0753 26.4324L30.7335 23.1004C27.3997 26.1466 23.0572 27.8525 18.5414 27.8901C14.4392 27.9348 10.4391 26.6106 7.17382 24.1271C3.90851 21.6435 1.56431 18.1423 0.511915 14.1771Z" fill="#4D4C4D"/>
<defs>
<radialGradient id="paint0_radial_302:1110" cx="0" cy="0" r="1" gradientUnits="userSpaceOnUse" gradientTransform="translate(116.998 11.6172) scale(0.604911 4.11315)">
<stop stop-color="#54C1EC"/>
<stop offset="1" stop-color="#19ABD1"/>
</radialGradient>
<radialGradient id="paint1_radial_302:1110" cx="0" cy="0" r="1" gradientUnits="userSpaceOnUse" gradientTransform="translate(130.765 11.8069) scale(0.722033 4.21202)">
<stop stop-color="#54C1EC"/>
<stop offset="1" stop-color="#19ABD1"/>
</radialGradient>
<radialGradient id="paint2_radial_302:1110" cx="0" cy="0" r="1" gradientUnits="userSpaceOnUse" gradientTransform="translate(53.0107 16.3728) scale(0.0446024 1.45154)">
<stop stop-color="#54C1EC"/>
<stop offset="1" stop-color="#19ABD1"/>
</radialGradient>
<radialGradient id="paint3_radial_302:1110" cx="0" cy="0" r="1" gradientUnits="userSpaceOnUse" gradientTransform="translate(53.113 14.5671) scale(0.0456806 1.84706)">
<stop stop-color="#54C1EC"/>
<stop offset="1" stop-color="#19ABD1"/>
</radialGradient>
<radialGradient id="paint4_radial_302:1110" cx="0" cy="0" r="1" gradientUnits="userSpaceOnUse" gradientTransform="translate(58.3596 13.9954) scale(0.0911546 2.67386)">
<stop stop-color="#54C1EC"/>
<stop offset="1" stop-color="#19ABD1"/>
</radialGradient>
<radialGradient id="paint5_radial_302:1110" cx="0" cy="0" r="1" gradientUnits="userSpaceOnUse" gradientTransform="translate(213.818 4.40535) scale(1.44416 7.58163)">
<stop stop-color="#54C1EC"/>
<stop offset="1" stop-color="#19ABD1"/>
</radialGradient>
</defs>
</svg>
