<svg width="145" height="89" viewBox="0 0 145 89" fill="none" xmlns="http://www.w3.org/2000/svg">
<path d="M111.355 58.6553L109.729 60.6845H110.471L112.482 58.6553H111.355ZM6.84731 61.2133C5.89153 61.2419 5.19253 61.5419 4.72177 62.1279C4.26528 62.7138 3.9657 63.414 3.82305 64.2428C3.68039 65.0717 3.62333 65.872 3.6376 66.6579C3.62333 67.4582 3.65186 68.3299 3.75172 69.2588C3.85158 70.1877 4.12262 70.988 4.57911 71.6596C5.03561 72.3313 5.77741 72.6742 6.81878 72.7028C7.83162 72.6742 8.55915 72.3741 9.02991 71.8025C9.50067 71.2309 9.78598 70.5164 9.91436 69.6732C10.0428 68.8301 10.0855 68.0012 10.0713 67.1867C10.0855 66.3578 10.0428 65.5004 9.9429 64.5858C9.84304 63.6712 9.55773 62.8853 9.10124 62.2422C8.65901 61.5848 7.90295 61.2419 6.84731 61.2133ZM22.2682 61.2133C21.3124 61.2419 20.6134 61.5419 20.1426 62.1279C19.6861 62.7138 19.3866 63.414 19.2439 64.2571C19.1013 65.086 19.0442 65.8863 19.0585 66.6722C19.0442 67.4725 19.0727 68.3442 19.1726 69.2731C19.2725 70.202 19.5435 70.988 20 71.6596C20.4565 72.3313 21.1983 72.6742 22.2397 72.7028C22.6676 72.7028 23.0385 72.6456 23.3666 72.5313C23.6947 72.417 23.9658 72.2598 24.1797 72.0597L25.3923 73.0601L25.9059 72.417L24.7076 71.431C25.0642 70.8451 25.2782 70.1734 25.378 69.416C25.4779 68.6586 25.5064 67.9155 25.4922 67.1867C25.5064 66.3578 25.4636 65.5004 25.3638 64.5858C25.2639 63.6712 24.9786 62.8853 24.5221 62.2422C24.0799 61.5848 23.3238 61.2419 22.2682 61.2133ZM44.5792 61.2133C43.6805 61.2276 42.9815 61.5134 42.4822 62.0564C41.9829 62.5994 41.7262 63.3283 41.7262 64.2428C41.7404 65.1003 41.9687 65.7434 42.4394 66.1864C42.8959 66.6151 43.5093 66.9723 44.2511 67.2438C44.9073 67.4582 45.4637 67.7154 45.9487 68.0155C46.4337 68.3156 46.6762 68.8587 46.7048 69.6589C46.6905 70.3449 46.4908 70.8879 46.1056 71.2738C45.7062 71.6596 45.1784 71.8597 44.5079 71.874C43.7661 71.8597 43.2383 71.6024 42.9102 71.1309C42.5821 70.6593 42.4394 70.0591 42.4537 69.3588H41.5122C41.4979 70.3449 41.7404 71.1594 42.254 71.7739C42.7675 72.3884 43.5236 72.7028 44.5222 72.7314C45.4922 72.7171 46.2483 72.4456 46.8046 71.9025C47.361 71.3595 47.6463 70.6164 47.6606 69.6589C47.6463 68.7015 47.3752 68.0012 46.8617 67.5868C46.3481 67.1581 45.6777 66.8008 44.8645 66.5007L44.0229 66.1578C43.5379 65.9577 43.1955 65.7148 42.9958 65.4432C42.7961 65.1574 42.6962 64.7573 42.6962 64.2286C42.6962 63.6141 42.8531 63.1139 43.167 62.7138C43.4808 62.3136 43.9516 62.1136 44.565 62.0993C45.1784 62.1136 45.6634 62.2993 45.9915 62.6709C46.3196 63.0424 46.4765 63.5426 46.448 64.1571H47.361C47.3752 63.2854 47.1185 62.5852 46.6192 62.0564C46.1342 61.4991 45.4494 61.2276 44.5792 61.2133ZM110.628 61.2133C109.672 61.2419 108.973 61.5419 108.502 62.1279C108.046 62.7138 107.746 63.414 107.604 64.2428C107.461 65.0717 107.404 65.872 107.418 66.6579C107.404 67.4582 107.432 68.3299 107.532 69.2588C107.632 70.1877 107.903 70.988 108.36 71.6596C108.816 72.3313 109.558 72.6742 110.599 72.7028C111.612 72.6742 112.34 72.3741 112.811 71.8025C113.281 71.2309 113.567 70.5164 113.695 69.6732C113.823 68.8301 113.866 68.0012 113.852 67.1867C113.866 66.3578 113.823 65.5004 113.724 64.5858C113.624 63.6712 113.338 62.8853 112.882 62.2422C112.44 61.5848 111.684 61.2419 110.628 61.2133ZM130.186 61.2133C129.23 61.2419 128.517 61.5419 128.06 62.1279C127.604 62.7138 127.304 63.414 127.176 64.2428C127.033 65.0717 126.976 65.872 126.99 66.6579C126.976 67.4582 127.005 68.3299 127.104 69.2588C127.204 70.1877 127.475 70.988 127.932 71.6596C128.388 72.3313 129.13 72.6742 130.157 72.7028C130.885 72.6885 131.484 72.4885 131.94 72.0883C132.397 71.6882 132.739 71.188 132.953 70.5878C133.167 69.9876 133.267 69.3588 133.253 68.7301H132.297C132.297 69.4446 132.154 70.1305 131.869 70.8022C131.584 71.4595 131.042 71.8168 130.257 71.8597C129.472 71.8311 128.916 71.531 128.588 70.9451C128.26 70.3592 128.06 69.6875 128.003 68.9158C127.946 68.1441 127.932 67.4725 127.946 66.8723C127.932 66.3435 127.946 65.7148 128.003 64.9717C128.06 64.2286 128.246 63.5712 128.559 62.9853C128.873 62.3994 129.401 62.0993 130.157 62.0707C130.885 62.0993 131.398 62.3565 131.712 62.871C132.026 63.3711 132.183 63.9713 132.226 64.643H133.167C133.153 63.6855 132.91 62.8853 132.411 62.2422C131.912 61.5848 131.17 61.2419 130.186 61.2133ZM11.8402 61.4848V72.4456H12.7817V67.2867H13.766C14.408 67.2581 14.95 67.3439 15.4065 67.5154C15.863 67.7011 16.1198 68.1441 16.1911 68.8444C16.2054 69.2874 16.2339 69.8733 16.2767 70.6021C16.3195 71.3309 16.4336 71.9454 16.6334 72.4456H17.6605V72.317C17.4893 72.2026 17.3609 71.9597 17.3038 71.5882C17.2325 71.2166 17.204 70.845 17.1897 70.4449C17.1754 70.0448 17.1754 69.759 17.1612 69.5589C17.1754 68.873 17.0898 68.2871 16.9044 67.8298C16.7189 67.3725 16.3195 67.0438 15.7061 66.8866V66.858C16.2767 66.7151 16.6904 66.3864 16.9472 65.872C17.204 65.3718 17.3324 64.8431 17.3181 64.2857C17.3038 63.1996 16.99 62.4565 16.3766 62.0421C15.7632 61.642 14.95 61.4419 13.9372 61.4705H11.8402V61.4848ZM27.4037 61.4848V69.5589C27.3895 70.5735 27.632 71.3452 28.1027 71.8882C28.5735 72.4313 29.3295 72.7028 30.3709 72.7171C31.5264 72.7028 32.3253 72.3741 32.7675 71.7168C33.1955 71.0737 33.4094 70.202 33.3809 69.1159V61.4848H32.4251V69.3445C32.4394 70.1019 32.311 70.7021 32.0257 71.1594C31.7404 71.6167 31.184 71.8454 30.3424 71.8597C29.5435 71.8597 29.0014 71.6453 28.7304 71.2309C28.4594 70.8165 28.331 70.2163 28.3452 69.4303V61.4705H27.4037V61.4848ZM35.4351 61.4848V72.4456H40.4708V71.6024H36.3909V67.1295H40.0428V66.2864H36.3909V62.3422H40.3995V61.4991H35.4351V61.4848ZM48.5165 61.4848V62.3279H50.9986V72.4456H51.9544V62.3279H54.4366V61.4848H48.5165ZM57.8032 61.4848L54.8788 72.4456H55.7918L56.6763 69.073H60.0001L60.856 72.4456H61.8261L58.8874 61.4848H57.8032ZM66.2483 61.4848V72.4456H67.2041V67.1295H70.856V66.2864H67.2041V62.3422H71.284V61.4991H66.2483V61.4848ZM72.8675 61.4848V72.4456H73.8233V61.4848H72.8675ZM76.0487 61.4848V72.4456H81.0415V71.6024H76.9902V61.4848H76.0487ZM84.5366 61.4848L81.6121 72.4456H82.5251L83.4096 69.073H86.7477L87.6036 72.4456H88.5736L85.635 61.4848H84.5366ZM89.6578 61.4848V72.4456H90.6136V67.2867H91.5836C92.2256 67.2581 92.7677 67.3439 93.2242 67.5154C93.6807 67.7011 93.9517 68.1441 94.023 68.8444C94.0373 69.2874 94.0658 69.8733 94.1086 70.6021C94.1514 71.3309 94.2655 71.9454 94.4652 72.4456H95.4924V72.317C95.3212 72.2026 95.1928 71.9597 95.1357 71.5882C95.0644 71.2166 95.0359 70.845 95.0216 70.4449C95.0073 70.0448 95.0073 69.759 94.9931 69.5589C95.0073 68.873 94.9217 68.2871 94.7363 67.8298C94.5508 67.3725 94.1514 67.0438 93.538 66.8866V66.858C94.1086 66.7151 94.5223 66.3864 94.7791 65.872C95.0359 65.3718 95.15 64.8431 95.15 64.2857C95.1357 63.1996 94.8219 62.4565 94.2085 62.0421C93.5951 61.642 92.7819 61.4419 91.7691 61.4705H89.6578V61.4848ZM97.0901 61.4848V72.4456H98.0459V62.428H98.0744L100.813 72.4456H101.826L104.537 62.428H104.565V72.4456H105.521V61.4848H103.98L101.327 71.0451H101.298L98.7021 61.4848H97.0901ZM115.664 61.4848V72.4456H116.619V63.0567H116.648L120.699 72.4456H121.855V61.4848H120.913V70.9022H120.885L116.848 61.4848H115.664ZM123.98 61.4848V72.4456H124.936V61.4848H123.98ZM137.304 61.4848L134.366 72.4456H135.278L136.163 69.073H139.487L140.343 72.4456H141.313L138.374 61.4848H137.304ZM6.80451 62.0707C7.57484 62.0993 8.11693 62.3994 8.44503 62.9853C8.77314 63.5712 8.97285 64.2429 9.04418 65.0002C9.1155 65.7576 9.14403 66.415 9.12977 66.9866C9.14403 67.5297 9.12977 68.187 9.07271 68.9444C9.01565 69.7018 8.8302 70.3735 8.51636 70.9451C8.20252 71.531 7.6747 71.8311 6.91863 71.8597C6.13404 71.8311 5.57769 71.531 5.24959 70.9451C4.92148 70.3592 4.73603 69.6875 4.66471 68.9158C4.60764 68.1441 4.57911 67.4725 4.59338 66.8723C4.57911 66.315 4.60764 65.6719 4.67897 64.9288C4.7503 64.1857 4.95001 63.5283 5.26385 62.9567C5.56343 62.3994 6.09124 62.0993 6.80451 62.0707ZM22.2254 62.0707C22.9957 62.0993 23.5378 62.3994 23.8659 62.9853C24.194 63.5712 24.3937 64.2429 24.465 65.0002C24.5364 65.7576 24.5649 66.415 24.5506 66.9866C24.5649 67.5154 24.5506 68.1584 24.4936 68.8872C24.4365 69.6161 24.2653 70.2734 23.98 70.845L22.8673 69.9447L22.3395 70.6021L23.4522 71.4881C23.3096 71.6167 23.1384 71.7168 22.9529 71.7739C22.7675 71.8311 22.5535 71.874 22.3252 71.874C21.5406 71.8454 20.9843 71.5453 20.6562 70.9594C20.3281 70.3735 20.1426 69.7018 20.0713 68.9301C20.0143 68.1584 19.9857 67.4868 20 66.8866C19.9857 66.3293 20.0143 65.6862 20.0856 64.9431C20.1569 64.2 20.3566 63.5426 20.6705 62.971C20.9843 62.3994 21.4979 62.0993 22.2254 62.0707ZM110.585 62.0707C111.355 62.0993 111.898 62.3994 112.226 62.9853C112.554 63.5712 112.753 64.2429 112.825 65.0002C112.896 65.7576 112.925 66.415 112.91 66.9866C112.925 67.5297 112.91 68.187 112.853 68.9444C112.796 69.7018 112.611 70.3735 112.297 70.9451C111.983 71.531 111.455 71.8311 110.699 71.8597C109.915 71.8311 109.358 71.531 109.03 70.9451C108.702 70.3592 108.517 69.6875 108.445 68.9158C108.388 68.1441 108.36 67.4725 108.374 66.8723C108.36 66.315 108.388 65.6719 108.46 64.9288C108.531 64.1857 108.731 63.5283 109.044 62.9567C109.344 62.3994 109.872 62.0993 110.585 62.0707ZM12.7817 62.3279H14.1512C14.893 62.3136 15.4493 62.4422 15.8202 62.7423C16.1911 63.0282 16.3766 63.5712 16.3766 64.3572C16.3623 65.0002 16.2197 65.4718 15.9486 65.7719C15.6776 66.072 15.3923 66.2578 15.0927 66.3293C14.7931 66.415 14.5791 66.4436 14.4508 66.4293H12.7817V62.3279ZM90.5993 62.3279H91.9688C92.7106 62.3136 93.267 62.4422 93.6379 62.7423C94.0088 63.0282 94.1942 63.5712 94.1942 64.3572C94.1799 65.0002 94.0373 65.4718 93.7663 65.7719C93.4952 66.072 93.2099 66.2578 92.9103 66.3293C92.6108 66.415 92.3968 66.4436 92.2684 66.4293H90.5993V62.3279ZM58.3311 62.6852H58.3596L59.8004 68.2299H56.876L58.3311 62.6852ZM85.0644 62.6852H85.0929L86.548 68.2299H83.6236L85.0644 62.6852ZM137.832 62.6852H137.861L139.301 68.2299H136.391L137.832 62.6852ZM89.8718 73.8032L89.8005 73.8889L88.1885 75.9182L87.9174 76.2611H88.3597H89.1015H89.1871L89.2441 76.1897L91.2555 74.1604L91.6264 73.8032H91.1129H89.9717H89.8718ZM71.712 76.3612C70.7134 76.3898 69.9288 76.7184 69.4295 77.3472C68.9445 77.9617 68.6307 78.7048 68.488 79.5622C68.3453 80.4054 68.2883 81.2199 68.3026 82.0059C68.2883 82.8205 68.3311 83.6922 68.4309 84.6211C68.5308 85.5785 68.8161 86.4217 69.3011 87.1219C69.8004 87.8507 70.6278 88.2366 71.6977 88.2651C72.7533 88.2366 73.5665 87.9222 74.08 87.2791C74.5651 86.6646 74.8789 85.9215 75.0073 85.0498C75.1357 84.2066 75.1785 83.3635 75.1642 82.5347C75.1642 82.5347 75.1642 82.5347 75.1642 82.5204C75.1785 81.6915 75.1357 80.8198 75.0358 79.8909C74.936 78.9477 74.6364 78.1189 74.1514 77.433C73.6521 76.747 72.8247 76.3898 71.712 76.3612ZM43.0528 76.6184L43.01 76.7756L40.0714 87.7364L40 88.0079H40.2854H41.1983H41.3695L41.4123 87.8507L42.254 84.6354H45.2497L46.0771 87.8507L46.1199 88.0079H46.2911H47.2611H47.5464L47.4751 87.7364L44.5222 76.7756L44.4794 76.6184H44.3082H43.2098H43.0528ZM48.274 76.6184V76.8328V87.8078V88.0222H48.4879H53.4951H53.7091V87.8078V86.9647V86.7361H53.4951H49.6577V76.8328V76.6184H49.4437H48.4879H48.274ZM54.8075 76.6184V76.8328V87.8078V88.0222H55.0215H55.963H56.177V87.8078V76.8328V76.6184H55.963H55.0215H54.8075ZM57.8318 76.6184V76.8328V87.8078V88.0222H58.0457H59.0015H59.2155V87.8078V82.8633H59.9716C60.585 82.8348 61.1128 82.9205 61.5265 83.0777C61.8974 83.2206 62.1114 83.5636 62.1827 84.2209V84.2352C62.197 84.6782 62.2255 85.2641 62.2683 85.9787C62.3111 86.7218 62.4252 87.3505 62.6249 87.8793L62.682 88.0222H62.8246H63.8518H64.0657V87.8078V87.6792V87.5649L63.9659 87.5077C63.866 87.4363 63.7519 87.2648 63.6948 86.9218C63.6378 86.5646 63.595 86.193 63.5807 85.8072C63.5664 85.4213 63.5664 85.1355 63.5522 84.9355V84.9212C63.5664 84.2209 63.4809 83.6064 63.2811 83.1206C63.1242 82.7347 62.8246 82.4489 62.4252 82.2346C62.8104 82.0345 63.11 81.7344 63.3097 81.3343C63.5807 80.8055 63.7091 80.2339 63.7091 79.648C63.6948 78.519 63.3525 77.6902 62.682 77.2329C62.0258 76.8042 61.1699 76.6041 60.1285 76.6327H58.0172H57.8318V76.6184ZM65.3496 76.6184V76.8328V87.8078V88.0222H65.5636H66.5194H66.7334V87.8078V76.8328V76.6184H66.5194H65.5636H65.3496ZM79.8718 76.6184V76.8328V87.8078V88.0222H80.0857H82.2256C82.2256 88.0222 82.2256 88.0222 82.2398 88.0222C83.1671 88.0508 83.9659 87.9079 84.6079 87.5935C85.2784 87.2648 85.7776 86.5932 86.12 85.65C86.3483 85.0212 86.4766 84.321 86.5194 83.5779C86.5622 82.8348 86.5765 82.1488 86.5622 81.5057C86.5622 80.9055 86.4766 80.2625 86.3055 79.5622C86.1343 78.862 85.849 78.2475 85.4638 77.7616L85.4495 77.7473H85.4353C84.9645 77.2615 84.4224 76.9328 83.8375 76.8042C83.2812 76.6756 82.6821 76.6184 82.0401 76.6327H80.0857H79.8718V76.6184ZM88.1029 76.6184V76.8328V87.8078V88.0222H88.3169H89.2584H89.4724V87.8078V76.8328V76.6184H89.2584H88.3169H88.1029ZM93.3525 76.6184L93.3098 76.7756L90.3854 87.7364L90.314 88.0079H90.5851H91.4981H91.6692L91.712 87.8507L92.5537 84.6354H95.5494L96.3768 87.8507L96.4196 88.0079H96.5908H97.5608H97.8319L97.7606 87.7364L94.8219 76.7756L94.7791 76.6184H94.6222H93.5237H93.3525ZM98.2028 76.6184V76.8328V77.6759V77.8902H98.4168H102.354L98.0173 86.8218L97.9888 86.8647V86.9075V87.7936V88.0079H98.2028H103.709H103.923V87.7936V86.9504V86.7361H103.709H99.5437L103.895 77.7473L103.923 77.7045V77.6616V76.8328V76.6184H103.709H98.4168H98.2028ZM71.6692 77.633H71.6834C72.3825 77.6616 72.8389 77.9331 73.1242 78.4476C73.4381 79.0049 73.6235 79.6337 73.6949 80.3768C73.7662 81.1342 73.7947 81.7773 73.7804 82.3346V82.3489C73.7947 82.8919 73.7805 83.535 73.7234 84.2781C73.6663 85.0069 73.4951 85.65 73.1956 86.2073C72.9245 86.7218 72.4823 86.979 71.7976 87.0219H71.7833C71.0558 86.9933 70.5993 86.7218 70.2997 86.2073C69.9859 85.65 69.8004 85.0069 69.7434 84.2638C69.6863 83.5064 69.6578 82.8348 69.672 82.2488V82.2346C69.6578 81.6915 69.6863 81.0484 69.7576 80.3196C69.8289 79.6051 70.0144 78.9763 70.314 78.4333C70.5993 77.9045 71.013 77.6616 71.6692 77.633ZM82.1257 77.876C82.3825 77.8617 82.6535 77.876 82.9388 77.8902C83.2955 77.9045 83.6093 77.9903 83.8661 78.1189C84.4938 78.5333 84.8789 79.1192 85.0073 79.9338C85.15 80.7912 85.207 81.5772 85.1785 82.306V82.3203C85.1928 82.7776 85.1642 83.2921 85.1072 83.878C85.0501 84.4496 84.9217 84.9926 84.7077 85.4928C84.508 85.9787 84.1942 86.3073 83.7662 86.536C83.538 86.636 83.2955 86.6932 83.0244 86.7075C82.7391 86.7361 82.4538 86.7503 82.197 86.7361H81.2698V77.8902H81.8689H81.8832H81.8975C81.9545 77.8902 82.0401 77.876 82.1257 77.876ZM59.2012 77.8902H60.3567C61.07 77.876 61.5693 78.0046 61.8831 78.2618C62.1827 78.4905 62.3539 78.962 62.3539 79.7051C62.3396 80.3196 62.197 80.7341 61.983 80.977C61.7405 81.2485 61.4837 81.4057 61.2412 81.4772C60.9416 81.5486 60.7419 81.5772 60.6706 81.5772H60.6563H60.642H59.187V77.8902H59.2012ZM43.7518 78.8191L44.9359 83.3635H42.5678L43.7518 78.8191ZM94.0658 78.8191L95.2498 83.3635H92.8818L94.0658 78.8191Z" fill="white"/>
<path d="M0 54.6683V55.8116H144.936V54.6683H0Z" fill="white"/>
<path d="M27.5322 5.58044C14.7932 5.58044 4.46509 15.9267 4.46509 28.6881C4.46509 41.4495 14.7932 51.7958 27.5322 51.7958C40.2712 51.7958 50.5993 41.4495 50.5993 28.6881C50.5993 15.9267 40.2712 5.58044 27.5322 5.58044ZM27.5322 6.43787C39.8004 6.43787 49.7434 16.3983 49.7434 28.6881C49.7434 40.9779 39.8004 50.9384 27.5322 50.9384C15.264 50.9384 5.32101 40.9779 5.32101 28.6881C5.32101 16.3983 15.264 6.43787 27.5322 6.43787ZM27.5322 7.85263C16.0486 7.85263 6.71902 17.1843 6.71902 28.6881C6.71902 40.192 16.0343 49.5379 27.5179 49.5379C39.0016 49.5379 48.3169 40.192 48.3169 28.6881C48.3169 17.1843 39.0158 7.85263 27.5322 7.85263ZM27.5322 8.71006C38.5593 8.71006 47.4752 17.6559 47.4752 28.6881C47.4752 39.7204 38.5593 48.6662 27.5322 48.6662C16.5051 48.6662 7.57494 39.7347 7.57494 28.6881C7.57494 17.6416 16.5051 8.71006 27.5322 8.71006ZM27.5322 10.1248C17.3039 10.1248 8.98721 18.4419 8.98721 28.7024C8.98721 38.963 17.3039 47.28 27.5322 47.28C37.7605 47.28 46.0772 38.963 46.0772 28.7024C46.0772 18.4419 37.7605 10.1248 27.5322 10.1248ZM27.5322 10.9822C37.304 10.9822 45.2213 18.8992 45.2213 28.6881C45.2213 38.4771 37.304 46.4083 27.5322 46.4083C17.7604 46.4083 9.84313 38.4771 9.84313 28.6881C9.84313 18.8992 17.7604 10.9822 27.5322 10.9822ZM27.5322 12.397C18.545 12.397 11.2554 19.6994 11.2554 28.7024C11.2554 37.7054 18.545 45.0079 27.5322 45.0079C36.5194 45.0079 43.809 37.6911 43.809 28.6881C43.809 19.6851 36.5194 12.397 27.5322 12.397ZM27.5322 13.2401C36.0486 13.2401 42.9531 20.1567 42.9531 28.6881C42.9531 37.2195 36.0629 44.1361 27.5322 44.1361C19.0015 44.1361 12.1113 37.2195 12.1113 28.6881C12.1113 20.1567 19.0158 13.2401 27.5322 13.2401ZM27.5322 14.6549C19.8004 14.6549 13.5093 20.9427 13.5093 28.6881C13.5093 36.4336 19.7861 42.7214 27.5322 42.7214C35.2783 42.7214 41.5408 36.4336 41.5408 28.6881C41.5408 20.9427 35.264 14.6549 27.5322 14.6549ZM27.5322 15.5123C34.8075 15.5123 40.6849 21.4 40.6849 28.6881C40.6849 35.9763 34.8075 41.8639 27.5322 41.8639C20.2569 41.8639 14.3653 35.962 14.3653 28.6881C14.3653 21.4143 20.2569 15.5123 27.5322 15.5123Z" fill="white"/>
<path d="M52.0258 6.1521V6.58081V51.1957H52.8817V7.00953H82.5822L82.839 6.1521H52.4537H52.0258ZM54.2226 8.36712V8.79584V51.1957H55.0785V9.22455H81.8975L82.1685 8.36712H54.6506H54.2226ZM56.4338 10.5821V11.0109V51.1957H57.2897V11.4396H81.227L81.4838 10.5821H56.8617H56.4338ZM58.6449 12.7829V13.2116V51.1957H59.5008V13.6403H80.5565L80.8276 12.7829H59.0729H58.6449ZM60.8418 14.9979V15.4266V51.1957H61.6977V15.8553H79.8575L80.1143 14.9979H61.2697H60.8418ZM63.1242 23.8723V24.7297H75.0501L75.3069 23.8723H63.1242ZM63.1242 26.073V26.9304H74.3654L74.6221 26.073H63.1242ZM63.1242 28.288V29.1455H73.6806L73.9374 28.288H63.1242ZM63.1242 30.4888V31.3462H72.9959L73.2527 30.4888H63.1242ZM63.1242 32.7038V33.5612H72.3111L72.5822 32.7038H63.1242Z" fill="white"/>
<path d="M84.7933 6.16638L84.6935 6.46648L71.0986 50.6526L70.9274 51.2099H71.8261L85.4353 7.02381H106.077C106.02 6.738 105.977 6.4379 105.92 6.16638H85.1072H84.7933ZM86.3197 8.3814L86.2199 8.68151L73.2954 50.6526L73.1242 51.2099H74.023L86.9474 9.23883H106.462C106.42 8.96731 106.348 8.63863 106.305 8.3814H86.6336H86.3197ZM87.8318 10.5821L87.732 10.8822L75.4923 50.6383L75.3211 51.1957H76.2056L88.4453 11.4396H106.819C106.762 11.1252 106.719 10.8822 106.662 10.5821H88.1171H87.8318ZM89.3582 12.7972L89.2584 13.0973L77.7034 50.6526L77.5322 51.2099H78.431L90.0002 13.6546H107.247C107.19 13.3688 107.147 13.083 107.104 12.7972H89.6721H89.3582ZM90.8846 15.0122L90.7848 15.3123L79.9003 50.6526L79.7291 51.2099H80.6278L91.5123 15.8696H107.618C107.561 15.5838 107.518 15.298 107.475 15.0122H91.1985H90.8846ZM97.3326 17.2987V51.2099H98.1885V17.2987H97.3326ZM99.5294 17.2987V45.1365C99.772 44.5649 100.057 44.0218 100.385 43.4788V17.2987H99.5294ZM101.741 17.2987V41.6353C102.012 41.3209 102.297 41.0208 102.597 40.735V17.2987H101.741ZM103.937 17.2987V39.5918C104.223 39.3774 104.494 39.1774 104.793 38.9916V17.2987H103.937ZM106.149 17.2987V38.2485C106.448 38.1056 106.719 37.9913 107.005 37.8912V17.2987H106.149ZM87.8318 32.6895L87.5608 33.5469H95.8918V32.6895H87.8318ZM87.1471 34.9045L86.8903 35.7619H95.906V34.9045H87.1471ZM86.4766 37.1053L86.2056 37.9627H95.906V37.1053H86.4766ZM85.7919 39.3203L85.5351 40.1777H95.906V39.3203H85.7919ZM85.1072 41.5353L84.8504 42.3927H95.906V41.5353H85.1072Z" fill="white"/>
<path d="M112.197 6.16638C112.426 6.46648 112.654 6.738 112.896 7.02381H116.22H118.103C130.043 7.02381 139.729 16.7127 139.729 28.6882C139.729 40.6493 130.058 50.3525 118.103 50.3525H116.648H114.194C113.952 50.624 113.667 50.9241 113.367 51.2099H117.746C117.946 51.2099 118.16 51.2099 118.36 51.2099C130.657 51.067 140.585 41.0494 140.585 28.7025C140.585 16.2983 130.557 6.22354 118.174 6.18067H118.103H117.746L112.197 6.16638ZM114.194 8.36712C114.48 8.63863 114.808 8.91015 115.179 9.22454H116.591H118.089C128.816 9.22454 137.504 17.9274 137.504 28.6739C137.504 39.4203 128.816 48.1232 118.089 48.1232H116.933H115.649C115.507 48.409 115.35 48.6948 115.179 48.9806H117.732C117.96 48.9806 118.203 48.9806 118.417 48.9806C129.458 48.7949 138.36 39.7776 138.36 28.6882C138.36 17.5273 129.359 8.45286 118.217 8.3814C118.06 8.3814 117.875 8.3814 117.732 8.3814L114.194 8.36712ZM116.919 10.5821C117.261 10.8394 117.632 11.1252 118.06 11.4396H118.089C127.604 11.4396 135.307 19.1564 135.307 28.6882C135.307 38.2199 127.604 45.9368 118.089 45.9368H116.448C116.42 46.0797 116.377 46.2226 116.334 46.3655C116.291 46.5084 116.249 46.6513 116.206 46.7942H117.732C117.932 46.7942 118.146 46.7942 118.331 46.7942C128.189 46.6656 136.149 38.6058 136.149 28.7025C136.149 18.742 128.089 10.6393 118.146 10.5964H118.075H117.718L116.919 10.5821ZM119.986 12.8972C120.157 13.0258 120.3 13.1544 120.414 13.2545C120.685 13.4831 120.956 13.726 121.213 13.969C128.003 15.4123 133.096 21.4429 133.096 28.6739C133.096 36.9766 126.391 43.7075 118.089 43.7075C117.975 43.7075 117.861 43.7075 117.746 43.7075H116.691C116.705 44.0076 116.691 44.2791 116.677 44.5649H117.746H118.274C126.948 44.4648 133.966 37.3911 133.966 28.6739C133.952 20.5569 127.846 13.8404 119.986 12.8972ZM112.097 14.9979C112.097 15.1122 112.097 15.2408 112.112 15.3694C112.126 15.5409 112.14 15.6981 112.14 15.8553H115.464C114.879 15.4552 114.408 15.198 113.923 14.9979H112.097ZM123.01 15.9125C123.353 16.3555 123.667 16.8128 123.952 17.2701C128.075 19.3994 130.899 23.7008 130.899 28.6739C130.899 35.7619 125.179 41.4924 118.089 41.4924C117.975 41.4924 117.861 41.4924 117.746 41.4924H116.891H116.42C116.434 41.5496 116.448 41.621 116.448 41.6782C116.491 41.964 116.52 42.1498 116.548 42.3499H117.732H118.089H118.203C125.692 42.2927 131.741 36.1907 131.741 28.6739C131.755 22.8719 128.117 17.8989 123.01 15.9125Z" fill="white"/>
<path d="M104.893 53.5107C104.665 53.525 104.223 53.4965 103.937 53.4536C101.783 53.1249 100.614 51.9531 100.243 49.7381C100.129 49.095 100.129 48.8949 100.2 48.209C100.3 47.2944 100.414 46.7942 100.714 46.0225C101.741 43.3788 103.88 41.0209 106.434 39.6919C107.418 39.1774 107.675 39.0917 108.888 38.8916C109.9 38.7201 110.086 38.7058 110.685 38.763C111.256 38.8201 111.969 38.9916 112.468 39.1917C112.554 39.2346 112.611 39.2203 112.654 39.1488C112.739 39.0202 112.654 37.7198 112.411 35.8191C112.14 33.6327 109.087 15.641 107.646 7.78123C107.062 4.59446 106.577 1.75066 106.562 1.47914C106.505 0.607418 106.676 0.0643798 107.033 0.00721794C107.518 -0.0785249 108.003 0.607418 108.174 1.65062C108.288 2.29369 108.802 3.39406 109.801 5.12321C110.5 6.3379 111.284 7.39539 112.211 8.39573C113.424 9.69616 114.294 10.425 117.575 12.8544C118.288 13.3831 119.159 14.0548 119.501 14.3549C121.298 15.8839 122.597 17.513 123.338 19.1707C123.752 20.0853 123.866 20.414 124.123 21.4286C124.865 24.3582 124.865 27.4878 124.123 31.9607C123.595 35.1046 122.625 37.2053 121.94 36.6766C121.755 36.5337 121.755 36.2336 121.94 35.319C122.154 34.2329 122.54 31.7178 122.668 30.5317C122.796 29.3027 122.853 27.8165 122.796 26.6161C122.739 25.2728 122.283 23.0006 121.855 21.9002C121.284 20.4283 120.885 19.7281 119.629 17.9846C118.488 16.4127 117.903 15.8125 116.591 14.8836C115.378 14.0262 114.465 13.5832 113.296 13.2831C112.568 13.0973 111.498 12.9687 111.056 12.9973C110.856 13.0115 110.813 13.0401 110.756 13.2688C110.656 13.6117 110.628 14.5692 110.699 15.4695C110.885 17.8417 110.97 18.4276 112.126 25.0013C114.251 37.0195 115.207 42.6786 115.25 43.4074C115.307 44.3791 115.236 45.0508 114.979 45.9654C114.651 47.1372 114.094 48.1804 113.31 49.1664C112.896 49.6809 111.741 50.7813 111.199 51.1814C110.656 51.5815 109.472 52.2675 108.831 52.5533C107.718 53.0534 106.092 53.4393 104.893 53.5107Z" fill="white"/>
</svg>
