<svg width="200" height="200" viewBox="0 0 200 200" fill="none" xmlns="http://www.w3.org/2000/svg">
<mask id="mask0_474_1866" style="mask-type:alpha" maskUnits="userSpaceOnUse" x="0" y="0" width="200" height="200">
<rect width="200" height="200" fill="#67D4FF"/>
</mask>
<g mask="url(#mask0_474_1866)">
<rect width="200" height="200" fill="#ECFDFF"/>
<path fill-rule="evenodd" clip-rule="evenodd" d="M24.0464 200H176.954C175.54 169.446 141.852 145 100.5 145C59.1488 145 25.4604 169.446 24.0464 200Z" fill="#51BFEA"/>
<path d="M120.082 104.356H80.922L76.8115 151.189C76.8115 156.369 87.4186 160.57 100.5 160.57C113.588 160.57 124.193 156.369 124.193 151.189L120.082 104.356" fill="#C0E6F4"/>
<path d="M100.5 141.481C92.492 141.481 85.0038 137.606 78.5542 131.333L78.7773 128.787C85.0459 134.794 92.2967 138.517 100.028 138.665C100.034 138.665 100.041 138.665 100.046 138.665C100.06 138.665 100.07 138.665 100.083 138.665C100.099 138.667 100.117 138.667 100.133 138.667C100.142 138.667 100.149 138.667 100.158 138.667C100.171 138.667 100.184 138.667 100.197 138.667C100.203 138.667 100.213 138.667 100.218 138.667C100.238 138.667 100.256 138.667 100.275 138.667C100.283 138.667 100.287 138.667 100.294 138.667C100.311 138.667 100.326 138.667 100.344 138.667C100.347 138.667 100.353 138.667 100.357 138.67C100.377 138.67 100.397 138.67 100.418 138.67C100.423 138.67 100.428 138.67 100.433 138.67C100.451 138.67 100.468 138.67 100.487 138.67C100.49 138.67 100.492 138.67 100.494 138.67C100.496 138.67 100.498 138.67 100.5 138.67C108.412 138.67 115.826 134.9 122.222 128.765L122.451 131.367C116.004 137.633 108.506 141.481 100.5 141.481" fill="#83D0EE"/>
<path d="M144.2 84.9054C140.988 82.9333 136.274 86.7322 133.674 93.3921C131.07 100.05 131.566 107.047 134.774 109.019C137.986 110.991 142.7 107.19 145.3 100.532C147.904 93.8698 147.409 86.875 144.2 84.9054Z" fill="#8CDBF8"/>
<path d="M56.8043 84.9053C60.0127 82.9332 64.729 86.7322 67.3326 93.3921C69.9311 100.05 69.4397 107.047 66.2274 109.019C63.0152 110.991 58.3028 107.19 55.6994 100.532C53.1007 93.8697 53.5921 86.875 56.8043 84.9053" fill="#8CDBF8"/>
<path d="M144.125 73.011C144.125 103.851 124.594 138.669 100.5 138.669C76.4076 138.669 56.8755 103.851 56.8755 73.011C56.8755 42.1761 76.4076 26.9999 100.5 26.9999C124.594 26.9999 144.125 42.1761 144.125 73.011Z" fill="#C0E6F4"/>
<path d="M78.5542 131.333C78.5532 131.333 78.5532 131.333 78.5532 131.333L78.7773 128.787L78.5542 131.333Z" fill="#DEA813"/>
<path d="M78.7768 128.787C73.5028 123.73 68.9248 117.062 65.3366 109.541C68.9258 117.06 73.5035 123.73 78.7768 128.784V128.787V128.787ZM57.7945 84.9103C57.2366 81.2319 56.9242 77.5388 56.8809 73.8974C56.9242 77.5388 57.2366 81.2319 57.7955 84.9103H57.7945ZM56.8819 72.0287C56.8819 72.0262 56.8819 72.0262 56.8819 72.0238C56.8819 72.0262 56.8819 72.0262 56.8819 72.0287ZM56.8838 71.913C56.8846 71.812 56.8865 71.7136 56.8885 71.6126C56.8865 71.7136 56.8846 71.812 56.8838 71.913ZM56.8944 71.364C56.8981 71.1768 56.903 70.9873 56.9087 70.8026C56.903 70.9873 56.8981 71.1768 56.8944 71.364ZM56.9106 70.7534C56.9126 70.7041 56.9136 70.6549 56.9153 70.6056C56.9136 70.6549 56.9126 70.7041 56.9106 70.7534ZM56.9163 70.5908C56.9173 70.5391 56.9193 70.4825 56.9222 70.4308C56.9193 70.4825 56.9173 70.5391 56.9163 70.5908ZM56.9222 70.4185C56.9242 70.3643 56.9259 70.3102 56.9279 70.256C56.9259 70.3102 56.9242 70.3643 56.9222 70.4185ZM56.9289 70.2462C57.9359 44.5988 72.9959 30.4715 92.6434 27.5638C72.9959 30.469 57.9359 44.5988 56.9289 70.2462ZM92.6444 27.5638C92.6665 27.5613 92.6875 27.5588 92.7096 27.5539C92.6875 27.5588 92.6665 27.5613 92.6444 27.5638ZM92.7146 27.5539C92.802 27.5416 92.8906 27.5292 92.979 27.5169C92.8906 27.5292 92.802 27.5416 92.7146 27.5539ZM92.9819 27.5145C93.0694 27.5046 93.1597 27.4923 93.2483 27.4776C93.1597 27.4923 93.0694 27.5046 92.9819 27.5145ZM93.253 27.4776C93.2742 27.4751 93.2944 27.4726 93.3146 27.4702C93.2944 27.4726 93.2742 27.4751 93.253 27.4776ZM93.3232 27.4702C93.3436 27.4652 93.3628 27.4628 93.382 27.4603C93.3628 27.4628 93.3436 27.4652 93.3232 27.4702ZM93.3983 27.4578C93.4148 27.4554 93.432 27.4554 93.4492 27.4529C93.432 27.4554 93.4148 27.4554 93.3983 27.4578ZM93.4675 27.4505C93.484 27.448 93.5002 27.4455 93.5167 27.4431C93.5002 27.4455 93.484 27.448 93.4675 27.4505ZM93.532 27.4407C93.5502 27.4382 93.5667 27.4357 93.5849 27.4333C93.5667 27.4357 93.5502 27.4382 93.532 27.4407ZM93.5965 27.4333C93.6147 27.4308 93.6339 27.4283 93.6521 27.4259C93.6319 27.4283 93.6157 27.4308 93.5965 27.4333ZM93.6686 27.4234C93.6859 27.4209 93.7031 27.4185 93.7206 27.416C93.7031 27.4185 93.6859 27.4209 93.6686 27.4234ZM93.7358 27.416C93.7523 27.4135 93.7696 27.4111 93.7858 27.4086C93.7696 27.4111 93.7523 27.4135 93.7358 27.416ZM93.8156 27.4061C93.8282 27.4037 93.8417 27.4012 93.8543 27.4012C93.8397 27.4012 93.8291 27.4037 93.8156 27.4061ZM93.8821 27.3963C93.8956 27.3938 93.9072 27.3938 93.9215 27.3914C93.9089 27.3938 93.8946 27.3963 93.8821 27.3963ZM93.9532 27.3889C93.9658 27.3864 93.9764 27.3864 93.9899 27.384C93.9783 27.3864 93.9648 27.3864 93.9532 27.3889ZM94.0177 27.3815C94.031 27.379 94.0436 27.3766 94.0571 27.3766C94.0436 27.3766 94.031 27.379 94.0177 27.3815ZM94.0822 27.3717C94.0965 27.3717 94.112 27.3692 94.1253 27.3692C94.1101 27.3692 94.0985 27.3717 94.0822 27.3717ZM94.1485 27.3643C94.164 27.3643 94.1773 27.3618 94.1928 27.3594C94.1783 27.3618 94.163 27.3643 94.1485 27.3643ZM94.2206 27.3569C94.2351 27.3545 94.2465 27.3545 94.261 27.352C94.2465 27.3545 94.2351 27.3545 94.2206 27.3569ZM94.2851 27.3495C94.3004 27.3471 94.3139 27.3471 94.3292 27.3446C94.3139 27.3471 94.3004 27.3471 94.2851 27.3495ZM94.3553 27.3421C94.3688 27.3397 94.3821 27.3372 94.3966 27.3372C94.3841 27.3372 94.3678 27.3397 94.3553 27.3421ZM94.4245 27.3323C94.439 27.3323 94.4506 27.3298 94.4648 27.3298C94.4506 27.3298 94.439 27.3323 94.4245 27.3323ZM94.49 27.3249C94.5042 27.3249 94.5188 27.3224 94.5333 27.32C94.5188 27.3224 94.5042 27.3249 94.49 27.3249ZM94.5601 27.3175C94.5737 27.3175 94.586 27.3151 94.6005 27.3151C94.5879 27.3151 94.5727 27.3175 94.5601 27.3175ZM94.6369 27.3102C94.6475 27.3077 94.6581 27.3077 94.6677 27.3077C94.6581 27.3077 94.6475 27.3077 94.6369 27.3102ZM94.7064 27.3028C94.717 27.3028 94.7266 27.3003 94.7362 27.2978C94.7266 27.3003 94.717 27.3028 94.7064 27.3028ZM94.7736 27.2954C94.7852 27.2929 94.7928 27.2929 94.8044 27.2929C94.7948 27.2929 94.7832 27.2929 94.7736 27.2954ZM94.8391 27.288C94.8507 27.288 94.8612 27.2855 94.8726 27.2855C94.8612 27.2855 94.8507 27.288 94.8391 27.288ZM94.9122 27.2806C94.9208 27.2806 94.9324 27.2781 94.94 27.2781C94.9324 27.2781 94.9208 27.2806 94.9122 27.2806ZM94.9804 27.2732C94.99 27.2732 94.9986 27.2707 95.0082 27.2707C95.0006 27.2707 94.989 27.2732 94.9804 27.2732ZM95.0555 27.2658C95.0621 27.2658 95.0688 27.2658 95.0767 27.2633C95.0688 27.2658 95.0621 27.2658 95.0555 27.2658ZM95.1247 27.2584C95.1303 27.2584 95.139 27.2584 95.1449 27.2584C95.1382 27.2584 95.1313 27.2584 95.1247 27.2584ZM95.1929 27.2535C95.1988 27.2535 95.2074 27.2511 95.2131 27.2511C95.2064 27.2511 95.1998 27.2535 95.1929 27.2535ZM95.2584 27.2461C95.265 27.2461 95.2746 27.2461 95.2815 27.2437C95.2746 27.2461 95.265 27.2461 95.2584 27.2461ZM95.3266 27.2412C95.3342 27.2387 95.3431 27.2387 95.3507 27.2387C95.3431 27.2387 95.3342 27.2387 95.3266 27.2412ZM95.3921 27.2338C95.4007 27.2338 95.4103 27.2314 95.4189 27.2314C95.4103 27.2314 95.4007 27.2338 95.3921 27.2338ZM95.4679 27.2264C95.4738 27.2264 95.4805 27.2264 95.4864 27.224C95.4805 27.2264 95.4738 27.2264 95.4679 27.2264ZM95.5363 27.2215C95.542 27.219 95.5496 27.219 95.5555 27.219C95.5496 27.219 95.542 27.219 95.5363 27.2215ZM95.6045 27.2141C95.6104 27.2141 95.6181 27.2141 95.6237 27.2141C95.6181 27.2141 95.6104 27.2141 95.6045 27.2141ZM95.672 27.2092C95.6777 27.2092 95.6863 27.2067 95.6922 27.2067C95.6853 27.2067 95.6786 27.2067 95.672 27.2092ZM95.7402 27.2018C95.7459 27.2018 95.7555 27.2018 95.7614 27.2018C95.7537 27.2018 95.7468 27.2018 95.7402 27.2018ZM95.8064 27.1968C95.8133 27.1968 95.8229 27.1969 95.8296 27.1944C95.8229 27.1969 95.8133 27.1968 95.8064 27.1968ZM95.8749 27.192C95.8815 27.192 95.8911 27.1895 95.8988 27.1895C95.8911 27.1895 95.8815 27.192 95.8749 27.192ZM95.9507 27.1846C95.9556 27.1846 95.9623 27.1846 95.9662 27.1846C95.9603 27.1846 95.9566 27.1846 95.9507 27.1846ZM96.0228 27.1797C96.0278 27.1797 96.0307 27.1797 96.0344 27.1772C96.0307 27.1797 96.0278 27.1797 96.0228 27.1797ZM96.0903 27.1747C96.094 27.1723 96.0999 27.1723 96.1036 27.1723C96.0999 27.1723 96.094 27.1723 96.0903 27.1747ZM96.1585 27.1673C96.1634 27.1673 96.1681 27.1673 96.173 27.1673C96.1681 27.1673 96.1634 27.1673 96.1585 27.1673ZM96.2267 27.1624C96.2306 27.1624 96.2373 27.1624 96.2412 27.1624C96.2373 27.1624 96.2306 27.1624 96.2267 27.1624ZM96.2971 27.1575C96.3018 27.1575 96.3057 27.1575 96.3104 27.1575C96.3057 27.1575 96.3018 27.1575 96.2971 27.1575ZM96.3643 27.1525C96.3693 27.1525 96.3749 27.1525 96.3798 27.1501C96.3749 27.1525 96.3693 27.1525 96.3643 27.1525ZM96.4345 27.1476C96.4394 27.1476 96.4441 27.1452 96.448 27.1452C96.4441 27.1452 96.4394 27.1476 96.4345 27.1476ZM96.5037 27.1427C96.5086 27.1427 96.5125 27.1402 96.5172 27.1402C96.5125 27.1402 96.5086 27.1427 96.5037 27.1427ZM96.5741 27.1378C96.5768 27.1378 96.5827 27.1353 96.5854 27.1353C96.5817 27.1353 96.5788 27.1378 96.5741 27.1378ZM96.6423 27.1329C96.6462 27.1304 96.6509 27.1304 96.6549 27.1304C96.6509 27.1304 96.6462 27.1304 96.6423 27.1329ZM96.7125 27.128C96.7164 27.128 96.7211 27.1255 96.724 27.1255C96.7191 27.1255 96.7174 27.128 96.7125 27.128ZM96.7817 27.123C96.7846 27.123 96.7905 27.123 96.7922 27.123C96.7885 27.123 96.7866 27.123 96.7817 27.123ZM96.8528 27.1181C96.8558 27.1181 96.8587 27.1181 96.8617 27.1181C96.8587 27.1181 96.8558 27.1181 96.8528 27.1181ZM96.9222 27.1132C96.9249 27.1132 96.9279 27.1132 96.9309 27.1132C96.9279 27.1132 96.9249 27.1132 96.9222 27.1132ZM96.9934 27.1082C96.9954 27.1082 96.9981 27.1082 97 27.1082C96.9971 27.1082 96.9961 27.1082 96.9934 27.1082ZM97.0636 27.1033C97.0645 27.1033 97.0675 27.1033 97.0692 27.1033C97.0665 27.1033 97.0665 27.1033 97.0636 27.1033ZM97.1347 27.1009C97.1357 27.1009 97.1367 27.1009 97.1387 27.1009C97.1367 27.1009 97.1357 27.1009 97.1347 27.1009ZM97.2039 27.0959C97.2059 27.0959 97.2059 27.0959 97.2078 27.0959C97.2059 27.0959 97.2059 27.0959 97.2039 27.0959ZM97.275 27.091H97.276H97.275ZM97.3366 27.0885C97.3396 27.0885 97.3435 27.0885 97.3462 27.0885C97.3435 27.0885 97.3396 27.0885 97.3366 27.0885ZM97.4068 27.0836C97.4097 27.0836 97.4127 27.0836 97.4156 27.0836C97.4127 27.0836 97.4097 27.0836 97.4068 27.0836ZM97.4772 27.0811C97.4799 27.0811 97.4819 27.0811 97.4848 27.0811C97.4819 27.0811 97.4799 27.0811 97.4772 27.0811ZM97.5493 27.0762C97.5501 27.0762 97.552 27.0762 97.554 27.0762C97.552 27.0762 97.5501 27.0762 97.5493 27.0762ZM97.6205 27.0737C97.6222 27.0737 97.6222 27.0737 97.6232 27.0737C97.6222 27.0737 97.6222 27.0737 97.6205 27.0737ZM98.3128 27.0418C98.3138 27.0418 98.3177 27.0418 98.3195 27.0418C98.3167 27.0418 98.3158 27.0418 98.3128 27.0418ZM98.3763 27.0393C98.381 27.0393 98.3859 27.0393 98.3899 27.0393C98.3859 27.0393 98.381 27.0393 98.3763 27.0393ZM98.4399 27.0368C98.4455 27.0368 98.4541 27.0368 98.4601 27.0368C98.4532 27.0368 98.4465 27.0368 98.4399 27.0368ZM98.511 27.0344C98.5167 27.0344 98.5236 27.0344 98.5302 27.0344C98.5236 27.0344 98.5167 27.0344 98.511 27.0344ZM98.5832 27.0319C98.5868 27.0319 98.5947 27.0319 98.5994 27.0319C98.5937 27.0319 98.5888 27.0319 98.5832 27.0319ZM98.6573 27.0294C98.66 27.0294 98.6659 27.0294 98.6686 27.0294C98.6649 27.0294 98.6619 27.0294 98.6573 27.0294ZM98.7311 27.027C98.7331 27.027 98.737 27.027 98.738 27.027C98.736 27.027 98.7341 27.027 98.7311 27.027ZM98.8062 27.0245H98.8082C98.8062 27.0245 98.8072 27.0245 98.8062 27.0245ZM98.8688 27.0221C98.8717 27.0221 98.8754 27.0221 98.8784 27.0221C98.8754 27.0221 98.8717 27.0221 98.8688 27.0221ZM98.9342 27.0221C98.9379 27.0221 98.9448 27.0221 98.9485 27.0221C98.9429 27.0221 98.9399 27.0221 98.9342 27.0221ZM99.0044 27.0196C99.0091 27.0196 99.014 27.0196 99.0187 27.0196C99.014 27.0196 99.0091 27.0196 99.0044 27.0196ZM99.0812 27.0171C99.0822 27.0171 99.0871 27.0171 99.0881 27.0171C99.0852 27.0171 99.0842 27.0171 99.0812 27.0171ZM99.1553 27.0147C99.1563 27.0147 99.1563 27.0147 99.1583 27.0147C99.1563 27.0147 99.1563 27.0147 99.1553 27.0147ZM99.2208 27.0147C99.2235 27.0147 99.2255 27.0147 99.2285 27.0147C99.2255 27.0147 99.2235 27.0147 99.2208 27.0147ZM99.2851 27.0122C99.289 27.0122 99.2947 27.0122 99.2996 27.0122C99.2947 27.0122 99.289 27.0122 99.2851 27.0122ZM99.3592 27.0122C99.3621 27.0122 99.3658 27.0123 99.3688 27.0098C99.3658 27.0123 99.3621 27.0122 99.3592 27.0122ZM99.4237 27.0098C99.4274 27.0098 99.4353 27.0098 99.44 27.0098C99.4343 27.0098 99.4294 27.0098 99.4237 27.0098ZM99.4978 27.0073C99.5015 27.0073 99.5054 27.0073 99.5091 27.0073C99.5054 27.0073 99.5015 27.0073 99.4978 27.0073ZM99.564 27.0073C99.568 27.0073 99.5756 27.0073 99.5805 27.0073C99.5736 27.0073 99.5699 27.0073 99.564 27.0073ZM99.6305 27.0073C99.6362 27.0073 99.6448 27.0073 99.6507 27.0073C99.6428 27.0073 99.6381 27.0073 99.6305 27.0073ZM99.6948 27.0049C99.7044 27.0049 99.7113 27.0049 99.7219 27.0049C99.7132 27.0049 99.7036 27.0049 99.6948 27.0049ZM99.7613 27.0049C99.7728 27.0049 99.7805 27.0049 99.792 27.0049C99.7824 27.0049 99.7709 27.0049 99.7613 27.0049ZM99.8314 27.0024C99.841 27.0024 99.8516 27.0024 99.8622 27.0024C99.8516 27.0024 99.841 27.0024 99.8314 27.0024ZM99.9026 27.0024C99.9122 27.0024 99.9228 27.0024 99.9324 27.0024C99.9228 27.0024 99.9122 27.0024 99.9026 27.0024ZM99.9661 27.0024C99.9796 27.0024 99.9902 27.0024 100.004 27.0024C99.9919 27.0024 99.9786 27.0024 99.9661 27.0024ZM100.038 27.0024C100.05 27.0024 100.062 27.0024 100.074 26.9999C100.062 27.0024 100.05 27.0024 100.038 27.0024ZM100.114 26.9999C100.123 26.9999 100.134 26.9999 100.144 26.9999C100.134 26.9999 100.125 26.9999 100.114 26.9999ZM100.185 26.9999C100.196 26.9999 100.205 26.9999 100.214 26.9999C100.206 26.9999 100.194 26.9999 100.185 26.9999ZM100.251 26.9999C100.262 26.9999 100.274 26.9999 100.285 26.9999C100.275 26.9999 100.261 26.9999 100.251 26.9999ZM100.324 26.9999C100.335 26.9999 100.343 26.9999 100.356 26.9999C100.345 26.9999 100.333 26.9999 100.324 26.9999ZM100.394 26.9999C100.406 26.9999 100.414 26.9999 100.426 26.9999C100.415 26.9999 100.405 26.9999 100.394 26.9999ZM100.461 26.9999C100.472 26.9999 100.484 26.9999 100.494 26.9999C100.483 26.9999 100.473 26.9999 100.461 26.9999Z" fill="#FAD852"/>
<path d="M65.337 109.541C61.7071 101.933 59.0905 93.4562 57.7949 84.9103H57.7959C59.0912 93.4586 61.7071 101.933 65.337 109.541Z" fill="#FDF2BB"/>
<path d="M78.7773 128.787V128.784L78.7794 128.761L78.7773 128.787" fill="#EEE3B0"/>
<path d="M100.5 27C88.5833 27 77.7923 30.7275 69.9205 38.2147C69.3454 38.1802 68.7944 38.1162 68.2825 38.2C67.6892 38.2566 67.1315 38.3107 66.614 38.3649C66.1063 38.3895 65.6523 38.5496 65.2483 38.6185C64.8511 38.7071 64.505 38.7859 64.2164 38.8499C63.6519 38.9804 63.3306 39.0518 63.3306 39.0518C63.3306 39.0518 63.6575 39.1109 64.2317 39.2143C64.5126 39.266 64.8568 39.3275 65.2522 39.3965C65.6378 39.4851 66.0841 39.5122 66.5438 39.6797C66.792 39.7584 67.0776 39.8471 67.345 39.9308C66.8668 40.0047 66.3803 40.0711 65.9253 40.1622C65.1569 40.3789 64.4328 40.4872 63.7528 40.7728C63.0787 41.0215 62.4526 41.248 61.9062 41.5804C61.3483 41.8537 60.8714 42.154 60.4925 42.4963C60.102 42.8089 59.7645 43.0601 59.5616 43.3678C59.1288 43.907 58.8846 44.2148 58.8846 44.2148C58.8846 44.2148 59.2115 44.0079 59.7894 43.6485C60.0481 43.4491 60.4453 43.3235 60.8744 43.1782C61.2858 42.9985 61.7841 42.8877 62.3391 42.8237C62.866 42.7055 63.4768 42.708 64.1 42.7031C64.4895 42.6735 64.9137 42.7129 65.3396 42.7622L64.8299 42.9813C63.4903 43.5845 62.1938 44.3354 61.0485 45.1085C59.9009 45.8963 58.9372 46.7704 58.1996 47.5755C57.8286 47.9768 57.5612 48.415 57.2955 48.7573C57.0205 49.0897 56.8735 49.454 56.7359 49.7298C56.4715 50.2764 56.3213 50.589 56.3213 50.589C56.3213 50.589 56.5764 50.3576 57.0205 49.9514C57.2465 49.7544 57.4861 49.4983 57.8544 49.2989C58.2112 49.0921 58.5672 48.8238 59.0123 48.6145C59.9038 48.191 60.9677 47.802 62.1515 47.5435C62.3824 47.4967 62.6323 47.4622 62.8679 47.4204C59.0864 54.2354 56.8753 62.7344 56.8753 73.0111C56.8753 78.3415 57.4716 83.7852 58.5603 89.1525H61.4293C61.4293 89.1525 62.589 76.5393 67.3814 72.2504C70.2628 69.6701 72.3191 59.6224 73.5038 52.0023C74.3638 55.4959 75.8785 59.4771 78.553 61.9466C78.553 61.9466 75.9026 56.0253 78.553 53.4327C78.553 53.4327 81.0085 62.5326 84.2852 64.7607C84.2852 64.7607 83.783 61.9047 85.7999 60.137C85.7999 60.137 89.5834 74.2668 127.179 66.4497C127.179 66.4497 139.254 81.0941 139.628 89.1525H142.442C143.529 83.7852 144.125 78.3415 144.125 73.0111C144.125 42.1762 124.594 27 100.5 27" fill="#51BFEA"/>
</g>
</svg>
