<svg width="77" height="77" viewBox="0 0 77 77" fill="none" xmlns="http://www.w3.org/2000/svg">
<circle cx="38.5" cy="38.5" r="38.5" fill="#304A89"/>
<path fill-rule="evenodd" clip-rule="evenodd" d="M38.5 70C55.897 70 70 55.897 70 38.5C70 21.103 55.897 7 38.5 7C21.103 7 7 21.103 7 38.5C7 55.897 21.103 70 38.5 70ZM38.5 77C59.763 77 77 59.763 77 38.5C77 17.237 59.763 0 38.5 0C17.237 0 0 17.237 0 38.5C0 59.763 17.237 77 38.5 77Z" fill="#36A8D1"/>
<path d="M20.6074 50V24.44H31.4434C32.6194 24.44 33.6994 24.68 34.6834 25.16C35.6914 25.64 36.5554 26.288 37.2754 27.104C37.9954 27.92 38.5594 28.832 38.9674 29.84C39.3754 30.848 39.5794 31.88 39.5794 32.936C39.5794 34.376 39.2434 35.744 38.5714 37.04C37.8994 38.336 36.9634 39.392 35.7634 40.208C34.5874 41.024 33.2074 41.432 31.6234 41.432H25.5754V50H20.6074ZM25.5754 37.076H31.3354C32.2474 37.076 33.0034 36.704 33.6034 35.96C34.2274 35.192 34.5394 34.184 34.5394 32.936C34.5394 31.616 34.1914 30.596 33.4954 29.876C32.7994 29.156 32.0074 28.796 31.1194 28.796H25.5754V37.076Z" fill="#36A8D1"/>
<path d="M49.4116 50.36C47.8036 50.36 46.2676 50.096 44.8036 49.568C43.3396 49.04 42.0796 48.26 41.0236 47.228L42.7516 44.096C43.8796 45.008 44.9836 45.68 46.0636 46.112C47.1436 46.544 48.1996 46.76 49.2316 46.76C50.1676 46.76 50.9116 46.592 51.4636 46.256C52.0396 45.92 52.3276 45.416 52.3276 44.744C52.3276 44.048 51.9796 43.58 51.2836 43.34C50.5876 43.076 49.6156 42.752 48.3676 42.368C46.9756 41.936 45.8116 41.492 44.8756 41.036C43.9396 40.58 43.2316 40.028 42.7516 39.38C42.2956 38.732 42.0676 37.892 42.0676 36.86C42.0676 35.012 42.7636 33.536 44.1556 32.432C45.5476 31.328 47.3956 30.776 49.6996 30.776C51.0436 30.776 52.3156 30.992 53.5156 31.424C54.7156 31.832 55.8076 32.504 56.7916 33.44L54.8476 36.5C52.9996 35.06 51.2116 34.34 49.4836 34.34C48.7156 34.34 48.0316 34.484 47.4316 34.772C46.8556 35.06 46.5676 35.564 46.5676 36.284C46.5676 36.956 46.8436 37.436 47.3956 37.724C47.9716 38.012 48.8356 38.324 49.9876 38.66C51.4756 39.116 52.7356 39.56 53.7676 39.992C54.8236 40.424 55.6156 40.976 56.1436 41.648C56.6956 42.32 56.9716 43.232 56.9716 44.384C56.9716 46.256 56.2876 47.72 54.9196 48.776C53.5516 49.832 51.7156 50.36 49.4116 50.36Z" fill="#36A8D1"/>
</svg>
