<svg width="109" height="84" viewBox="0 0 109 84" fill="none" xmlns="http://www.w3.org/2000/svg">
<path d="M4.42194 75.7538C3.23682 75.4052 2.28871 74.9591 1.57764 74.4153L2.83248 71.6268C3.51567 72.1287 4.33829 72.533 5.27245 72.8398C6.22055 73.1465 7.15471 73.2999 8.10281 73.2999C9.14851 73.2999 9.9293 73.1465 10.4312 72.8258C10.9332 72.5191 11.1841 72.1008 11.1841 71.5849C11.1841 71.2085 11.0308 70.8878 10.738 70.6368C10.4452 70.3859 10.0548 70.1907 9.59468 70.0373C9.13457 69.8839 8.50715 69.7166 7.71242 69.5354C6.4994 69.2426 5.49553 68.9498 4.71474 68.6709C3.93395 68.3781 3.2647 67.918 2.72094 67.2767C2.16323 66.6353 1.88438 65.7848 1.88438 64.7112C1.88438 63.777 2.13534 62.9405 2.63728 62.1876C3.13922 61.4347 3.89212 60.8351 4.90994 60.389C5.92775 59.9428 7.15471 59.7197 8.61869 59.7197C9.63651 59.7197 10.6404 59.8452 11.6164 60.0822C12.5924 60.3332 13.4429 60.6818 14.1818 61.1279L13.0385 63.9444C11.5606 63.1078 10.0827 62.6895 8.60475 62.6895C7.57299 62.6895 6.80614 62.8568 6.30421 63.1915C5.80227 63.5261 5.56524 63.9722 5.56524 64.516C5.56524 65.0598 5.8441 65.4781 6.41575 65.743C6.9874 66.0079 7.86579 66.2728 9.03697 66.5377C10.25 66.8305 11.2539 67.1233 12.0346 67.4021C12.8154 67.6949 13.4847 68.155 14.0284 68.7685C14.5862 69.3959 14.865 70.2325 14.865 71.3061C14.865 72.2263 14.614 73.0489 14.0982 73.8018C13.5823 74.5547 12.8154 75.1543 11.7976 75.6004C10.7798 76.0466 9.53891 76.2697 8.07493 76.2697C6.82008 76.2697 5.59313 76.0884 4.42194 75.7538Z" fill="white"/>
<path d="M28.0269 60.7097C29.0726 61.1838 29.8673 61.853 30.439 62.7175C30.9967 63.5819 31.2895 64.6137 31.2895 65.7988C31.2895 66.97 31.0106 68.0018 30.439 68.8662C29.8813 69.7446 29.0726 70.4138 28.0269 70.874C26.9812 71.3341 25.7543 71.5711 24.3321 71.5711H21.1113V75.977H17.4026V59.9987H24.3321C25.7543 59.9987 26.9812 60.2357 28.0269 60.7097ZM26.6605 67.8484C27.2461 67.3743 27.525 66.6911 27.525 65.7988C27.525 64.9065 27.2322 64.2093 26.6605 63.7353C26.0749 63.2612 25.2384 63.0103 24.123 63.0103H21.1113V68.5595H24.123C25.2384 68.5595 26.0889 68.3224 26.6605 67.8484Z" fill="white"/>
<path d="M33.9106 59.9987H37.6194V75.9909H33.9106V59.9987Z" fill="white"/>
<path d="M56.0796 59.9987V75.9909H53.0401L45.0648 66.2729V75.9909H41.4119V59.9987H44.4793L52.4266 69.7167V59.9987H56.0796Z" fill="white"/>
<path d="M59.8721 59.9987H67.1362C68.879 59.9987 70.4127 60.3333 71.7373 60.9886C73.0758 61.6578 74.1075 62.5781 74.8465 63.7911C75.5855 64.9901 75.948 66.3983 75.948 68.0018C75.948 69.6052 75.5715 70.9994 74.8465 72.2124C74.1075 73.4115 73.0758 74.3457 71.7373 75.0149C70.3988 75.6842 68.8651 76.0049 67.1362 76.0049H59.8721V59.9987ZM66.9549 72.9514C68.5584 72.9514 69.8271 72.5052 70.7892 71.6129C71.7373 70.7206 72.2113 69.5076 72.2113 67.9878C72.2113 66.4681 71.7373 65.2551 70.7892 64.3627C69.8411 63.4704 68.5584 63.0242 66.9549 63.0242H63.5669V72.9375H66.9549V72.9514Z" fill="white"/>
<path d="M89.054 72.561H81.6225L80.2004 75.9909H76.408L83.5327 59.9987H87.1996L94.3522 75.9909H90.4622L89.054 72.561ZM87.8828 69.7585L85.3452 63.6377L82.8077 69.7585H87.8828Z" fill="white"/>
<path d="M102.718 70.3301V75.9908H99.0092V70.2743L92.8186 59.9846H96.7504L101.017 67.0954L105.283 59.9846H108.922L102.718 70.3301Z" fill="white"/>
<path d="M108.936 54.5331H0.936157V55.9134H108.936V54.5331Z" fill="white"/>
<path d="M56.4915 10.1851C57.9633 9.10598 57.8056 6.38857 56.1391 4.11559C54.4726 1.84261 51.9285 0.874811 50.4567 1.95392C48.9848 3.03303 49.1426 5.75045 50.809 8.02342C52.4755 10.2964 55.0196 11.2642 56.4915 10.1851Z" fill="white"/>
<path d="M44.4242 6.05188C39.7255 6.06582 35.9053 9.88611 35.9053 14.5848C35.9053 17.2757 37.1601 19.6739 39.1121 21.2355L39.1539 21.2773C41.3847 23.0898 45.8883 23.7591 50.2244 24.275C52.3995 24.5259 54.5327 24.7351 56.3174 25.0279C58.1021 25.3067 59.5381 25.6692 60.3189 26.1991L60.3468 26.2269L60.3747 26.2409C62.0757 27.2866 63.219 29.1688 63.219 31.316C63.219 34.6065 60.556 37.2835 57.2655 37.2835C54.0866 37.2835 51.4932 34.7877 51.3119 31.6506V31.5949H51.2561L42.1795 31.9016H42.1237V31.9574C42.4722 39.3749 48.607 45.2726 56.0942 45.2726C63.8185 45.2726 70.0928 38.9984 70.0928 31.2742C70.0928 23.7312 64.3623 18.2099 56.889 17.9171H56.8193C54.9789 17.7777 51.4653 17.8613 48.3979 17.9868C46.8642 18.0565 45.4003 17.9729 44.1873 17.5964C42.9882 17.22 42.054 16.5368 41.5939 15.3795C41.4265 14.9613 41.329 14.5151 41.329 14.041C41.329 12.0751 42.9324 10.4717 44.8983 10.4717C46.2786 10.4717 47.4498 11.2525 48.0493 12.3958L48.0772 12.4376L48.119 12.4097L51.786 10.3881L51.8417 10.3602L51.8138 10.3183C50.3359 7.76683 47.5892 6.05188 44.4242 6.05188Z" fill="white"/>
<path d="M62.9958 8.99377C69.5629 14.543 67.1089 17.2757 64.5993 18.5166C65.8402 19.2695 66.9696 20.1897 67.9316 21.2494L72.686 17.0666C74.9726 14.4593 62.9958 8.99377 62.9958 8.99377Z" fill="white"/>
<path d="M30.3144 20.9008C21.9488 20.9008 15.1587 27.6908 15.1587 36.0564C15.1587 44.4221 21.9488 51.2121 30.3144 51.2121C36.7141 51.2121 42.1935 47.2385 44.4104 41.6335C43.4902 40.6018 42.7094 39.4445 42.082 38.1897C41.0781 43.7807 36.1842 48.0332 30.3004 48.0332C23.6916 48.0332 18.3376 42.6792 18.3376 36.0704C18.3376 29.4616 23.6916 24.1076 30.3004 24.1076C34.8178 24.1076 38.7497 26.6173 40.7853 30.3121L42.0681 30.2702H42.1238L44.271 30.2005C41.9844 24.735 36.6026 20.9008 30.3144 20.9008Z" fill="white"/>
<path d="M79.5459 20.9008C75.9487 20.9008 72.6443 22.1556 70.051 24.247C70.5808 25.2369 70.9851 26.2966 71.2779 27.412C73.4251 25.3485 76.3391 24.0797 79.5459 24.0797C86.1547 24.0797 91.5087 29.4337 91.5087 36.0425C91.5087 42.6513 86.1547 48.0053 79.5459 48.0053C74.6102 48.0053 70.3716 45.0076 68.5312 40.7412C67.834 41.6475 67.0532 42.4701 66.1748 43.209C68.7263 47.9635 73.7597 51.1982 79.532 51.1982C87.8976 51.1982 94.6876 44.4081 94.6876 36.0425C94.6876 27.6769 87.9254 20.9008 79.5459 20.9008Z" fill="white"/>
<path d="M60.5411 83.3249C60.2622 83.2412 60.0252 83.1297 59.8579 83.0042L60.1647 82.3349C60.332 82.4604 60.5272 82.558 60.7502 82.6277C60.9733 82.6974 61.2104 82.7393 61.4334 82.7393C61.6844 82.7393 61.8796 82.6974 61.9911 82.6277C62.1166 82.558 62.1724 82.4465 62.1724 82.321C62.1724 82.2234 62.1306 82.1537 62.0609 82.0979C61.9911 82.0421 61.8935 81.9864 61.782 81.9585C61.6705 81.9306 61.5171 81.8748 61.3219 81.833C61.0291 81.7633 60.7921 81.6936 60.5969 81.6239C60.4156 81.5541 60.2483 81.4426 60.1089 81.2892C59.9695 81.1359 59.9137 80.9267 59.9137 80.6758C59.9137 80.4527 59.9695 80.2435 60.0949 80.0623C60.2204 79.881 60.4017 79.7416 60.6387 79.6301C60.8897 79.5185 61.1825 79.4767 61.531 79.4767C61.782 79.4767 62.019 79.5046 62.2561 79.5603C62.4931 79.6161 62.7022 79.6998 62.8695 79.8113L62.5907 80.4945C62.2282 80.2854 61.8796 80.1878 61.5171 80.1878C61.2661 80.1878 61.0849 80.2296 60.9594 80.3132C60.8339 80.3969 60.7781 80.4945 60.7781 80.6339C60.7781 80.7594 60.8478 80.871 60.9873 80.9267C61.1267 80.9825 61.3358 81.0522 61.6147 81.1219C61.9075 81.1916 62.1445 81.2614 62.3397 81.3311C62.521 81.4008 62.6883 81.5123 62.8277 81.6657C62.9671 81.8191 63.0229 82.0143 63.0229 82.2792C63.0229 82.5023 62.9671 82.6974 62.8416 82.8787C62.7162 83.06 62.5349 83.1994 62.2839 83.3109C62.033 83.4225 61.7402 83.4643 61.3777 83.4643C61.1267 83.4504 60.8339 83.4085 60.5411 83.3249Z" fill="white"/>
<path d="M66.2437 79.6997C66.4946 79.8112 66.6898 79.9785 66.8293 80.1877C66.9687 80.3968 67.0384 80.6478 67.0384 80.9266C67.0384 81.2055 66.9687 81.4565 66.8293 81.6656C66.6898 81.8747 66.4946 82.0421 66.2437 82.1536C65.9927 82.2651 65.6999 82.3209 65.3513 82.3209H64.5706V83.3805H63.6782V79.5184H65.3513C65.6999 79.5324 65.9927 79.5881 66.2437 79.6997ZM65.9091 81.4286C66.0485 81.317 66.1182 81.1497 66.1182 80.9406C66.1182 80.7175 66.0485 80.5502 65.9091 80.4386C65.7696 80.3271 65.5605 80.2713 65.2956 80.2713H64.5706V81.6098H65.2956C65.5744 81.5959 65.7696 81.5401 65.9091 81.4286Z" fill="white"/>
<path d="M67.6658 79.5323H68.5581V83.3945H67.6658V79.5323Z" fill="white"/>
<path d="M73.02 79.5323V83.3945H72.281L70.3569 81.0521V83.3945H69.4785V79.5323H70.2175L72.1416 81.8747V79.5323H73.02Z" fill="white"/>
<path d="M77.4676 79.5323V83.3945H76.7425L74.8185 81.0521V83.3945H73.9401V79.5323H74.679L76.6031 81.8747V79.5323H77.4676Z" fill="white"/>
<path d="M78.3877 79.5323H79.28V83.3945H78.3877V79.5323Z" fill="white"/>
<path d="M82.8075 81.4007H83.6301V82.9623C83.4209 83.1156 83.1839 83.2411 82.9051 83.3248C82.6262 83.4084 82.3474 83.4502 82.0685 83.4502C81.6642 83.4502 81.3017 83.3666 80.981 83.1993C80.6603 83.032 80.4093 82.7949 80.2281 82.4882C80.0468 82.1815 79.9492 81.8468 79.9492 81.4564C79.9492 81.08 80.0468 80.7314 80.2281 80.4247C80.4093 80.118 80.6603 79.8809 80.981 79.7136C81.3017 79.5463 81.6642 79.4626 82.0685 79.4626C82.4031 79.4626 82.7099 79.5184 82.9887 79.63C83.2676 79.7415 83.4907 79.9088 83.6859 80.1319L83.1142 80.6617C82.8354 80.3689 82.5007 80.2295 82.1103 80.2295C81.8594 80.2295 81.6502 80.2853 81.455 80.3829C81.2598 80.4805 81.1204 80.6338 81.0089 80.8151C80.8973 80.9963 80.8555 81.2194 80.8555 81.4564C80.8555 81.6935 80.9113 81.9026 81.0089 82.0978C81.1204 82.2791 81.2598 82.4324 81.455 82.53C81.6502 82.6276 81.8594 82.6834 82.1103 82.6834C82.3613 82.6834 82.5983 82.6276 82.8075 82.5161V81.4007Z" fill="white"/>
<path d="M86.7952 83.1993C86.4745 83.032 86.2235 82.7949 86.0423 82.4882C85.861 82.1815 85.7634 81.8468 85.7634 81.4564C85.7634 81.08 85.861 80.7314 86.0423 80.4247C86.2235 80.118 86.4745 79.8809 86.7952 79.7136C87.1159 79.5463 87.4644 79.4626 87.8688 79.4626C88.2034 79.4626 88.5101 79.5184 88.775 79.6439C89.04 79.7554 89.277 79.9367 89.4582 80.1458L88.8866 80.6757C88.6217 80.3689 88.301 80.2295 87.9106 80.2295C87.6736 80.2295 87.4644 80.2853 87.2692 80.3829C87.088 80.4944 86.9346 80.6338 86.837 80.8151C86.7255 80.9963 86.6836 81.2194 86.6836 81.4564C86.6836 81.6935 86.7394 81.9026 86.837 82.0978C86.9486 82.2791 87.088 82.4324 87.2692 82.53C87.4505 82.6416 87.6736 82.6834 87.9106 82.6834C88.301 82.6834 88.6217 82.53 88.8866 82.2233L89.4582 82.7531C89.277 82.9762 89.04 83.1435 88.775 83.269C88.4962 83.3805 88.2034 83.4502 87.8688 83.4502C87.4644 83.4502 87.1159 83.3666 86.7952 83.1993Z" fill="white"/>
<path d="M93.0555 82.6695V83.3805H90.0718V79.5184H92.9858V80.2295H90.9502V81.0661H92.7488V81.7632H90.9502V82.6555H93.0555V82.6695Z" fill="white"/>
<path d="M97.3079 79.5323V83.3945H96.569L94.6449 81.0521V83.3945H93.7665V79.5323H94.5054L96.4295 81.8747V79.5323H97.3079Z" fill="white"/>
<path d="M99.0229 80.2574H97.782V79.5323H101.142V80.2574H99.9013V83.3945H99.0089V80.2574H99.0229Z" fill="white"/>
<path d="M104.614 82.6695V83.3805H101.63V79.5184H104.544V80.2295H102.509V81.0661H104.307V81.7632H102.509V82.6555H104.614V82.6695Z" fill="white"/>
<path d="M107.793 83.3945L107.054 82.3209H106.998H106.217V83.3945H105.325V79.5323H106.998C107.347 79.5323 107.639 79.5881 107.89 79.6997C108.141 79.8112 108.337 79.9785 108.476 80.1877C108.615 80.3968 108.685 80.6478 108.685 80.9266C108.685 81.2055 108.615 81.4564 108.476 81.6656C108.337 81.8747 108.141 82.0281 107.89 82.1396L108.755 83.3805H107.793V83.3945ZM107.57 80.4247C107.43 80.3131 107.221 80.2574 106.956 80.2574H106.231V81.6098H106.956C107.221 81.6098 107.43 81.554 107.57 81.4285C107.709 81.317 107.779 81.1497 107.779 80.9266C107.779 80.7175 107.709 80.5502 107.57 80.4247Z" fill="white"/>
</svg>
