<svg width="104" height="91" viewBox="0 0 104 91" fill="none" xmlns="http://www.w3.org/2000/svg">
<path d="M37.3038 46.6838L50.1401 53.797H24.9912L37.3038 46.6838Z" fill="white"/>
<path d="M66.7443 46.6838L79.0714 53.797H53.9031L66.7443 46.6838Z" fill="white"/>
<path d="M37.0757 31.163L36.8139 45.845L24.4819 52.9678L37.0757 31.163Z" fill="white"/>
<path d="M66.9626 31.163L79.5468 52.9533L67.2245 45.8402L66.9626 31.163Z" fill="white"/>
<path d="M52.5115 6.13367L65.0859 27.9094L52.5115 20.3502V6.13367Z" fill="white"/>
<path d="M51.5271 6.13367V20.3502L38.9526 27.9094L51.5271 6.13367Z" fill="white"/>
<path d="M39.1708 46.6111H39.583H64.4555H64.8677L52.0168 53.7291L39.1708 46.6111Z" fill="white"/>
<path d="M53.3794 22.0037L65.9635 29.5677L66.2254 44.2546L66.0217 43.9006L53.5831 22.3576L53.3794 22.0037Z" fill="white"/>
<path d="M50.6637 22.0037L50.4601 22.3625L38.0214 43.9055L37.8177 44.2643L38.0796 29.5774L50.6637 22.0037Z" fill="white"/>
<path d="M52.0216 0L51.299 1.25098L20.1563 55.1837L19.4337 56.4395H20.8788H83.1643H84.6143L83.8917 55.1837L52.749 1.25098L52.0216 0ZM52.0216 3.3408L52.4435 4.06811L81.2973 54.0394L81.7192 54.7667H80.8803H23.1726H22.3336L22.7555 54.0394L51.6094 4.06811L52.0216 3.3408Z" fill="white"/>
<path d="M52.0216 21.5916L51.2991 22.8425L38.8604 44.3855L38.1378 45.6414H39.5829H64.4554H65.9054L65.1828 44.3855L52.7442 22.8425L52.0216 21.5916ZM52.0216 24.9372L52.4435 25.6645L62.5933 43.2412L63.0152 43.9686H62.1762H41.8767H41.0377L41.4596 43.2412L51.6094 25.6645L52.0216 24.9372Z" fill="white"/>
<g opacity="0.99">
<path opacity="0.99" d="M0.936157 75.8658V64.8729H5.80835C6.78278 64.8729 7.54406 64.9643 8.03128 65.1774C8.54895 65.3601 8.94482 65.7256 9.24933 66.2128C9.55384 66.7 9.7061 67.2786 9.7061 67.8571C9.7061 68.6489 9.46249 69.2883 8.94482 69.8365C8.42715 70.3846 7.66587 70.7196 6.60008 70.8718C6.99594 71.0545 7.27 71.2372 7.48316 71.4199C7.90948 71.8158 8.30534 72.303 8.70121 72.8816L10.6196 75.8658H8.79256L7.3309 73.582C6.90459 72.912 6.56963 72.4248 6.26511 72.0594C5.99105 71.7244 5.74744 71.4504 5.53429 71.3286C5.32113 71.2068 5.10797 71.085 4.86436 71.0241C4.7121 70.9936 4.43804 70.9632 4.04218 70.9632H2.39781V75.8353H0.936157V75.8658ZM2.39781 69.7147H5.53429C6.20421 69.7147 6.72188 69.6538 7.0873 69.5015C7.45271 69.3492 7.75722 69.1361 7.93993 68.8316C8.12264 68.5271 8.24444 68.1921 8.24444 67.8571C8.24444 67.3395 8.06173 66.9132 7.66587 66.5782C7.27 66.2432 6.69143 66.0605 5.86925 66.0605H2.39781V69.7147Z" fill="white"/>
<path opacity="0.99" d="M12.0508 75.8658V64.8729H19.9985V66.1823H13.482V69.5624H19.5722V70.8414H13.482V74.5868H20.2421V75.8962H12.0508V75.8658Z" fill="white"/>
<path opacity="0.99" d="M21.7648 72.3335L23.1351 72.2117C23.196 72.7598 23.3482 73.2166 23.5918 73.5515C23.8355 73.917 24.2009 74.191 24.6881 74.4042C25.1753 74.6173 25.7539 74.7391 26.3629 74.7391C26.911 74.7391 27.3982 74.6478 27.8246 74.4955C28.2509 74.3433 28.5554 74.0997 28.7685 73.8256C28.9817 73.5515 29.0731 73.2166 29.0731 72.8816C29.0731 72.5466 28.9817 72.2421 28.7685 71.9681C28.5554 71.7245 28.2509 71.4809 27.7637 71.3286C27.4591 71.2068 26.8197 71.0241 25.8148 70.7805C24.8099 70.5369 24.1095 70.3237 23.6832 70.0801C23.1655 69.806 22.7697 69.4711 22.4956 69.0448C22.252 68.6489 22.0997 68.1921 22.0997 67.6745C22.0997 67.1263 22.252 66.6087 22.587 66.1214C22.8915 65.6342 23.3482 65.2688 23.9573 65.0252C24.5663 64.7816 25.2362 64.6598 25.967 64.6598C26.7892 64.6598 27.4896 64.7816 28.1291 65.0557C28.7381 65.3297 29.2253 65.6951 29.5603 66.2128C29.8952 66.7305 30.0779 67.309 30.1084 67.9485L28.7076 68.0399C28.6467 67.3395 28.3727 66.8218 27.9464 66.4564C27.52 66.091 26.8806 65.9387 26.0279 65.9387C25.1449 65.9387 24.5054 66.091 24.1095 66.426C23.7136 66.7609 23.5005 67.1263 23.5005 67.5831C23.5005 67.979 23.6527 68.3139 23.9268 68.5575C24.2009 68.8012 24.9317 69.0752 26.1193 69.3493C27.3069 69.6233 28.1291 69.8365 28.5554 70.0497C29.1949 70.3542 29.6821 70.7196 29.9866 71.1763C30.2911 71.6331 30.4434 72.1508 30.4434 72.7294C30.4434 73.3079 30.2607 73.856 29.9257 74.3737C29.5907 74.8914 29.1035 75.2872 28.4945 75.5918C27.855 75.8658 27.1546 76.0181 26.3629 76.0181C25.358 76.0181 24.5358 75.8658 23.8659 75.5918C23.196 75.2872 22.6783 74.8609 22.2824 74.2824C21.9779 73.7342 21.7952 73.0643 21.7648 72.3335Z" fill="white"/>
<path opacity="0.99" d="M32.7576 75.8658V64.8729H34.2192V75.8658H32.7576Z" fill="white"/>
<path opacity="0.99" d="M36.7772 75.8658V64.8729H40.5532C41.4058 64.8729 42.0757 64.9338 42.502 65.0252C43.1415 65.1774 43.6592 65.421 44.116 65.8169C44.6945 66.3041 45.1208 66.9436 45.4254 67.7049C45.6994 68.4662 45.8517 69.3492 45.8517 70.3237C45.8517 71.1459 45.7603 71.9071 45.5472 72.5466C45.334 73.1861 45.0904 73.7342 44.7859 74.1605C44.4814 74.5869 44.1464 74.9218 43.781 75.1654C43.4156 75.409 42.9893 75.5917 42.4716 75.7135C41.9539 75.8354 41.3754 75.8962 40.7054 75.8962H36.7772V75.8658ZM38.2389 74.5564H40.5836C41.3144 74.5564 41.893 74.4955 42.2889 74.3432C42.7152 74.2214 43.0197 74.0083 43.2633 73.7647C43.5983 73.4297 43.8723 72.9425 44.0551 72.3639C44.2378 71.7853 44.3291 71.085 44.3291 70.2323C44.3291 69.0752 44.1464 68.1921 43.7505 67.5831C43.3851 66.9741 42.9284 66.5477 42.3802 66.3346C41.9844 66.1823 41.3754 66.1214 40.4923 66.1214H38.178V74.5564H38.2389Z" fill="white"/>
<path opacity="0.99" d="M47.9224 75.8658V64.8729H55.8701V66.1823H49.384V69.5624H55.4743V70.8414H49.384V74.5868H56.1442V75.8962H47.9224V75.8658Z" fill="white"/>
<path opacity="0.99" d="M58.1235 75.8658V64.8729H59.6156L65.4014 73.5211V64.8729H66.8021V75.8658H65.31L59.5243 67.2177V75.8658H58.1235Z" fill="white"/>
<path opacity="0.99" d="M77.0642 71.9985L78.5258 72.3639C78.2213 73.5515 77.6732 74.4651 76.8815 75.1046C76.0897 75.744 75.1153 76.0485 73.9886 76.0485C72.801 76.0485 71.8266 75.8049 71.0957 75.3177C70.3649 74.8305 69.7863 74.1301 69.3905 73.2166C68.9946 72.303 68.8119 71.3286 68.8119 70.2628C68.8119 69.1057 69.025 68.1312 69.4818 67.2786C69.9081 66.426 70.5476 65.7865 71.3393 65.3297C72.1615 64.873 73.0446 64.6598 74.019 64.6598C75.1153 64.6598 76.0593 64.9339 76.7901 65.5124C77.5514 66.0605 78.069 66.8523 78.3736 67.8876L76.9423 68.2226C76.6987 67.4309 76.3029 66.8523 75.8461 66.4869C75.3893 66.1214 74.7499 65.9387 74.019 65.9387C73.1664 65.9387 72.466 66.1519 71.8875 66.5478C71.3089 66.9436 70.913 67.4918 70.6999 68.1921C70.4563 68.8621 70.3649 69.5929 70.3649 70.2933C70.3649 71.2372 70.4867 72.0594 70.7608 72.7294C71.0348 73.4297 71.4611 73.9474 72.0397 74.2824C72.6183 74.6173 73.2273 74.8 73.8972 74.8C74.7194 74.8 75.3893 74.5564 75.9679 74.0997C76.4856 73.6429 76.8815 72.9425 77.0642 71.9985Z" fill="white"/>
<path opacity="0.99" d="M80.5659 75.8658V64.8729H82.0276V75.8658H80.5659Z" fill="white"/>
<path opacity="0.99" d="M83.3979 75.8658L87.6307 64.8729H89.2141L93.7209 75.8658H92.0765L90.7976 72.5466H86.1386L84.9205 75.8658H83.3979ZM86.5649 71.359H90.2799L89.1228 68.3139C88.7574 67.4004 88.5138 66.6391 88.331 66.0301C88.1788 66.7304 87.9961 67.4308 87.7525 68.1312L86.5649 71.359Z" fill="white"/>
<path opacity="0.99" d="M94.3604 72.3335L95.7307 72.2117C95.7916 72.7598 95.9438 73.2166 96.1874 73.5515C96.431 73.917 96.7964 74.191 97.2837 74.4042C97.7709 74.6173 98.3495 74.7391 98.9585 74.7391C99.5066 74.7391 99.9938 74.6478 100.42 74.4955C100.846 74.3433 101.151 74.0997 101.364 73.8256C101.577 73.5515 101.669 73.2166 101.669 72.8816C101.669 72.5466 101.577 72.2421 101.364 71.9681C101.151 71.7245 100.846 71.4809 100.359 71.3286C100.055 71.2068 99.4152 71.0241 98.4104 70.7805C97.4055 70.5369 96.7051 70.3237 96.2788 70.0801C95.7611 69.806 95.3652 69.4711 95.0912 69.0448C94.8476 68.6489 94.6953 68.1921 94.6953 67.6745C94.6953 67.1263 94.8476 66.6087 95.1825 66.1214C95.487 65.6342 95.9438 65.2688 96.5528 65.0252C97.1619 64.7816 97.8318 64.6598 98.5626 64.6598C99.3848 64.6598 100.085 64.7816 100.725 65.0557C101.334 65.3297 101.821 65.6951 102.156 66.2128C102.491 66.7305 102.674 67.309 102.704 67.9485L101.303 68.0399C101.242 67.3395 100.968 66.8218 100.542 66.4564C100.116 66.091 99.4761 65.9387 98.6235 65.9387C97.7404 65.9387 97.101 66.091 96.7051 66.426C96.3092 66.7609 96.0961 67.1263 96.0961 67.5831C96.0961 67.979 96.2483 68.3139 96.5224 68.5575C96.7964 68.8012 97.5273 69.0752 98.7149 69.3493C99.9025 69.6233 100.725 69.8365 101.151 70.0497C101.79 70.3542 102.278 70.7196 102.582 71.1763C102.887 71.6331 103.039 72.1508 103.039 72.7294C103.039 73.3079 102.856 73.856 102.521 74.3737C102.186 74.8914 101.699 75.2872 101.09 75.5918C100.451 75.8658 99.7502 76.0181 98.9585 76.0181C97.9536 76.0181 97.1314 75.8658 96.4615 75.5918C95.7916 75.2872 95.2739 74.8609 94.878 74.2824C94.5735 73.7342 94.3604 73.0643 94.3604 72.3335Z" fill="white"/>
</g>
<path d="M19.9378 90.9696V81.2557H16.3141V79.9463H25.0231V81.2557H21.369V90.9696H19.9378Z" fill="white"/>
<path d="M26.5457 90.9696V79.9767H31.4178C32.3923 79.9767 33.1536 80.068 33.6408 80.2812C34.1584 80.4639 34.5543 80.8293 34.8588 81.3165C35.1633 81.8038 35.3156 82.3823 35.3156 82.9609C35.3156 83.7526 35.072 84.3921 34.5543 84.9402C34.0366 85.4883 33.2754 85.8233 32.2096 85.9756C32.6054 86.1583 32.8795 86.341 33.0927 86.5237C33.519 86.9196 33.9148 87.4068 34.3107 87.9853L36.2291 90.9696H34.4021L32.9404 88.6857C32.5141 88.0158 32.1791 87.5286 31.8746 87.1632C31.6006 86.8282 31.3569 86.5541 31.1438 86.4323C30.9306 86.3105 30.7175 86.1887 30.4739 86.1278C30.3216 86.0974 30.0475 86.0669 29.6517 86.0669H27.9769V90.9391H26.5457V90.9696ZM28.0073 84.8489H31.1438C31.8137 84.8489 32.3314 84.788 32.6968 84.6357C33.0622 84.4835 33.3667 84.2703 33.5494 83.9658C33.7321 83.6613 33.8539 83.3263 33.8539 82.9913C33.8539 82.4737 33.6712 82.0474 33.2754 81.7124C32.8795 81.3774 32.3009 81.1947 31.4787 81.1947H28.0073V84.8489Z" fill="white"/>
<path d="M37.8735 90.9696V79.9767H39.3352V90.9696H37.8735Z" fill="white"/>
<path d="M41.8931 90.9696V79.9767H43.3852L49.1709 88.6248V79.9767H50.5717V90.9696H49.0795L43.2938 82.3214V90.9696H41.8931Z" fill="white"/>
<path d="M53.2515 90.9696V79.9767H54.7131V90.9696H53.2515Z" fill="white"/>
<path d="M57.271 90.9696V79.9767H61.0469C61.8996 79.9767 62.5695 80.0376 62.9958 80.1289C63.6353 80.2812 64.153 80.5248 64.6097 80.9207C65.1883 81.4079 65.6146 82.0474 65.9191 82.8086C66.1932 83.5699 66.3454 84.453 66.3454 85.4274C66.3454 86.2496 66.2541 87.0109 66.0409 87.6504C65.8278 88.2899 65.5842 88.838 65.2797 89.2643C64.9751 89.6906 64.6402 90.0256 64.2748 90.2692C63.9094 90.5128 63.483 90.6955 62.9654 90.8173C62.4477 90.9391 61.8691 91 61.1992 91H57.271V90.9696ZM58.7327 89.6906H61.0774C61.8082 89.6906 62.3868 89.6297 62.7827 89.4774C63.209 89.3556 63.5135 89.1425 63.7571 88.8989C64.0921 88.5639 64.3661 88.0767 64.5488 87.4981C64.7315 86.9195 64.8229 86.2192 64.8229 85.3665C64.8229 84.2094 64.6402 83.3263 64.2443 82.7173C63.8789 82.1083 63.4221 81.6819 62.874 81.4688C62.4782 81.3165 61.8691 81.2556 60.986 81.2556H58.7327V89.6906Z" fill="white"/>
<path d="M67.1675 90.9696L71.4002 79.9767H72.9837L77.4904 90.9696H75.8461L74.5671 87.6504H69.969L68.7509 90.9696H67.1675ZM70.3344 86.4628H74.0494L72.8923 83.4177C72.5269 82.5041 72.2833 81.7428 72.1006 81.1338C71.9483 81.8342 71.7656 82.5346 71.522 83.235L70.3344 86.4628Z" fill="white"/>
<path d="M78.6173 90.9696V79.9767H82.3933C83.2459 79.9767 83.9158 80.0376 84.3421 80.1289C84.9816 80.2812 85.4993 80.5248 85.956 80.9207C86.5346 81.4079 86.9609 82.0474 87.2655 82.8086C87.5395 83.5699 87.6918 84.453 87.6918 85.4274C87.6918 86.2496 87.6004 87.0109 87.3873 87.6504C87.1741 88.2899 86.9305 88.838 86.626 89.2643C86.3215 89.6906 85.9865 90.0256 85.6211 90.2692C85.2557 90.5128 84.8294 90.6955 84.3117 90.8173C83.794 90.9391 83.2154 91 82.5455 91H78.6173V90.9696ZM80.079 89.6906H82.4237C83.1545 89.6906 83.7331 89.6297 84.129 89.4774C84.5553 89.3556 84.8598 89.1425 85.1034 88.8989C85.4384 88.5639 85.7124 88.0767 85.8951 87.4981C86.0779 86.9195 86.1692 86.2192 86.1692 85.3665C86.1692 84.2094 85.9865 83.3263 85.5906 82.7173C85.2252 82.1083 84.7685 81.6819 84.2203 81.4688C83.8245 81.3165 83.2154 81.2556 82.3324 81.2556H80.0181V89.6906H80.079Z" fill="white"/>
</svg>
