<svg width="141" height="63" viewBox="0 0 141 63" fill="none" xmlns="http://www.w3.org/2000/svg">
<path d="M83.5415 41.0318C82.7564 40.5411 81.5297 39.9278 79.8369 39.1672C78.1441 38.4067 77.0155 37.8424 76.4512 37.4989C74.9547 36.5666 74.1941 35.5117 74.1941 34.3095C74.1941 33.4263 74.7093 32.5431 75.7152 31.6599C76.3776 31.0956 77.1627 30.654 78.0459 30.335C79.7633 29.7217 81.3335 29.4028 82.7564 29.4028C84.3756 29.4028 85.6514 29.8444 86.5592 30.7276C87.197 31.3409 87.516 32.0033 87.516 32.7148C87.516 32.9111 87.4914 33.1319 87.4178 33.3527C87.197 34.1869 86.6082 34.6775 85.6514 34.8002C85.1117 34.8493 84.8663 35.021 84.8909 35.2909C84.9399 35.4626 85.1362 35.5117 85.4797 35.4135C86.3138 35.1682 87.0008 34.8493 87.4914 34.4567C88.2029 33.8434 88.5709 33.1319 88.5709 32.3468C88.5709 32.1505 88.5464 31.9543 88.5219 31.758C88.2765 30.7276 87.6386 29.967 86.5592 29.4518C85.4797 28.9366 84.1058 28.6913 82.4129 28.6913C78.7819 28.6913 75.9851 29.5254 74.0224 31.2183C72.6485 32.3959 71.9615 33.598 71.9615 34.8493C71.9615 36.2722 72.7221 37.4989 74.2677 38.5293C74.9792 38.9955 76.3286 39.6579 78.3649 40.5166C80.4012 41.3753 81.7505 42.0867 82.3884 42.6019C83.6151 43.6324 84.2284 44.8345 84.2284 46.2084C84.2284 46.7972 84.1058 47.4351 83.8604 48.073C83.0999 50.2319 81.4316 51.9984 78.8555 53.3477C77.6534 53.9611 76.4022 54.4027 75.1264 54.6726C73.8261 54.9424 72.8202 55.0896 72.0597 55.0896C71.2991 55.0896 70.7349 55.0651 70.3669 55.0406C67.0057 54.7952 64.6505 53.7648 63.3011 51.9493C62.5406 50.9189 62.1726 49.7413 62.1726 48.3919C62.1726 46.3311 62.7368 44.4174 63.8409 42.6755C64.3561 41.8659 65.043 41.1054 65.9017 40.4184C66.2942 40.075 66.4169 39.8787 66.2697 39.8542C66.1225 39.8051 65.9017 39.8542 65.5828 39.9768C64.1353 40.6638 62.9331 41.8169 61.9272 43.4606C60.9459 45.1044 60.4552 46.6009 60.4552 47.9503C60.4552 50.0847 61.2648 51.8512 62.8595 53.2005C64.9203 54.9915 67.6927 55.8747 71.201 55.8747C74.832 55.8747 77.9478 55.0896 80.5238 53.544C82.7564 52.1947 84.4738 50.6 85.6269 48.7354C86.2893 47.705 86.6082 46.6746 86.6082 45.6687C86.6082 44.9572 86.3874 44.2212 85.9458 43.387C85.5287 42.5283 84.7191 41.7678 83.5415 41.0318Z" fill="white"/>
<path d="M138.571 42.6019C137.59 42.6019 136.559 43.0926 135.455 44.0739C134.376 45.0553 133.517 46.2329 132.928 47.6313C132.83 47.8521 132.732 48.073 132.658 48.2938C131.26 50.9679 129.886 52.44 128.512 52.7098C128.733 51.9984 128.831 51.2869 128.831 50.5263C128.782 49.226 128.12 48.5882 126.819 48.5882C126.795 48.5882 126.77 48.5882 126.77 48.5882C127.678 48.0484 128.389 47.386 128.905 46.6009C129.444 45.8158 129.69 45.1534 129.69 44.5892C129.69 44.0494 129.592 43.6323 129.395 43.3379C129.027 42.8227 128.512 42.5528 127.801 42.5528C126.23 42.5528 125.004 43.3625 124.12 45.0062C123.998 45.2025 123.409 46.3556 122.354 48.4164C122.33 48.4655 122.305 48.49 122.305 48.5391C120.98 51.0661 119.95 52.3173 119.214 52.3173C118.551 52.3173 118.478 51.5567 118.968 50.0357C119.116 49.6431 119.287 49.2015 119.484 48.7108C119.704 48.2202 119.876 47.8276 120.048 47.4841C120.22 47.1652 120.391 46.7972 120.588 46.4292C120.784 46.0612 121.005 45.6196 121.226 45.1044C121.471 44.5892 121.594 44.2211 121.594 43.9513C121.594 43.6814 121.569 43.5342 121.544 43.4606C120.514 43.5587 119.68 43.6078 119.017 43.6078C117.276 43.4851 116.76 42.5038 116.711 42.8227C116.662 42.9699 116.613 43.1417 116.564 43.2889C116.27 44.2457 115.926 45.227 115.534 46.2329C115.411 46.5519 115.264 46.8463 115.141 47.1407C115.092 47.2143 115.043 47.2879 114.994 47.386C114.724 47.9994 114.454 48.5882 114.16 49.0788C114.086 49.2015 114.013 49.3242 113.964 49.4468C112.761 51.4831 111.461 52.5136 110.063 52.5136C109.596 52.5136 109.253 52.3418 109.008 52.0229C108.762 51.704 108.64 51.2378 108.64 50.6981C108.64 49.8639 108.787 49.1034 109.057 48.4164C109.474 48.4164 110.087 48.2938 110.897 47.9994C111.706 47.7295 112.32 47.4351 112.761 47.0916C114.209 45.9876 114.92 44.8345 114.92 43.6323C114.92 43.2889 114.749 42.9945 114.405 42.7001C114.037 42.4547 113.645 42.332 113.227 42.332C112.81 42.332 112.369 42.4302 111.903 42.6264C110.946 43.019 110.087 43.6569 109.351 44.5401C108.615 45.3988 108.026 46.3556 107.585 47.3615C107.168 48.3428 106.947 49.2751 106.947 50.1583C106.751 50.4282 106.554 50.6981 106.358 50.9434C105.965 51.4341 105.573 51.8512 105.205 52.1701C104.812 52.489 104.469 52.6362 104.175 52.6362C103.905 52.6362 103.733 52.5381 103.635 52.3418C103.537 52.1456 103.488 51.9493 103.488 51.7285C103.488 51.3605 103.561 50.9679 103.708 50.5754C103.856 50.1583 104.027 49.7412 104.248 49.2996C104.469 48.858 104.714 48.4164 104.96 47.9503C105.205 47.4841 105.45 47.0425 105.671 46.6009C105.892 46.1593 106.064 45.7422 106.211 45.3252C106.358 44.9081 106.432 44.5401 106.432 44.1966C106.432 44.0003 106.407 43.7795 106.358 43.5833C106.309 43.387 106.211 43.1907 106.088 43.019C105.965 42.8473 105.769 42.7001 105.548 42.6019C105.328 42.5038 105.033 42.4302 104.665 42.4302C104.15 42.4302 103.61 42.5528 103.071 42.7982C102.531 43.0435 101.966 43.3625 101.402 43.8041C100.936 44.1475 100.494 44.5646 100.028 45.0062C100.912 43.3134 101.917 41.3752 102.629 40.0749C104.175 37.2781 105.254 35.5607 105.843 34.9228C105.671 34.9474 105.45 34.9228 105.131 34.8738C104.812 34.8247 104.592 34.8002 104.493 34.8002C104.101 34.8002 103.757 34.9474 103.463 35.2172C103.169 35.4871 102.85 35.9778 102.457 36.6893C101.157 39.069 99.2432 42.8473 96.7162 48.0239C96.4218 48.4655 96.0784 48.9071 95.7104 49.3732C95.2688 49.913 94.7781 50.4282 94.2383 50.8698C93.6986 51.3114 93.1589 51.6794 92.57 51.9493C91.9812 52.2192 91.3679 52.3664 90.7545 52.3664C90.4356 52.3664 90.1657 52.3173 89.8959 52.2437C89.6505 52.1456 89.4297 52.0229 89.2334 51.8266C89.0617 51.6304 88.9145 51.3605 88.8164 51.0661C88.7182 50.7471 88.6692 50.3546 88.6692 49.913C88.6692 49.3487 88.7428 48.7844 88.89 48.2447C89.0372 47.6804 89.2089 47.1652 89.4543 46.6745C89.6996 46.1838 89.9695 45.7177 90.3129 45.3006C90.6319 44.8836 90.9999 44.5156 91.3679 44.1966C91.7359 43.8777 92.153 43.6569 92.5455 43.4606C92.9626 43.2889 93.3551 43.1907 93.7722 43.1907C94.2629 43.1907 94.6309 43.2643 94.8517 43.4361C95.0725 43.6078 95.1952 43.8286 95.1952 44.123C95.1952 44.2947 95.1706 44.4419 95.1216 44.5892C94.729 45.9385 93.9194 46.0857 94.5818 46.2084C94.7781 46.2084 94.9744 46.1348 95.1216 46.0121C95.2933 45.8649 95.4405 45.7177 95.5386 45.4969C95.6613 45.3006 95.7349 45.0798 95.8085 44.8345C95.8821 44.5892 95.9066 44.3683 95.9066 44.1475C95.9066 44.0003 95.8821 43.8531 95.8085 43.6569C95.7594 43.4606 95.6368 43.2889 95.465 43.1171C95.2933 42.9454 95.0725 42.7982 94.8026 42.6755C94.5327 42.5528 94.1647 42.5038 93.7231 42.5038C93.2815 42.5038 92.8154 42.5774 92.3247 42.7491C91.834 42.8963 91.3434 43.1417 90.8527 43.4361C90.362 43.7305 89.8959 44.0985 89.4543 44.5155C89.0126 44.9326 88.6201 45.4233 88.2766 45.963C87.9332 46.5028 87.6633 47.0671 87.467 47.7049C87.2707 48.3428 87.1726 49.0052 87.1726 49.6922C87.1726 50.281 87.2707 50.7962 87.4425 51.2378C87.6388 51.6794 87.8841 52.0229 88.1785 52.2928C88.4974 52.5626 88.8409 52.7834 89.258 52.9061C89.6751 53.0533 90.0921 53.1024 90.5583 53.1024C91.1226 53.1024 91.7114 53.0042 92.3002 52.7834C92.889 52.5872 93.4778 52.2682 94.0666 51.8512C94.4837 51.5567 94.9008 51.1887 95.2933 50.7962C94.9008 51.5813 94.5327 52.3909 94.1157 53.225C94.2629 53.1514 94.6063 53.0778 95.1461 53.0533C95.7349 53.0533 96.1274 52.9061 96.2501 52.6117C96.8389 51.2869 97.3787 49.913 98.1147 48.6372C98.8507 47.3369 99.783 46.2084 100.887 45.178C101.5 44.5892 102.138 44.123 102.752 43.755C103.365 43.387 103.954 43.2153 104.518 43.2153C104.911 43.2153 105.107 43.4115 105.107 43.8041C105.107 44.0249 105.033 44.2947 104.861 44.6382C104.69 44.9572 104.493 45.3252 104.273 45.7177C104.027 46.1102 103.782 46.5519 103.488 46.9935C103.193 47.4596 102.948 47.9257 102.703 48.3919C102.457 48.8826 102.261 49.3732 102.114 49.8639C101.942 50.3546 101.868 50.8453 101.868 51.3114C101.868 51.7285 101.942 52.072 102.065 52.3173C102.187 52.5872 102.359 52.808 102.555 52.9552C102.752 53.1024 102.997 53.225 103.242 53.2741C103.488 53.3232 103.757 53.3722 104.003 53.3722C104.395 53.3722 104.788 53.2496 105.156 53.0288C105.548 52.808 105.892 52.5136 106.235 52.1456C106.53 51.8512 106.8 51.5322 107.045 51.1887C107.168 51.6304 107.413 52.0229 107.756 52.3173C108.321 52.8325 109.008 53.1024 109.793 53.1024C111.289 53.1024 112.541 52.3909 113.571 50.9925C113.816 50.6735 114.062 50.281 114.307 49.8639C115.018 48.6863 115.73 47.1161 116.466 45.178L116.834 44.2211C118.429 44.2702 119.238 44.5892 119.238 45.2025C119.238 45.3497 119.214 45.4969 119.14 45.6441C119.091 45.7913 118.797 46.3065 118.306 47.1652C117.815 48.0239 117.447 48.7599 117.202 49.3487C116.981 49.9375 116.858 50.4282 116.858 50.7962C116.858 51.1642 116.883 51.4341 116.957 51.6058C117.251 52.5381 117.791 53.0042 118.576 53.0042C119.287 53.0042 119.999 52.5381 120.759 51.6303C121.397 50.8943 121.863 50.2319 122.158 49.6922C122.452 49.1279 122.747 48.5882 122.992 48.0484C123.09 47.8521 123.164 47.6804 123.237 47.5332C123.581 46.8708 123.924 46.2329 124.292 45.6196C124.955 44.491 125.789 43.9022 126.77 43.9022C127.089 43.9022 127.383 44.0739 127.678 44.3929C127.948 44.7118 128.095 45.0308 128.095 45.3742C128.095 45.7177 127.972 46.0857 127.702 46.4783C126.819 47.8276 125.691 48.6863 124.341 49.1279C124.17 49.177 124.096 49.2506 124.071 49.3732C124.047 49.4959 124.096 49.594 124.194 49.6676C124.366 49.8148 124.955 49.6186 125.911 49.1279C125.985 49.1034 126.083 49.1034 126.157 49.1034C126.746 49.1034 127.015 49.6186 127.015 50.6735C127.015 51.2623 126.844 52.1456 126.476 53.3232C126.157 53.4213 125.494 53.6176 124.538 53.912C123.556 54.2064 122.845 54.4272 122.379 54.5989C121.912 54.7461 121.275 54.9669 120.44 55.2859C119.606 55.6048 118.968 55.8747 118.502 56.12C118.036 56.3654 117.57 56.6843 117.079 57.0523C116.589 57.4203 116.172 57.8619 115.853 58.3526C115.534 58.8433 115.362 59.383 115.362 59.9228C115.362 60.4625 115.583 61.0023 116.049 61.5175C116.49 62.0327 117.153 62.3025 118.012 62.3025C118.429 62.3025 118.895 62.2289 119.385 62.0817C121.495 61.4684 123.335 60.3889 124.857 58.8678C126.378 57.3467 127.531 55.5067 128.316 53.3722C129.518 53.1269 130.524 52.4154 131.382 51.2133C131.677 50.8207 131.971 50.3791 132.266 49.8885C132.266 50.0111 132.241 50.1338 132.241 50.2565C132.241 52.0965 132.977 53.0042 134.425 53.0042C135.21 53.0042 136.044 52.6608 136.976 51.9738C137.246 51.7776 137.442 51.6058 137.54 51.4831C138.669 50.4282 139.503 49.2506 140.067 47.9503C140.509 46.9935 140.73 46.0857 140.73 45.2516C140.754 43.5342 140.043 42.6019 138.571 42.6019ZM111.044 45.1534C112.173 43.7795 113.031 43.0926 113.596 43.0926C113.914 43.0926 114.086 43.2889 114.086 43.6814C114.086 44.7118 113.546 45.7177 112.442 46.65C111.952 47.0425 111.387 47.3615 110.75 47.6068C110.087 47.8521 109.596 47.9748 109.253 47.9748C109.768 46.9199 110.357 45.9876 111.044 45.1534ZM124.071 57.8619C123.115 58.9905 122.06 59.8982 120.907 60.6343C119.753 61.3703 118.699 61.7383 117.742 61.7383C117.472 61.7383 117.202 61.6401 116.908 61.4684C116.613 61.2967 116.466 61.0023 116.466 60.6097C116.466 60.2172 116.515 59.8246 116.638 59.4321C117.006 58.3035 117.742 57.4203 118.821 56.7824C119.631 56.2918 120.759 55.8502 122.158 55.4086C122.673 55.2368 123.384 55.0405 124.292 54.7707C125.2 54.5008 125.862 54.3045 126.279 54.1819C125.74 55.5067 125.028 56.7579 124.071 57.8619ZM139.258 47.9994C138.816 48.9071 137.737 50.7226 136.682 51.6549C136.068 52.1946 135.504 52.4645 135.014 52.4645C134.302 52.4645 133.959 51.9984 133.959 51.0906C133.959 50.1829 134.302 48.9807 135.014 47.5577C135.602 46.3065 136.265 45.3497 137.001 44.6137C137.737 43.9022 138.375 43.5342 138.914 43.5342C139.65 43.5342 140.018 44.0249 140.018 45.0062C140.018 45.9876 139.773 46.9935 139.258 47.9994Z" fill="white"/>
<path d="M84.4247 11.444C84.4247 10.6344 84.2284 9.94748 83.8604 9.35867C83.1735 8.32825 82.3884 7.66583 81.4561 7.4205L80.8918 7.37143C80.622 7.4205 80.5238 7.54316 80.5729 7.76397C80.622 7.98477 80.7937 8.10744 81.0881 8.18104C81.3825 8.23011 81.6769 8.30371 81.9468 8.37731C81.9959 8.37731 82.0695 8.40185 82.1921 8.47545C82.3148 8.54905 82.3884 8.62265 82.4375 8.72079C82.4865 8.81892 82.5601 9.01519 82.6828 9.3096C82.8055 9.62854 82.8545 10.1437 82.8545 10.9043C82.8545 12.3518 82.462 13.922 81.6524 15.6393C80.4012 18.338 78.7083 20.8159 76.5248 23.0731C73.4336 26.287 71.2501 27.9062 70.0234 27.9062C69.41 27.9062 69.0911 27.4401 69.0911 26.5323C69.0911 25.3056 69.6063 23.1221 70.6612 20.0063C71.3727 17.8964 72.1578 15.9092 73.0655 14.0692C74.513 11.1006 75.2245 8.62265 75.2245 6.63541C75.2245 3.91216 74.2432 2.14573 72.305 1.28705C71.201 0.869974 69.9743 0.64917 68.6495 0.64917C67.3001 0.64917 65.8771 0.943575 64.3561 1.50785C62.835 2.07213 61.3875 2.78361 60.0381 3.61776C58.6888 4.47644 57.413 5.53139 56.2354 6.80715C55.0578 8.08291 54.1745 9.4568 53.5612 10.9288C52.9478 12.4009 52.6289 13.7747 52.6289 15.026C52.6289 15.5657 52.678 16.0809 52.7761 16.5471C53.1441 18.1908 53.9047 19.4911 55.0577 20.4725C56.1863 21.4538 57.4375 21.92 58.7624 21.92C60.0872 21.92 61.4365 21.552 62.7859 20.7914C64.1353 20.0309 65.2883 19.0495 66.2206 17.8228C67.1529 16.5961 67.6191 15.3694 67.6191 14.1428C67.6191 12.9161 67.2265 12.0083 66.4414 11.4195C66.0244 11.1251 65.5582 10.9779 65.0675 10.9779C64.5769 10.9779 64.0862 11.076 63.62 11.2968C63.1539 11.5176 62.9331 11.6648 62.9331 11.812C62.9331 11.9347 63.1294 11.9592 63.4974 11.8366C63.8654 11.7384 64.2579 11.6648 64.6259 11.6648C64.9939 11.6648 65.3865 11.8611 65.7299 12.2537C66.098 12.6462 66.2697 13.3086 66.2697 14.1918C66.2697 15.8601 65.5337 17.4303 64.0617 18.9023C62.5896 20.3743 61.0195 21.1104 59.3266 21.1104C58.1245 21.1104 57.0941 20.7669 56.2108 20.0799C55.3276 19.393 54.7388 18.3626 54.4199 16.9887C54.3463 16.5716 54.2972 16.13 54.2972 15.6639C54.2972 14.5353 54.5425 13.2841 55.0577 11.9102C55.573 10.5118 56.3335 9.18693 57.3885 7.91117C58.4189 6.63542 59.572 5.55593 60.8477 4.62364C62.1235 3.71589 63.4728 2.93081 64.9203 2.29293C66.3678 1.65506 67.7172 1.33612 69.0175 1.33612C70.2687 1.33612 71.3727 1.60599 72.3786 2.14573C72.9429 2.4892 73.2618 3.10255 73.36 3.98577C73.409 4.25564 73.409 4.64818 73.409 5.13885C73.409 5.62953 73.3109 6.29194 73.1392 7.10156C72.673 9.21146 71.9615 11.395 71.0047 13.6275C68.5268 19.5402 67.2756 23.7355 67.2756 26.1888C67.2756 27.7099 67.7663 28.5686 68.7231 28.7404C68.8948 28.7894 69.0911 28.7894 69.2628 28.7894C70.4404 28.7894 71.9615 28.1515 73.8261 26.9003C75.6907 25.6491 77.5798 23.8336 79.5179 21.4538C81.4316 19.074 82.8545 16.6697 83.7868 14.2409C84.2284 13.2105 84.4247 12.2537 84.4247 11.444Z" fill="white"/>
<path d="M87.0008 14.6578C87.3443 14.6578 87.6387 14.5352 87.9331 14.2898C88.203 14.0445 88.3747 13.7501 88.4483 13.4312C88.4974 13.0877 88.4238 12.7933 88.2275 12.5725C88.0067 12.3271 87.7368 12.2045 87.3933 12.2045C87.0499 12.2045 86.7555 12.3271 86.4611 12.5725C86.1912 12.8178 86.0195 13.1122 85.9459 13.4312C85.8968 13.7746 85.9949 14.069 86.1912 14.2898C86.3875 14.5352 86.6573 14.6578 87.0008 14.6578Z" fill="white"/>
<path d="M107.806 14.2898C108.002 14.5352 108.272 14.6578 108.615 14.6578C108.959 14.6578 109.253 14.5352 109.547 14.2898C109.817 14.0445 109.989 13.7501 110.063 13.4312C110.112 13.0877 110.038 12.7933 109.842 12.5725C109.621 12.3271 109.351 12.2045 109.008 12.2045C108.664 12.2045 108.37 12.3271 108.075 12.5725C107.806 12.8178 107.634 13.1122 107.56 13.4312C107.536 13.7746 107.609 14.069 107.806 14.2898Z" fill="white"/>
<path d="M123.777 14.7561C124.12 14.7561 124.415 14.6334 124.709 14.3881C124.979 14.1428 125.151 13.8484 125.224 13.5294C125.273 13.186 125.2 12.8915 125.004 12.6707C124.783 12.4254 124.513 12.3027 124.169 12.3027C123.826 12.3027 123.532 12.4254 123.237 12.6707C122.967 12.9161 122.796 13.2105 122.722 13.5294C122.673 13.8729 122.771 14.1673 122.967 14.3881C123.164 14.6334 123.433 14.7561 123.777 14.7561Z" fill="white"/>
<path d="M126.206 20.0308C126.058 19.9081 125.936 20.0062 125.789 20.3006C124.66 22.5823 123.703 24.0788 122.967 24.8394C122.55 25.2074 122.158 25.4037 121.765 25.4037C121.152 25.4037 120.833 25.1092 120.833 24.545C120.833 24.0298 121.005 23.3919 121.348 22.6559L123.752 17.0376C123.949 16.6696 124.022 16.4243 123.924 16.2525C123.85 16.0808 123.581 16.0072 123.114 16.0072L121.471 16.0317C121.716 16.3507 121.839 16.6206 121.839 16.8168C121.839 17.0131 121.814 17.1848 121.79 17.3075C120.931 19.491 119.974 22.2143 118.747 23.6127C118.306 24.1279 117.889 24.545 117.447 24.8884C117.03 25.2319 116.638 25.4037 116.294 25.4037C116.196 25.4037 116.098 25.3791 116 25.3055C115.901 25.2319 115.852 25.0847 115.852 24.8884C115.852 24.6186 115.926 24.3242 116.049 23.9807C116.196 23.6618 116.368 23.3183 116.564 22.9503C116.76 22.5823 116.981 22.2143 117.226 21.8217C117.472 21.4292 117.692 21.0366 117.889 20.6441C118.085 20.2516 118.257 19.8345 118.404 19.4419C118.551 19.0494 118.6 18.6569 118.6 18.2643C118.6 17.7982 118.527 17.4056 118.379 17.0867C118.232 16.7923 118.06 16.547 117.864 16.3752C117.668 16.2035 117.447 16.0808 117.226 16.0317C117.006 15.9581 116.809 15.9336 116.638 15.9336C116.441 15.9336 116.22 15.9581 115.975 16.0317C115.73 16.1053 115.46 16.2035 115.165 16.3507C114.969 16.4488 114.748 16.596 114.503 16.7432C114.405 16.8168 114.307 16.8659 114.209 16.9395C113.865 17.1848 113.497 17.5038 113.105 17.8963C113.154 17.651 113.178 17.4056 113.178 17.1603C113.178 16.8659 113.129 16.596 113.056 16.3752C113.031 16.3262 113.007 16.2771 112.982 16.228C112.908 16.0563 112.835 15.9091 112.712 15.7864C112.565 15.6392 112.418 15.5165 112.221 15.4184C112.074 15.3448 111.902 15.3203 111.731 15.2957L111.706 15.9581C111.78 15.9827 111.829 16.0072 111.878 16.0563C111.976 16.1299 112.025 16.3016 112.025 16.547C112.025 16.7678 111.976 17.0622 111.878 17.4056C111.78 17.7246 111.633 18.1171 111.412 18.5833C111.191 18.9758 110.97 19.4419 110.7 19.9326C110.529 20.2761 110.332 20.6686 110.136 21.0612C109.204 22.8521 108.394 24.0788 107.756 24.7167C107.339 25.0847 106.947 25.281 106.554 25.281C105.941 25.281 105.622 24.9866 105.622 24.4223C105.622 23.9071 105.794 23.2692 106.137 22.5332L108.541 16.915C108.738 16.547 108.811 16.3016 108.713 16.1299C108.639 15.9581 108.37 15.8845 107.903 15.8845L106.26 15.9091C106.505 16.228 106.628 16.4979 106.628 16.6942C106.628 16.8904 106.603 17.0622 106.579 17.1848C105.646 19.5646 104.69 21.8463 103.218 23.9562C102.531 24.9375 101.844 25.4037 101.108 25.4037C100.666 25.4037 100.347 25.2074 100.151 24.8394C99.9545 24.4714 99.8564 24.0788 99.8564 23.6372C99.8564 23.1956 99.9055 22.7785 100.028 22.3369C100.126 21.8953 100.273 21.4537 100.445 20.9876C100.617 20.5214 100.691 20.2516 100.715 20.1534C103.095 17.9699 105.131 14.9768 106.873 11.1495C107.364 10.1191 107.585 9.26042 107.585 8.57347C107.585 8.40174 107.585 8.25453 107.56 8.13186C107.388 7.46945 107.094 7.15051 106.628 7.15051C105.965 7.15051 105.303 7.51852 104.616 8.23C104.272 8.59801 103.806 9.26042 103.218 10.2663C102.629 11.2477 101.917 12.7197 101.059 14.6824C100.494 15.9827 100.004 17.2339 99.6111 18.4115C99.243 19.5401 98.8505 20.6686 98.2862 21.7236C98.1636 21.9444 97.9673 22.2879 97.7219 22.754C97.4521 23.2201 97.035 23.7599 96.4217 24.3978C95.931 24.9375 95.4403 25.2074 94.9006 25.2074C94.2136 25.2074 93.7475 24.962 93.5021 24.4468C94.6307 23.3919 95.4648 22.2143 96.0291 20.914C96.4707 19.9572 96.6915 19.0494 96.6915 18.2153C96.6915 16.3752 95.9555 15.4675 94.508 15.4675C93.5267 15.4675 92.4963 15.9581 91.3922 16.9395C90.3127 17.9208 89.4786 19.0985 88.8653 20.4724C87.7858 22.6068 86.9025 24.0298 86.1911 24.7412C85.774 25.1092 85.3815 25.3055 84.9889 25.3055C84.3756 25.3055 84.0566 25.0111 84.0566 24.4468C84.0566 23.9316 84.2284 23.2937 84.5718 22.5577L86.9762 16.9395C87.1724 16.5715 87.246 16.3262 87.1479 16.1544C87.0743 15.9827 86.8044 15.9091 86.3383 15.9091L84.6945 15.9336C84.9398 16.2526 85.0625 16.5224 85.0625 16.7187C85.0625 16.915 85.038 17.0867 85.0135 17.2094L83.0998 22.0916C82.8299 22.7295 82.7073 23.3183 82.7073 23.858C82.7073 24.3978 82.879 24.8884 83.198 25.3301C83.5169 25.7717 84.0321 25.9925 84.7681 25.9925C85.5041 25.9925 86.2647 25.5263 87.0988 24.594C87.3932 24.2506 87.7367 23.7599 88.1047 23.1465C88.1538 23.0484 88.2028 22.9748 88.2519 22.9012C88.2519 23.0239 88.2274 23.1465 88.2274 23.2692C88.2274 25.1092 88.9634 26.017 90.4109 26.017C91.196 26.017 92.0301 25.6735 92.9624 24.9866C93.4285 25.5018 94.0664 25.7717 94.876 25.7717C95.3176 25.7717 95.7838 25.6245 96.2745 25.3301C96.4707 25.2074 96.6915 25.0356 96.9123 24.8148C97.1331 24.594 97.3294 24.3978 97.4766 24.226C97.6238 24.0543 97.7956 23.809 97.9918 23.5146C98.1881 23.2201 98.3353 22.9748 98.4334 22.8031C98.458 22.7785 98.4825 22.7295 98.4825 22.7049C98.458 22.8276 98.458 22.9503 98.4334 23.0729C98.4089 23.441 98.4089 23.7599 98.4089 24.0052C98.4089 24.2506 98.4334 24.5204 98.507 24.8394C98.5806 25.1583 98.7769 25.4282 99.1204 25.6981C99.4639 25.9679 99.93 26.1151 100.568 26.1151C101.181 26.1151 101.844 25.8943 102.555 25.4527C102.825 25.281 103.095 25.0356 103.389 24.7167C103.684 24.3978 103.904 24.1279 104.076 23.9071C104.15 23.809 104.248 23.6618 104.346 23.5146C104.322 23.6618 104.322 23.7844 104.322 23.9316C104.322 24.4714 104.493 24.962 104.812 25.4037C105.131 25.8453 105.646 26.0661 106.382 26.0661C107.02 26.0661 107.683 25.6981 108.394 24.9866C108.296 25.2074 108.198 25.4037 108.1 25.5754C107.879 26.0661 107.707 26.0906 108.468 26.1151C108.909 26.0906 108.958 26.0661 109.106 26.017C109.253 25.9679 109.4 25.8453 109.523 25.649C109.793 25.2074 109.915 24.7658 110.136 24.2996C110.332 23.8826 110.529 23.441 110.749 23.0239C111.093 22.3369 111.412 21.6255 111.804 20.963C112.32 20.0308 112.908 19.1721 113.644 18.4115C114.331 17.7 115.754 16.7432 116.809 16.7432C117.079 16.7432 117.3 16.8414 117.447 17.0376C117.594 17.2339 117.668 17.4547 117.668 17.7491C117.668 17.9944 117.594 18.2889 117.423 18.6323C117.275 18.9758 117.079 19.3438 116.834 19.7363C116.588 20.1289 116.343 20.546 116.073 20.9876C115.803 21.4292 115.533 21.8708 115.313 22.2879C115.067 22.7295 114.871 23.1465 114.724 23.5636C114.577 23.9807 114.479 24.3487 114.479 24.7167C114.479 24.9375 114.528 25.1338 114.601 25.3301C114.675 25.5263 114.797 25.6981 114.945 25.8453C115.092 25.9925 115.264 26.0906 115.46 26.1887C115.656 26.2623 115.877 26.3114 116.122 26.3114C116.539 26.3114 116.956 26.1887 117.398 25.9434C117.815 25.6981 118.232 25.3791 118.625 25.0111C118.944 24.7167 119.238 24.3732 119.532 24.0298C119.532 24.0543 119.532 24.0788 119.532 24.1034C119.532 24.6431 119.704 25.1338 120.023 25.5754C120.342 26.017 120.857 26.2378 121.593 26.2378C122.329 26.2378 123.09 25.7717 123.924 24.8394C124.218 24.4959 124.562 24.0052 124.93 23.3919C125.298 22.754 125.543 22.3124 125.69 22.018C125.813 21.7481 125.96 21.4292 126.132 21.0612C126.304 20.7177 126.377 20.4969 126.377 20.3988C126.279 20.1534 126.255 20.0798 126.206 20.0308ZM103.291 13.8482C104.248 11.7874 104.984 10.389 105.548 9.57936C106.113 8.79428 106.481 8.40174 106.677 8.40174C106.824 8.40174 106.898 8.59801 106.898 8.99055C106.898 9.38309 106.652 10.1436 106.186 11.2477C105.72 12.3517 104.984 13.701 103.978 15.2712C102.972 16.8414 101.966 18.1662 100.96 19.1966C101.574 17.6755 102.334 15.8845 103.291 13.8482ZM92.5944 24.5204C91.981 25.0602 91.4168 25.3301 90.9261 25.3301C90.2146 25.3301 89.8711 24.8639 89.8711 23.9562C89.8711 23.0484 90.2146 21.8463 90.9261 20.4233C91.5149 19.1721 92.1773 18.2153 92.9133 17.4792C93.6493 16.7678 94.2872 16.3998 94.827 16.3998C95.563 16.3998 95.931 16.8904 95.931 17.8718C95.931 18.8531 95.6856 19.859 95.1704 20.8649C94.7534 21.7972 93.6739 23.5882 92.5944 24.5204Z" fill="white"/>
<path d="M30.0332 30.7521H0.936157L0.960691 30.3841C1.1815 23.7354 3.92928 17.5039 8.71337 12.8424C13.4975 8.18102 19.8272 5.58044 26.5249 5.55591H26.8929V5.92392C26.942 9.57945 29.837 12.6952 33.4925 12.9896C33.9096 13.0387 34.3266 13.0387 34.7437 12.9896C35.4797 12.916 36.2157 12.7443 36.8782 12.4744L37.3934 12.2536V12.7934C37.3934 15.6884 36.4611 21.1349 30.4748 25.2075L28.5367 26.5323L29.1255 27.1456C29.2236 27.2438 30.0332 28.1025 30.2295 28.5686C30.3031 28.7403 30.3767 29.0347 30.1314 30.4577L30.0332 30.7521ZM1.6967 30.0161H29.4199C29.5671 29.0838 29.518 28.8875 29.518 28.8385C29.3954 28.5931 28.8556 27.9798 28.5367 27.6363L27.359 26.3851L30.0332 24.5696C35.4061 20.9386 36.4856 16.1545 36.6083 13.3086C36.0195 13.5049 35.4061 13.6275 34.7683 13.6766C34.3266 13.7257 33.836 13.7257 33.3944 13.6766C29.518 13.3331 26.4022 10.1192 26.1569 6.24286C12.9822 6.51273 2.33458 16.8415 1.6967 30.0161Z" fill="white"/>
<path d="M47.0106 46.8707L46.8143 46.1102C46.0292 43.1661 43.4777 41.0072 40.4601 40.7373C40.043 40.6882 39.6259 40.6882 39.2089 40.7373C38.4728 40.8109 37.7368 40.9826 37.0744 41.2525L36.5592 41.4733V40.9336C36.5592 38.0386 37.4915 32.5921 43.4777 28.5195L45.4159 27.1946L43.9439 25.649C43.7476 25.4527 43.6985 25.281 43.674 25.0357C43.5759 24.0789 44.042 21.9935 44.3855 20.4479C44.778 18.706 45.1951 16.7432 45.4159 14.6333L45.4895 13.7747L46.0538 14.4125C50.0773 19.074 52.2854 25.0357 52.2854 31.1937C52.2854 36.6156 50.6171 41.8168 47.4277 46.2083L47.0106 46.8707ZM39.8222 39.9767C40.0675 39.9767 40.2883 39.9767 40.5337 40.0013C43.6004 40.2712 46.25 42.3075 47.305 45.2024C50.1019 41.0562 51.5984 36.2476 51.5984 31.2182C51.5984 25.5263 49.6357 20.0062 46.0783 15.5902C45.833 17.4057 45.465 19.0985 45.146 20.6196C44.8516 22.018 44.3855 24.1279 44.4591 24.9621C44.4591 25.0847 44.4836 25.0847 44.5327 25.1338L46.5935 27.3173L43.9193 29.1328C38.5464 32.7638 37.467 37.5479 37.3443 40.3938C37.9331 40.1976 38.5464 40.0749 39.1843 40.0258C39.3561 40.0013 39.5769 39.9767 39.8222 39.9767Z" fill="white"/>
<path d="M26.623 56.9052C20.048 56.9052 13.7918 54.4272 9.00775 49.913L8.34534 49.2751H30.1313L30.2295 49.4714C31.8732 52.5136 34.1549 53.8875 35.7987 54.5254L36.6819 54.8689L35.7987 55.2123C32.8791 56.3409 29.7879 56.9052 26.623 56.9052ZM10.2099 50.0112C14.7487 53.9856 20.5386 56.1691 26.623 56.1691C29.3953 56.1691 32.094 55.7275 34.6946 54.8443C33.0999 54.0592 31.1618 52.6363 29.7143 50.0357H10.2099V50.0112Z" fill="white"/>
<path d="M29.7144 48.3919H7.53588L7.43775 48.2692C6.65266 47.386 5.91665 46.4292 5.25424 45.4478L4.88623 44.8835H28.684L28.7331 45.178C28.9293 46.1593 29.1992 47.0671 29.5182 47.9012L29.7144 48.3919ZM7.85482 47.6559H28.6349C28.4141 47.018 28.2179 46.331 28.0461 45.595H6.21106C6.7508 46.331 7.29054 47.018 7.85482 47.6559Z" fill="white"/>
<path d="M29.101 35.1681H1.23057L1.20603 34.8492C1.08336 33.9169 0.985227 32.9601 0.960693 32.0278V31.6598H29.886L29.7879 32.1014C29.6898 32.5185 29.6162 32.9355 29.5426 33.279C29.4199 33.7942 29.3218 34.334 29.1991 34.8982L29.101 35.1681ZM1.86844 34.4321H28.5121C28.6103 33.966 28.7084 33.5244 28.8065 33.1073C28.8556 32.8865 28.9047 32.6411 28.9537 32.3713H1.69671C1.72124 33.0582 1.79484 33.7452 1.86844 34.4321Z" fill="white"/>
<path d="M28.4385 39.5597H2.33451L2.2609 39.3144C1.94196 38.3821 1.69663 37.4498 1.50036 36.493L1.40222 36.0514H28.9291L28.8555 36.493C28.6838 37.4744 28.5611 38.3821 28.463 39.2408L28.4385 39.5597ZM2.84972 38.8482H27.776C27.8496 38.1858 27.9478 37.5234 28.0705 36.7874H2.30997C2.45717 37.4744 2.65345 38.1613 2.84972 38.8482Z" fill="white"/>
<path d="M28.5122 43.9757H4.32186L4.22373 43.7795C3.70852 42.8717 3.24238 41.9149 2.84984 40.9581L2.65356 40.4429H28.3895V40.8109C28.365 41.7432 28.3895 42.6754 28.4876 43.5341L28.5122 43.9757ZM4.76347 43.2397H27.7026C27.6535 42.5773 27.629 41.8904 27.629 41.1789H3.75758C4.05199 41.8904 4.39546 42.5773 4.76347 43.2397Z" fill="white"/>
<path d="M40.3129 42.2339C39.994 42.2094 39.6505 42.2094 39.3561 42.2339C37.835 42.3566 36.4366 43.0926 35.4553 44.2457C34.3267 39.756 35.3326 32.2487 42.6437 27.2929L43.1343 26.9494L42.7173 26.5078C41.7604 25.5019 42.3002 23.024 42.9381 20.129C43.625 16.9641 44.5082 13.0142 43.7967 9.18692C42.3983 1.43424 37.0254 -0.184991 34.0814 0.0603465C30.941 0.0603465 28.365 2.63639 28.365 5.80125C28.365 8.74531 30.6712 11.2723 33.6152 11.5176C33.9342 11.5422 34.2776 11.5422 34.5966 11.5176C36.1177 11.395 37.5161 10.6589 38.4974 9.50586C39.626 13.9955 38.6201 21.5029 31.309 26.4587L30.8184 26.8022L31.2354 27.2438C32.1923 28.2497 31.6525 30.7276 31.0146 33.6226C30.3277 36.7874 29.4445 40.7374 30.156 44.5646C31.4808 51.8512 36.2649 53.7403 39.3071 53.7403C39.5033 53.7403 39.6996 53.7403 39.8959 53.7157C43.0362 53.7157 45.6122 51.1397 45.6122 47.9748C45.5632 44.9817 43.257 42.4793 40.3129 42.2339ZM39.1353 8.1565L38.7673 7.10155L38.2276 8.05836C37.467 9.43225 36.0686 10.3155 34.4984 10.4627C34.2531 10.4872 33.9832 10.4872 33.7134 10.4627C31.2845 10.2664 29.3954 8.20557 29.3954 5.75219C29.3954 3.1516 31.5053 1.0417 34.1059 1.0417H34.155C36.7801 0.79636 41.5396 2.29292 42.8154 9.38319C43.4778 13.0142 42.6437 16.8415 41.9567 19.9082C41.3434 22.6805 40.8527 24.9376 41.4906 26.4342C40.5828 26.287 39.1108 26.0416 37.9332 25.9435C40.4111 21.7728 41.1226 18.6815 41.4906 14.9278C42.0058 9.80026 40.5583 5.65405 37.7614 4.08389L37.4916 4.55003C40.1167 5.99752 41.4415 9.94746 40.9508 14.8542C40.5828 18.6079 39.8468 21.6746 37.3198 25.8699C37.2217 25.8699 37.1481 25.8699 37.05 25.8699C36.0931 25.8699 34.3758 26.0907 33.1 26.287C40.2639 20.6687 40.681 12.499 39.1353 8.1565ZM39.8223 52.6608H39.7732C37.1726 52.9061 32.3885 51.4096 31.1128 44.3193C30.4504 40.6883 31.2845 36.861 31.9715 33.7943C32.6093 30.8748 33.1491 28.495 32.3149 27.023C33.468 26.8267 35.8233 26.4832 37.0254 26.4587C36.9764 26.5568 36.9273 26.6304 36.8537 26.7286C34.0568 31.1447 32.8547 34.4077 32.4376 38.7747C31.9224 43.9022 33.3699 48.0484 36.1667 49.6186L36.4366 49.1525C33.8115 47.705 32.4867 43.755 32.9773 38.8483C33.419 34.5058 34.5475 31.4145 37.3198 27.023C37.4425 26.8512 37.5406 26.6795 37.6388 26.4832C38.7673 26.5568 40.3865 26.8022 41.3434 26.9739C33.7134 32.6412 33.1981 41.1054 34.7928 45.546L35.1608 46.6009L35.7006 45.6441C36.4611 44.2702 37.8596 43.387 39.4297 43.2398C39.6751 43.2153 39.9449 43.2153 40.2148 43.2398C42.6437 43.4361 44.5328 45.4969 44.5328 47.9258C44.5328 50.5264 42.4229 52.6608 39.8223 52.6608Z" fill="white"/>
</svg>
